solid Visualization Toolkit generated SLA File
 facet normal -0.57735026918962584 -0.57735026918962584 -0.57735026918962584
  outer loop
   vertex 4 5 0.5
   vertex 4 4.5 1
   vertex 3.5 5 1
  endloop
 endfacet
 facet normal -0 -0.70710678118654746 -0.70710678118654746
  outer loop
   vertex 4 5 0.5
   vertex 5 5 0.5
   vertex 5 4.5 1
  endloop
 endfacet
 facet normal 0 -0.70710678118654746 -0.70710678118654746
  outer loop
   vertex 4 4.5 1
   vertex 4 5 0.5
   vertex 5 4.5 1
  endloop
 endfacet
 facet normal 0.57735026918962584 -0.57735026918962584 -0.57735026918962584
  outer loop
   vertex 5 4.5 1
   vertex 5 5 0.5
   vertex 5.5 5 1
  endloop
 endfacet
 facet normal -0.57735026918962584 -0.57735026918962584 -0.57735026918962584
  outer loop
   vertex 3 6 0.5
   vertex 3 5.5 1
   vertex 2.5 6 1
  endloop
 endfacet
 facet normal -0.57735026918962584 -0.57735026918962584 -0.57735026918962584
  outer loop
   vertex 3.5 5 1
   vertex 3 5.5 1
   vertex 3 6 0.5
  endloop
 endfacet
 facet normal -0.57735026918962584 -0.57735026918962584 -0.57735026918962584
  outer loop
   vertex 3.5 5 1
   vertex 3 6 0.5
   vertex 4 5 0.5
  endloop
 endfacet
 facet normal 0 0 -1
  outer loop
   vertex 4 5 0.5
   vertex 3 6 0.5
   vertex 4 6 0.5
  endloop
 endfacet
 facet normal 0.57735026918962584 0.57735026918962584 -0.57735026918962584
  outer loop
   vertex 4.5 6 1
   vertex 5 5.5 1
   vertex 5 5 0.5
  endloop
 endfacet
 facet normal 0.57735026918962584 0.57735026918962584 -0.57735026918962584
  outer loop
   vertex 4.5 6 1
   vertex 5 5 0.5
   vertex 4 6 0.5
  endloop
 endfacet
 facet normal 0 0 -1
  outer loop
   vertex 4 6 0.5
   vertex 5 5 0.5
   vertex 4 5 0.5
  endloop
 endfacet
 facet normal 0.57735026918962584 0.57735026918962584 -0.57735026918962584
  outer loop
   vertex 5.5 5 1
   vertex 5 5 0.5
   vertex 5 5.5 1
  endloop
 endfacet
 facet normal -0.57735026918962584 0.57735026918962584 -0.57735026918962584
  outer loop
   vertex 3 6 0.5
   vertex 2.5 6 1
   vertex 3 6.5 1
  endloop
 endfacet
 facet normal 0 0.70710678118654746 -0.70710678118654746
  outer loop
   vertex 4 6 0.5
   vertex 3 6 0.5
   vertex 3 6.5 1
  endloop
 endfacet
 facet normal 0 0.70710678118654746 -0.70710678118654746
  outer loop
   vertex 4 6.5 1
   vertex 4 6 0.5
   vertex 3 6.5 1
  endloop
 endfacet
 facet normal 0.57735026918962584 0.57735026918962584 -0.57735026918962584
  outer loop
   vertex 4.5 6 1
   vertex 4 6 0.5
   vertex 4 6.5 1
  endloop
 endfacet
 facet normal -0.57735026918962584 -0.57735026918962584 -0.57735026918962584
  outer loop
   vertex 4 4 1.5
   vertex 4 3.5 2
   vertex 3.5 4 2
  endloop
 endfacet
 facet normal -0 -0.70710678118654746 -0.70710678118654746
  outer loop
   vertex 4 4 1.5
   vertex 5 4 1.5
   vertex 5 3.5 2
  endloop
 endfacet
 facet normal 0 -0.70710678118654746 -0.70710678118654746
  outer loop
   vertex 4 3.5 2
   vertex 4 4 1.5
   vertex 5 3.5 2
  endloop
 endfacet
 facet normal 0.57735026918962584 -0.57735026918962584 -0.57735026918962584
  outer loop
   vertex 5 3.5 2
   vertex 5 4 1.5
   vertex 5.5 4 2
  endloop
 endfacet
 facet normal -0.57735026918962584 -0.57735026918962584 -0.57735026918962584
  outer loop
   vertex 3 5 1.5
   vertex 3 4.5 2
   vertex 2.5 5 2
  endloop
 endfacet
 facet normal -0.57735026918962584 -0.57735026918962584 -0.57735026918962584
  outer loop
   vertex 3.5 4 2
   vertex 3 4.5 2
   vertex 3 5 1.5
  endloop
 endfacet
 facet normal -0.57735026918962584 -0.57735026918962584 -0.57735026918962584
  outer loop
   vertex 4 4 1.5
   vertex 3.5 4 2
   vertex 3 5 1.5
  endloop
 endfacet
 facet normal -0.57735026918962584 -0.57735026918962584 -0.57735026918962584
  outer loop
   vertex 4 4 1.5
   vertex 3 5 1.5
   vertex 3.5 5 1
  endloop
 endfacet
 facet normal -0.57735026918962584 -0.57735026918962584 -0.57735026918962584
  outer loop
   vertex 4 4 1.5
   vertex 3.5 5 1
   vertex 4 4.5 1
  endloop
 endfacet
 facet normal 0 -0.70710678118654746 -0.70710678118654746
  outer loop
   vertex 5 4.5 1
   vertex 4 4 1.5
   vertex 4 4.5 1
  endloop
 endfacet
 facet normal 0 -0.70710678118654746 -0.70710678118654746
  outer loop
   vertex 5 4 1.5
   vertex 4 4 1.5
   vertex 5 4.5 1
  endloop
 endfacet
 facet normal 0.57735026918962584 -0.57735026918962584 -0.57735026918962584
  outer loop
   vertex 5 4 1.5
   vertex 5 4.5 1
   vertex 5.5 5 1
  endloop
 endfacet
 facet normal 0.57735026918962584 -0.57735026918962584 -0.57735026918962584
  outer loop
   vertex 5 4 1.5
   vertex 5.5 5 1
   vertex 5.5 4 2
  endloop
 endfacet
 facet normal 1 0 -0
  outer loop
   vertex 5.5 4 2
   vertex 5.5 5 1
   vertex 5.5 5 2
  endloop
 endfacet
 facet normal -0.57735026918962584 -0.57735026918962584 -0.57735026918962584
  outer loop
   vertex 2 6 1.5
   vertex 2 5.5 2
   vertex 1.5 6 2
  endloop
 endfacet
 facet normal -0.57735026918962584 -0.57735026918962584 -0.57735026918962584
  outer loop
   vertex 2.5 5 2
   vertex 2 5.5 2
   vertex 2 6 1.5
  endloop
 endfacet
 facet normal -0.57735026918962584 -0.57735026918962584 -0.57735026918962584
  outer loop
   vertex 3 5 1.5
   vertex 2.5 5 2
   vertex 2 6 1.5
  endloop
 endfacet
 facet normal -0.57735026918962584 -0.57735026918962584 -0.57735026918962584
  outer loop
   vertex 3 5 1.5
   vertex 2 6 1.5
   vertex 2.5 6 1
  endloop
 endfacet
 facet normal -0.57735026918962584 -0.57735026918962584 -0.57735026918962584
  outer loop
   vertex 3 5 1.5
   vertex 2.5 6 1
   vertex 3 5.5 1
  endloop
 endfacet
 facet normal -0.57735026918962584 -0.57735026918962584 -0.57735026918962584
  outer loop
   vertex 3.5 5 1
   vertex 3 5 1.5
   vertex 3 5.5 1
  endloop
 endfacet
 facet normal 0.57735026918962584 0.57735026918962584 -0.57735026918962584
  outer loop
   vertex 5 5.5 1
   vertex 4.5 6 1
   vertex 5 6 1.5
  endloop
 endfacet
 facet normal 0.57735026918962584 0.57735026918962584 -0.57735026918962584
  outer loop
   vertex 5 5.5 1
   vertex 5 6 1.5
   vertex 5.5 6 2
  endloop
 endfacet
 facet normal 0.57735026918962584 0.57735026918962584 -0.57735026918962584
  outer loop
   vertex 5 5.5 1
   vertex 5.5 6 2
   vertex 5.5 5 1
  endloop
 endfacet
 facet normal 1 0 0
  outer loop
   vertex 5.5 5 1
   vertex 5.5 6 2
   vertex 5.5 5 2
  endloop
 endfacet
 facet normal -0.70710678118654746 0 -0.70710678118654746
  outer loop
   vertex 2 7 1.5
   vertex 2 6 1.5
   vertex 1.5 6 2
  endloop
 endfacet
 facet normal -0.70710678118654746 0 -0.70710678118654746
  outer loop
   vertex 1.5 7 2
   vertex 2 7 1.5
   vertex 1.5 6 2
  endloop
 endfacet
 facet normal -0.57735026918962584 0.57735026918962584 -0.57735026918962584
  outer loop
   vertex 2.5 6 1
   vertex 3 7 1.5
   vertex 3 6.5 1
  endloop
 endfacet
 facet normal -0.57735026918962584 0.57735026918962584 -0.57735026918962584
  outer loop
   vertex 2.5 6 1
   vertex 2 6 1.5
   vertex 3 7 1.5
  endloop
 endfacet
 facet normal 0 0 -1
  outer loop
   vertex 2 6 1.5
   vertex 2 7 1.5
   vertex 3 7 1.5
  endloop
 endfacet
 facet normal 0 0.70710678118654746 -0.70710678118654746
  outer loop
   vertex 3 6.5 1
   vertex 4 7 1.5
   vertex 4 6.5 1
  endloop
 endfacet
 facet normal 0 0.70710678118654746 -0.70710678118654746
  outer loop
   vertex 3 7 1.5
   vertex 4 7 1.5
   vertex 3 6.5 1
  endloop
 endfacet
 facet normal 0.57735026918962584 0.57735026918962584 -0.57735026918962584
  outer loop
   vertex 4 6.5 1
   vertex 4 7 1.5
   vertex 4.5 7 2
  endloop
 endfacet
 facet normal 0.57735026918962584 0.57735026918962584 -0.57735026918962584
  outer loop
   vertex 4.5 6 1
   vertex 4 6.5 1
   vertex 4.5 7 2
  endloop
 endfacet
 facet normal 0.57735026918962584 0.57735026918962584 -0.57735026918962584
  outer loop
   vertex 4.5 6 1
   vertex 4.5 7 2
   vertex 5 6.5 2
  endloop
 endfacet
 facet normal 0.57735026918962584 0.57735026918962584 -0.57735026918962584
  outer loop
   vertex 4.5 6 1
   vertex 5 6.5 2
   vertex 5 6 1.5
  endloop
 endfacet
 facet normal 0.57735026918962584 0.57735026918962584 -0.57735026918962584
  outer loop
   vertex 5.5 6 2
   vertex 5 6 1.5
   vertex 5 6.5 2
  endloop
 endfacet
 facet normal -0.57735026918962584 0.57735026918962584 -0.57735026918962584
  outer loop
   vertex 2 7 1.5
   vertex 1.5 7 2
   vertex 2 7.5 2
  endloop
 endfacet
 facet normal -0.57735026918962584 0.57735026918962584 -0.57735026918962584
  outer loop
   vertex 2 7.5 2
   vertex 2.5 8 2
   vertex 3 8 1.5
  endloop
 endfacet
 facet normal -0.57735026918962584 0.57735026918962584 -0.57735026918962584
  outer loop
   vertex 2 7.5 2
   vertex 3 8 1.5
   vertex 2 7 1.5
  endloop
 endfacet
 facet normal 0 -0 -1
  outer loop
   vertex 2 7 1.5
   vertex 3 8 1.5
   vertex 3 7 1.5
  endloop
 endfacet
 facet normal 0 0 -1
  outer loop
   vertex 4 7 1.5
   vertex 3 7 1.5
   vertex 4 8 1.5
  endloop
 endfacet
 facet normal 0 0 -1
  outer loop
   vertex 4 8 1.5
   vertex 3 7 1.5
   vertex 3 8 1.5
  endloop
 endfacet
 facet normal 0.70710678118654746 0 -0.70710678118654746
  outer loop
   vertex 4.5 8 2
   vertex 4.5 7 2
   vertex 4 7 1.5
  endloop
 endfacet
 facet normal 0.70710678118654746 0 -0.70710678118654746
  outer loop
   vertex 4 8 1.5
   vertex 4.5 8 2
   vertex 4 7 1.5
  endloop
 endfacet
 facet normal -0.57735026918962584 0.57735026918962584 -0.57735026918962584
  outer loop
   vertex 3 8 1.5
   vertex 2.5 8 2
   vertex 3 8.5 2
  endloop
 endfacet
 facet normal 0 0.70710678118654746 -0.70710678118654746
  outer loop
   vertex 4 8 1.5
   vertex 3 8 1.5
   vertex 3 8.5 2
  endloop
 endfacet
 facet normal 0 0.70710678118654746 -0.70710678118654746
  outer loop
   vertex 4 8.5 2
   vertex 4 8 1.5
   vertex 3 8.5 2
  endloop
 endfacet
 facet normal 0.57735026918962584 0.57735026918962584 -0.57735026918962584
  outer loop
   vertex 4.5 8 2
   vertex 4 8 1.5
   vertex 4 8.5 2
  endloop
 endfacet
 facet normal -0.57735026918962584 -0.57735026918962584 -0.57735026918962584
  outer loop
   vertex 4 3 2.5
   vertex 4 2.5 3
   vertex 3.5 3 3
  endloop
 endfacet
 facet normal 0.57735026918962584 -0.57735026918962584 -0.57735026918962584
  outer loop
   vertex 4 2.5 3
   vertex 4 3 2.5
   vertex 4.5 3 3
  endloop
 endfacet
 facet normal -0.57735026918962584 -0.57735026918962584 -0.57735026918962584
  outer loop
   vertex 3 4 2.5
   vertex 3 3.5 3
   vertex 2.5 4 3
  endloop
 endfacet
 facet normal -0.57735026918962584 -0.57735026918962584 -0.57735026918962584
  outer loop
   vertex 3.5 3 3
   vertex 3 3.5 3
   vertex 3 4 2.5
  endloop
 endfacet
 facet normal -0.57735026918962584 -0.57735026918962584 -0.57735026918962584
  outer loop
   vertex 4 3 2.5
   vertex 3.5 3 3
   vertex 3 4 2.5
  endloop
 endfacet
 facet normal -0.57735026918962584 -0.57735026918962584 -0.57735026918962584
  outer loop
   vertex 4 3 2.5
   vertex 3 4 2.5
   vertex 3.5 4 2
  endloop
 endfacet
 facet normal -0.57735026918962584 -0.57735026918962584 -0.57735026918962584
  outer loop
   vertex 4 3 2.5
   vertex 3.5 4 2
   vertex 4 3.5 2
  endloop
 endfacet
 facet normal 0.57735026918962584 -0.57735026918962584 -0.57735026918962584
  outer loop
   vertex 4 3 2.5
   vertex 5 3.5 3
   vertex 4.5 3 3
  endloop
 endfacet
 facet normal 0.57735026918962584 -0.57735026918962584 -0.57735026918962584
  outer loop
   vertex 4 3 2.5
   vertex 4 3.5 2
   vertex 5 3.5 3
  endloop
 endfacet
 facet normal 0 -1 0
  outer loop
   vertex 4 3.5 2
   vertex 5 3.5 2
   vertex 5 3.5 3
  endloop
 endfacet
 facet normal 0.70710678118654746 -0.70710678118654746 0
  outer loop
   vertex 5 3.5 3
   vertex 5 3.5 2
   vertex 5.5 4 2
  endloop
 endfacet
 facet normal 0.70710678118654746 -0.70710678118654746 0
  outer loop
   vertex 5.5 4 3
   vertex 5 3.5 3
   vertex 5.5 4 2
  endloop
 endfacet
 facet normal -0.57735026918962584 -0.57735026918962584 -0.57735026918962584
  outer loop
   vertex 2 5 2.5
   vertex 2 4.5 3
   vertex 1.5 5 3
  endloop
 endfacet
 facet normal -0.57735026918962584 -0.57735026918962584 -0.57735026918962584
  outer loop
   vertex 2.5 4 3
   vertex 2 4.5 3
   vertex 2 5 2.5
  endloop
 endfacet
 facet normal -0.57735026918962584 -0.57735026918962584 -0.57735026918962584
  outer loop
   vertex 3 4 2.5
   vertex 2.5 4 3
   vertex 2 5 2.5
  endloop
 endfacet
 facet normal -0.57735026918962584 -0.57735026918962584 -0.57735026918962584
  outer loop
   vertex 3 4 2.5
   vertex 2 5 2.5
   vertex 2.5 5 2
  endloop
 endfacet
 facet normal -0.57735026918962584 -0.57735026918962584 -0.57735026918962584
  outer loop
   vertex 3 4 2.5
   vertex 2.5 5 2
   vertex 3 4.5 2
  endloop
 endfacet
 facet normal -0.57735026918962584 -0.57735026918962584 -0.57735026918962584
  outer loop
   vertex 3.5 4 2
   vertex 3 4 2.5
   vertex 3 4.5 2
  endloop
 endfacet
 facet normal 1 0 0
  outer loop
   vertex 5.5 4 2
   vertex 5.5 5 2
   vertex 5.5 4 3
  endloop
 endfacet
 facet normal 1 0 -0
  outer loop
   vertex 5.5 4 3
   vertex 5.5 5 2
   vertex 5.5 5 3
  endloop
 endfacet
 facet normal -0.57735026918962584 -0.57735026918962584 -0.57735026918962584
  outer loop
   vertex 2 5.5 2
   vertex 2 5 2.5
   vertex 1.5 5 3
  endloop
 endfacet
 facet normal -0.57735026918962584 -0.57735026918962584 -0.57735026918962584
  outer loop
   vertex 2 5.5 2
   vertex 1.5 5 3
   vertex 1.5 6 2
  endloop
 endfacet
 facet normal -1 0 0
  outer loop
   vertex 1.5 6 2
   vertex 1.5 5 3
   vertex 1.5 6 3
  endloop
 endfacet
 facet normal -0.57735026918962584 -0.57735026918962584 -0.57735026918962584
  outer loop
   vertex 2.5 5 2
   vertex 2 5 2.5
   vertex 2 5.5 2
  endloop
 endfacet
 facet normal 1 0 0
  outer loop
   vertex 5.5 5 2
   vertex 5.5 6 2
   vertex 5.5 5 3
  endloop
 endfacet
 facet normal 1 0 -0
  outer loop
   vertex 5.5 5 3
   vertex 5.5 6 2
   vertex 5.5 6 3
  endloop
 endfacet
 facet normal -1 0 0
  outer loop
   vertex 1.5 6 2
   vertex 1.5 6 3
   vertex 1.5 7 2
  endloop
 endfacet
 facet normal -1 -0 -0
  outer loop
   vertex 1.5 6 3
   vertex 1.5 7 3
   vertex 1.5 7 2
  endloop
 endfacet
 facet normal 0.70710678118654746 0.70710678118654746 0
  outer loop
   vertex 5 6.5 2
   vertex 4.5 7 3
   vertex 5 6.5 3
  endloop
 endfacet
 facet normal 0.70710678118654746 0.70710678118654746 0
  outer loop
   vertex 4.5 7 2
   vertex 4.5 7 3
   vertex 5 6.5 2
  endloop
 endfacet
 facet normal 0.70710678118654746 0.70710678118654746 -0
  outer loop
   vertex 5.5 6 3
   vertex 5.5 6 2
   vertex 5 6.5 2
  endloop
 endfacet
 facet normal 0.70710678118654746 0.70710678118654746 0
  outer loop
   vertex 5 6.5 3
   vertex 5.5 6 3
   vertex 5 6.5 2
  endloop
 endfacet
 facet normal -0.70710678118654746 0.70710678118654746 0
  outer loop
   vertex 1.5 7 2
   vertex 1.5 7 3
   vertex 2 7.5 3
  endloop
 endfacet
 facet normal -0.70710678118654746 0.70710678118654746 0
  outer loop
   vertex 2 7.5 2
   vertex 1.5 7 2
   vertex 2 7.5 3
  endloop
 endfacet
 facet normal -0.57735026918962584 0.57735026918962584 0.57735026918962584
  outer loop
   vertex 2.5 8 2
   vertex 3 7.5 3
   vertex 3 8 2.5
  endloop
 endfacet
 facet normal -0.57735026918962584 0.57735026918962584 0.57735026918962584
  outer loop
   vertex 2.5 8 2
   vertex 2 7.5 2
   vertex 3 7.5 3
  endloop
 endfacet
 facet normal -0 1 0
  outer loop
   vertex 2 7.5 2
   vertex 2 7.5 3
   vertex 3 7.5 3
  endloop
 endfacet
 facet normal 0 0.70710678118654746 0.70710678118654746
  outer loop
   vertex 3 8 2.5
   vertex 4 7.5 3
   vertex 4 8 2.5
  endloop
 endfacet
 facet normal 0 0.70710678118654746 0.70710678118654746
  outer loop
   vertex 3 7.5 3
   vertex 4 7.5 3
   vertex 3 8 2.5
  endloop
 endfacet
 facet normal 0.57735026918962584 0.57735026918962584 0.57735026918962584
  outer loop
   vertex 4 8 2.5
   vertex 4 7.5 3
   vertex 4.5 7 3
  endloop
 endfacet
 facet normal 0.57735026918962584 0.57735026918962584 0.57735026918962584
  outer loop
   vertex 4 8 2.5
   vertex 4.5 7 3
   vertex 4.5 8 2
  endloop
 endfacet
 facet normal 1 0 0
  outer loop
   vertex 4.5 8 2
   vertex 4.5 7 3
   vertex 4.5 7 2
  endloop
 endfacet
 facet normal -0.57735026918962584 0.57735026918962584 0.57735026918962584
  outer loop
   vertex 2.5 8 2
   vertex 3 8 2.5
   vertex 3 8.5 2
  endloop
 endfacet
 facet normal -0 0.70710678118654746 0.70710678118654746
  outer loop
   vertex 4 8.5 2
   vertex 3 8.5 2
   vertex 3 8 2.5
  endloop
 endfacet
 facet normal 0 0.70710678118654746 0.70710678118654746
  outer loop
   vertex 4 8 2.5
   vertex 4 8.5 2
   vertex 3 8 2.5
  endloop
 endfacet
 facet normal 0.57735026918962584 0.57735026918962584 0.57735026918962584
  outer loop
   vertex 4.5 8 2
   vertex 4 8.5 2
   vertex 4 8 2.5
  endloop
 endfacet
 facet normal -0.57735026918962584 -0.57735026918962584 -0.57735026918962584
  outer loop
   vertex 5 1 3.5
   vertex 5 0.5 4
   vertex 4.5 1 4
  endloop
 endfacet
 facet normal -0 -0.70710678118654746 -0.70710678118654746
  outer loop
   vertex 5 1 3.5
   vertex 6 1 3.5
   vertex 6 0.5 4
  endloop
 endfacet
 facet normal 0 -0.70710678118654746 -0.70710678118654746
  outer loop
   vertex 5 0.5 4
   vertex 5 1 3.5
   vertex 6 0.5 4
  endloop
 endfacet
 facet normal 0.57735026918962584 -0.57735026918962584 -0.57735026918962584
  outer loop
   vertex 6 0.5 4
   vertex 6 1 3.5
   vertex 6.5 1 4
  endloop
 endfacet
 facet normal -0.57735026918962584 -0.57735026918962584 -0.57735026918962584
  outer loop
   vertex 4 2 3.5
   vertex 4 1.5 4
   vertex 3.5 2 4
  endloop
 endfacet
 facet normal -0.57735026918962584 -0.57735026918962584 -0.57735026918962584
  outer loop
   vertex 4.5 1 4
   vertex 4 1.5 4
   vertex 4 2 3.5
  endloop
 endfacet
 facet normal -0.57735026918962584 -0.57735026918962584 -0.57735026918962584
  outer loop
   vertex 4.5 1 4
   vertex 4 2 3.5
   vertex 5 1 3.5
  endloop
 endfacet
 facet normal 0 0 -1
  outer loop
   vertex 5 1 3.5
   vertex 4 2 3.5
   vertex 5 2 3.5
  endloop
 endfacet
 facet normal 0 0 -1
  outer loop
   vertex 6 1 3.5
   vertex 5 1 3.5
   vertex 6 2 3.5
  endloop
 endfacet
 facet normal 0 0 -1
  outer loop
   vertex 6 2 3.5
   vertex 5 1 3.5
   vertex 5 2 3.5
  endloop
 endfacet
 facet normal 0.70710678118654746 0 -0.70710678118654746
  outer loop
   vertex 6.5 2 4
   vertex 6.5 1 4
   vertex 6 1 3.5
  endloop
 endfacet
 facet normal 0.70710678118654746 0 -0.70710678118654746
  outer loop
   vertex 6 2 3.5
   vertex 6.5 2 4
   vertex 6 1 3.5
  endloop
 endfacet
 facet normal -0.57735026918962584 -0.57735026918962584 -0.57735026918962584
  outer loop
   vertex 3 3 3.5
   vertex 3 2.5 4
   vertex 2.5 3 4
  endloop
 endfacet
 facet normal -0.57735026918962584 -0.57735026918962584 -0.57735026918962584
  outer loop
   vertex 3.5 2 4
   vertex 3 2.5 4
   vertex 3 3 3.5
  endloop
 endfacet
 facet normal -0.57735026918962584 -0.57735026918962584 -0.57735026918962584
  outer loop
   vertex 4 2 3.5
   vertex 3.5 2 4
   vertex 3 3 3.5
  endloop
 endfacet
 facet normal -0.57735026918962584 -0.57735026918962584 -0.57735026918962584
  outer loop
   vertex 4 2 3.5
   vertex 3 3 3.5
   vertex 3.5 3 3
  endloop
 endfacet
 facet normal -0.57735026918962584 -0.57735026918962584 -0.57735026918962584
  outer loop
   vertex 4 2 3.5
   vertex 3.5 3 3
   vertex 4 2.5 3
  endloop
 endfacet
 facet normal 0.57735026918962584 -0.57735026918962584 -0.57735026918962584
  outer loop
   vertex 4.5 3 3
   vertex 4 2 3.5
   vertex 4 2.5 3
  endloop
 endfacet
 facet normal 0.57735026918962584 -0.57735026918962584 -0.57735026918962584
  outer loop
   vertex 4.5 3 3
   vertex 5 3 3.5
   vertex 4 2 3.5
  endloop
 endfacet
 facet normal 0 0 -1
  outer loop
   vertex 5 3 3.5
   vertex 5 2 3.5
   vertex 4 2 3.5
  endloop
 endfacet
 facet normal 0.57735026918962584 0.57735026918962584 -0.57735026918962584
  outer loop
   vertex 5.5 3 4
   vertex 6 2.5 4
   vertex 6 2 3.5
  endloop
 endfacet
 facet normal 0.57735026918962584 0.57735026918962584 -0.57735026918962584
  outer loop
   vertex 5.5 3 4
   vertex 6 2 3.5
   vertex 5 3 3.5
  endloop
 endfacet
 facet normal 0 0 -1
  outer loop
   vertex 5 3 3.5
   vertex 6 2 3.5
   vertex 5 2 3.5
  endloop
 endfacet
 facet normal 0.57735026918962584 0.57735026918962584 -0.57735026918962584
  outer loop
   vertex 6.5 2 4
   vertex 6 2 3.5
   vertex 6 2.5 4
  endloop
 endfacet
 facet normal -0.57735026918962584 -0.57735026918962584 -0.57735026918962584
  outer loop
   vertex 2 4 3.5
   vertex 2 3.5 4
   vertex 1.5 4 4
  endloop
 endfacet
 facet normal -0.57735026918962584 -0.57735026918962584 -0.57735026918962584
  outer loop
   vertex 2.5 3 4
   vertex 2 3.5 4
   vertex 2 4 3.5
  endloop
 endfacet
 facet normal -0.57735026918962584 -0.57735026918962584 -0.57735026918962584
  outer loop
   vertex 3 3 3.5
   vertex 2.5 3 4
   vertex 2 4 3.5
  endloop
 endfacet
 facet normal -0.57735026918962584 -0.57735026918962584 -0.57735026918962584
  outer loop
   vertex 3 3 3.5
   vertex 2 4 3.5
   vertex 2.5 4 3
  endloop
 endfacet
 facet normal -0.57735026918962584 -0.57735026918962584 -0.57735026918962584
  outer loop
   vertex 3 3 3.5
   vertex 2.5 4 3
   vertex 3 3.5 3
  endloop
 endfacet
 facet normal -0.57735026918962584 -0.57735026918962584 -0.57735026918962584
  outer loop
   vertex 3.5 3 3
   vertex 3 3 3.5
   vertex 3 3.5 3
  endloop
 endfacet
 facet normal 0.57735026918962584 -0.57735026918962584 -0.57735026918962584
  outer loop
   vertex 4.5 3 3
   vertex 5 3.5 3
   vertex 5 3 3.5
  endloop
 endfacet
 facet normal 0.57735026918962584 -0.57735026918962584 -0.57735026918962584
  outer loop
   vertex 5 3 3.5
   vertex 5 3.5 3
   vertex 5.5 4 3
  endloop
 endfacet
 facet normal 0.57735026918962584 -0.57735026918962584 -0.57735026918962584
  outer loop
   vertex 5 3 3.5
   vertex 5.5 4 3
   vertex 5.5 3 4
  endloop
 endfacet
 facet normal 1 0 -0
  outer loop
   vertex 5.5 3 4
   vertex 5.5 4 3
   vertex 5.5 4 4
  endloop
 endfacet
 facet normal -0.57735026918962584 -0.57735026918962584 -0.57735026918962584
  outer loop
   vertex 2 4.5 3
   vertex 2 4 3.5
   vertex 1.5 4 4
  endloop
 endfacet
 facet normal -0.57735026918962584 -0.57735026918962584 -0.57735026918962584
  outer loop
   vertex 2 4.5 3
   vertex 1.5 4 4
   vertex 1.5 5 3
  endloop
 endfacet
 facet normal -1 0 0
  outer loop
   vertex 1.5 5 3
   vertex 1.5 4 4
   vertex 1.5 5 4
  endloop
 endfacet
 facet normal -0.57735026918962584 -0.57735026918962584 -0.57735026918962584
  outer loop
   vertex 2.5 4 3
   vertex 2 4 3.5
   vertex 2 4.5 3
  endloop
 endfacet
 facet normal 1 0 0
  outer loop
   vertex 5.5 4 3
   vertex 5.5 5 3
   vertex 5.5 4 4
  endloop
 endfacet
 facet normal 1 0 -0
  outer loop
   vertex 5.5 4 4
   vertex 5.5 5 3
   vertex 5.5 5 4
  endloop
 endfacet
 facet normal -0.57735026918962584 -0.57735026918962584 -0.57735026918962584
  outer loop
   vertex 1 6 3.5
   vertex 1 5.5 4
   vertex 0.5 6 4
  endloop
 endfacet
 facet normal -0.57735026918962584 -0.57735026918962584 -0.57735026918962584
  outer loop
   vertex 1 6 3.5
   vertex 1.5 5 4
   vertex 1 5.5 4
  endloop
 endfacet
 facet normal -0.57735026918962584 -0.57735026918962584 -0.57735026918962584
  outer loop
   vertex 1 6 3.5
   vertex 1.5 6 3
   vertex 1.5 5 4
  endloop
 endfacet
 facet normal -1 0 0
  outer loop
   vertex 1.5 6 3
   vertex 1.5 5 3
   vertex 1.5 5 4
  endloop
 endfacet
 facet normal 1 0 0
  outer loop
   vertex 5.5 5 3
   vertex 5.5 6 3
   vertex 5.5 5 4
  endloop
 endfacet
 facet normal 1 0 -0
  outer loop
   vertex 5.5 5 4
   vertex 5.5 6 3
   vertex 5.5 6 4
  endloop
 endfacet
 facet normal -0.70710678118654746 0 -0.70710678118654746
  outer loop
   vertex 1 7 3.5
   vertex 1 6 3.5
   vertex 0.5 6 4
  endloop
 endfacet
 facet normal -0.70710678118654746 0 -0.70710678118654746
  outer loop
   vertex 0.5 7 4
   vertex 1 7 3.5
   vertex 0.5 6 4
  endloop
 endfacet
 facet normal -0.70710678118654746 0 -0.70710678118654746
  outer loop
   vertex 1.5 6 3
   vertex 1 7 3.5
   vertex 1.5 7 3
  endloop
 endfacet
 facet normal -0.70710678118654746 -0 -0.70710678118654746
  outer loop
   vertex 1 6 3.5
   vertex 1 7 3.5
   vertex 1.5 6 3
  endloop
 endfacet
 facet normal 0.70710678118654746 0.70710678118654746 0
  outer loop
   vertex 5 6.5 3
   vertex 4.5 7 4
   vertex 5 6.5 4
  endloop
 endfacet
 facet normal 0.70710678118654746 0.70710678118654746 0
  outer loop
   vertex 4.5 7 3
   vertex 4.5 7 4
   vertex 5 6.5 3
  endloop
 endfacet
 facet normal 0.70710678118654746 0.70710678118654746 -0
  outer loop
   vertex 5.5 6 4
   vertex 5.5 6 3
   vertex 5 6.5 3
  endloop
 endfacet
 facet normal 0.70710678118654746 0.70710678118654746 0
  outer loop
   vertex 5 6.5 4
   vertex 5.5 6 4
   vertex 5 6.5 3
  endloop
 endfacet
 facet normal -0.57735026918962584 0.57735026918962584 -0.57735026918962584
  outer loop
   vertex 1 7 3.5
   vertex 0.5 7 4
   vertex 1 7.5 4
  endloop
 endfacet
 facet normal -0.57735026918962584 0.57735026918962584 -0.57735026918962584
  outer loop
   vertex 2 8 3.5
   vertex 1 7.5 4
   vertex 1.5 8 4
  endloop
 endfacet
 facet normal -0.57735026918962584 0.57735026918962584 -0.57735026918962584
  outer loop
   vertex 2 7.5 3
   vertex 1 7.5 4
   vertex 2 8 3.5
  endloop
 endfacet
 facet normal -0.57735026918962584 0.57735026918962584 -0.57735026918962584
  outer loop
   vertex 2 7.5 3
   vertex 1 7 3.5
   vertex 1 7.5 4
  endloop
 endfacet
 facet normal -0.57735026918962584 0.57735026918962584 -0.57735026918962584
  outer loop
   vertex 2 7.5 3
   vertex 1.5 7 3
   vertex 1 7 3.5
  endloop
 endfacet
 facet normal 0.57735026918962584 0.57735026918962584 -0.57735026918962584
  outer loop
   vertex 2.5 8 4
   vertex 2 7.5 3
   vertex 2 8 3.5
  endloop
 endfacet
 facet normal 0.57735026918962584 0.57735026918962584 -0.57735026918962584
  outer loop
   vertex 2.5 8 4
   vertex 3 7.5 4
   vertex 2 7.5 3
  endloop
 endfacet
 facet normal 0 1 -0
  outer loop
   vertex 3 7.5 4
   vertex 3 7.5 3
   vertex 2 7.5 3
  endloop
 endfacet
 facet normal 0 1 0
  outer loop
   vertex 4 7.5 3
   vertex 3 7.5 3
   vertex 4 7.5 4
  endloop
 endfacet
 facet normal -0 1 0
  outer loop
   vertex 3 7.5 3
   vertex 3 7.5 4
   vertex 4 7.5 4
  endloop
 endfacet
 facet normal 0.70710678118654746 0.70710678118654746 -0
  outer loop
   vertex 4.5 7 4
   vertex 4.5 7 3
   vertex 4 7.5 3
  endloop
 endfacet
 facet normal 0.70710678118654746 0.70710678118654746 0
  outer loop
   vertex 4 7.5 4
   vertex 4.5 7 4
   vertex 4 7.5 3
  endloop
 endfacet
 facet normal -0.57735026918962584 0.57735026918962584 -0.57735026918962584
  outer loop
   vertex 2 8 3.5
   vertex 1.5 8 4
   vertex 2 8.5 4
  endloop
 endfacet
 facet normal 0.57735026918962584 0.57735026918962584 -0.57735026918962584
  outer loop
   vertex 2.5 8 4
   vertex 2 8 3.5
   vertex 2 8.5 4
  endloop
 endfacet
 facet normal -0.70710678118654746 -0.70710678118654746 -0
  outer loop
   vertex 5 0.5 4
   vertex 5 0.5 5
   vertex 4.5 1 5
  endloop
 endfacet
 facet normal -0.70710678118654746 -0.70710678118654746 0
  outer loop
   vertex 4.5 1 4
   vertex 5 0.5 4
   vertex 4.5 1 5
  endloop
 endfacet
 facet normal 0.57735026918962584 -0.57735026918962584 0.57735026918962584
  outer loop
   vertex 6 1 4.5
   vertex 5.5 1 5
   vertex 5 0.5 5
  endloop
 endfacet
 facet normal 0.57735026918962584 -0.57735026918962584 0.57735026918962584
  outer loop
   vertex 6 1 4.5
   vertex 5 0.5 5
   vertex 6 0.5 4
  endloop
 endfacet
 facet normal 0 -1 0
  outer loop
   vertex 6 0.5 4
   vertex 5 0.5 5
   vertex 5 0.5 4
  endloop
 endfacet
 facet normal 0.57735026918962584 -0.57735026918962584 0.57735026918962584
  outer loop
   vertex 6 0.5 4
   vertex 6.5 1 4
   vertex 6 1 4.5
  endloop
 endfacet
 facet normal -0.70710678118654746 -0.70710678118654746 -0
  outer loop
   vertex 4 1.5 4
   vertex 4 1.5 5
   vertex 3.5 2 5
  endloop
 endfacet
 facet normal -0.70710678118654746 -0.70710678118654746 0
  outer loop
   vertex 3.5 2 4
   vertex 4 1.5 4
   vertex 3.5 2 5
  endloop
 endfacet
 facet normal -0.70710678118654746 -0.70710678118654746 0
  outer loop
   vertex 4.5 1 5
   vertex 4 1.5 4
   vertex 4.5 1 4
  endloop
 endfacet
 facet normal -0.70710678118654746 -0.70710678118654746 0
  outer loop
   vertex 4 1.5 5
   vertex 4 1.5 4
   vertex 4.5 1 5
  endloop
 endfacet
 facet normal 0.57735026918962584 -0.57735026918962584 0.57735026918962584
  outer loop
   vertex 6 1 4.5
   vertex 6 1.5 5
   vertex 5.5 1 5
  endloop
 endfacet
 facet normal 0.57735026918962584 -0.57735026918962584 0.57735026918962584
  outer loop
   vertex 6 1.5 5
   vertex 6 1 4.5
   vertex 6.5 1 4
  endloop
 endfacet
 facet normal 0.57735026918962584 -0.57735026918962584 0.57735026918962584
  outer loop
   vertex 6 1.5 5
   vertex 6.5 1 4
   vertex 6.5 2 5
  endloop
 endfacet
 facet normal 1 0 0
  outer loop
   vertex 6.5 2 5
   vertex 6.5 1 4
   vertex 6.5 2 4
  endloop
 endfacet
 facet normal -0.70710678118654746 -0.70710678118654746 -0
  outer loop
   vertex 3 2.5 4
   vertex 3 2.5 5
   vertex 2.5 3 5
  endloop
 endfacet
 facet normal -0.70710678118654746 -0.70710678118654746 0
  outer loop
   vertex 2.5 3 4
   vertex 3 2.5 4
   vertex 2.5 3 5
  endloop
 endfacet
 facet normal -0.70710678118654746 -0.70710678118654746 0
  outer loop
   vertex 3.5 2 5
   vertex 3 2.5 4
   vertex 3.5 2 4
  endloop
 endfacet
 facet normal -0.70710678118654746 -0.70710678118654746 0
  outer loop
   vertex 3 2.5 5
   vertex 3 2.5 4
   vertex 3.5 2 5
  endloop
 endfacet
 facet normal 0.57735026918962584 0.57735026918962584 -0.57735026918962584
  outer loop
   vertex 6 2.5 4
   vertex 5.5 3 4
   vertex 6 3 4.5
  endloop
 endfacet
 facet normal 0.57735026918962584 0.57735026918962584 -0.57735026918962584
  outer loop
   vertex 6 2.5 4
   vertex 6 3 4.5
   vertex 6.5 3 5
  endloop
 endfacet
 facet normal 0.57735026918962584 0.57735026918962584 -0.57735026918962584
  outer loop
   vertex 6 2.5 4
   vertex 6.5 3 5
   vertex 6.5 2 4
  endloop
 endfacet
 facet normal 1 0 0
  outer loop
   vertex 6.5 2 4
   vertex 6.5 3 5
   vertex 6.5 2 5
  endloop
 endfacet
 facet normal -0.70710678118654746 -0.70710678118654746 -0
  outer loop
   vertex 2 3.5 4
   vertex 2 3.5 5
   vertex 1.5 4 5
  endloop
 endfacet
 facet normal -0.70710678118654746 -0.70710678118654746 0
  outer loop
   vertex 1.5 4 4
   vertex 2 3.5 4
   vertex 1.5 4 5
  endloop
 endfacet
 facet normal -0.70710678118654746 -0.70710678118654746 0
  outer loop
   vertex 2.5 3 5
   vertex 2 3.5 4
   vertex 2.5 3 4
  endloop
 endfacet
 facet normal -0.70710678118654746 -0.70710678118654746 0
  outer loop
   vertex 2 3.5 5
   vertex 2 3.5 4
   vertex 2.5 3 5
  endloop
 endfacet
 facet normal 0.57735026918962584 0.57735026918962584 -0.57735026918962584
  outer loop
   vertex 6 3 4.5
   vertex 5.5 4 5
   vertex 6 3.5 5
  endloop
 endfacet
 facet normal 0.57735026918962584 0.57735026918962584 -0.57735026918962584
  outer loop
   vertex 6 3 4.5
   vertex 5.5 3 4
   vertex 5.5 4 5
  endloop
 endfacet
 facet normal 1 0 -0
  outer loop
   vertex 5.5 3 4
   vertex 5.5 4 4
   vertex 5.5 4 5
  endloop
 endfacet
 facet normal 0.57735026918962584 0.57735026918962584 -0.57735026918962584
  outer loop
   vertex 6.5 3 5
   vertex 6 3 4.5
   vertex 6 3.5 5
  endloop
 endfacet
 facet normal -1 0 0
  outer loop
   vertex 1.5 4 4
   vertex 1.5 4 5
   vertex 1.5 5 4
  endloop
 endfacet
 facet normal -1 -0 -0
  outer loop
   vertex 1.5 4 5
   vertex 1.5 5 5
   vertex 1.5 5 4
  endloop
 endfacet
 facet normal 1 0 0
  outer loop
   vertex 5.5 4 4
   vertex 5.5 5 4
   vertex 5.5 4 5
  endloop
 endfacet
 facet normal 1 0 -0
  outer loop
   vertex 5.5 4 5
   vertex 5.5 5 4
   vertex 5.5 5 5
  endloop
 endfacet
 facet normal -0.57735026918962584 -0.57735026918962584 0.57735026918962584
  outer loop
   vertex 1 5.5 4
   vertex 1 6 4.5
   vertex 0.5 6 4
  endloop
 endfacet
 facet normal -0.57735026918962584 -0.57735026918962584 0.57735026918962584
  outer loop
   vertex 1 5.5 4
   vertex 1.5 6 5
   vertex 1 6 4.5
  endloop
 endfacet
 facet normal -0.57735026918962584 -0.57735026918962584 0.57735026918962584
  outer loop
   vertex 1 5.5 4
   vertex 1.5 5 4
   vertex 1.5 6 5
  endloop
 endfacet
 facet normal -1 0 0
  outer loop
   vertex 1.5 5 4
   vertex 1.5 5 5
   vertex 1.5 6 5
  endloop
 endfacet
 facet normal 0.57735026918962584 0.57735026918962584 0.57735026918962584
  outer loop
   vertex 5 6 4.5
   vertex 4.5 6 5
   vertex 5 5.5 5
  endloop
 endfacet
 facet normal 0.57735026918962584 0.57735026918962584 0.57735026918962584
  outer loop
   vertex 5 6 4.5
   vertex 5 5.5 5
   vertex 5.5 5 5
  endloop
 endfacet
 facet normal 0.57735026918962584 0.57735026918962584 0.57735026918962584
  outer loop
   vertex 5 6 4.5
   vertex 5.5 5 5
   vertex 5.5 6 4
  endloop
 endfacet
 facet normal 1 0 0
  outer loop
   vertex 5.5 6 4
   vertex 5.5 5 5
   vertex 5.5 5 4
  endloop
 endfacet
 facet normal -0.70710678118654746 0 0.70710678118654746
  outer loop
   vertex 1 6 4.5
   vertex 1 7 4.5
   vertex 0.5 7 4
  endloop
 endfacet
 facet normal -0.70710678118654746 0 0.70710678118654746
  outer loop
   vertex 0.5 6 4
   vertex 1 6 4.5
   vertex 0.5 7 4
  endloop
 endfacet
 facet normal -0.70710678118654746 0 0.70710678118654746
  outer loop
   vertex 1.5 7 5
   vertex 1 6 4.5
   vertex 1.5 6 5
  endloop
 endfacet
 facet normal -0.70710678118654746 0 0.70710678118654746
  outer loop
   vertex 1 7 4.5
   vertex 1 6 4.5
   vertex 1.5 7 5
  endloop
 endfacet
 facet normal 0.57735026918962584 0.57735026918962584 0.57735026918962584
  outer loop
   vertex 4 7 4.5
   vertex 3.5 7 5
   vertex 4 6.5 5
  endloop
 endfacet
 facet normal 0.57735026918962584 0.57735026918962584 0.57735026918962584
  outer loop
   vertex 4.5 6 5
   vertex 4 7 4.5
   vertex 4 6.5 5
  endloop
 endfacet
 facet normal 0.57735026918962584 0.57735026918962584 0.57735026918962584
  outer loop
   vertex 5 6 4.5
   vertex 4 7 4.5
   vertex 4.5 6 5
  endloop
 endfacet
 facet normal 0.57735026918962584 0.57735026918962584 0.57735026918962584
  outer loop
   vertex 5 6 4.5
   vertex 4.5 7 4
   vertex 4 7 4.5
  endloop
 endfacet
 facet normal 0.57735026918962584 0.57735026918962584 0.57735026918962584
  outer loop
   vertex 5 6 4.5
   vertex 5 6.5 4
   vertex 4.5 7 4
  endloop
 endfacet
 facet normal 0.57735026918962584 0.57735026918962584 0.57735026918962584
  outer loop
   vertex 5.5 6 4
   vertex 5 6.5 4
   vertex 5 6 4.5
  endloop
 endfacet
 facet normal -0.57735026918962584 0.57735026918962584 0.57735026918962584
  outer loop
   vertex 0.5 7 4
   vertex 1 7 4.5
   vertex 1 7.5 4
  endloop
 endfacet
 facet normal -0.57735026918962584 0.57735026918962584 0.57735026918962584
  outer loop
   vertex 1.5 8 4
   vertex 2 7.5 5
   vertex 2 8 4.5
  endloop
 endfacet
 facet normal -0.57735026918962584 0.57735026918962584 0.57735026918962584
  outer loop
   vertex 1 7.5 4
   vertex 2 7.5 5
   vertex 1.5 8 4
  endloop
 endfacet
 facet normal -0.57735026918962584 0.57735026918962584 0.57735026918962584
  outer loop
   vertex 1 7.5 4
   vertex 1.5 7 5
   vertex 2 7.5 5
  endloop
 endfacet
 facet normal -0.57735026918962584 0.57735026918962584 0.57735026918962584
  outer loop
   vertex 1 7.5 4
   vertex 1 7 4.5
   vertex 1.5 7 5
  endloop
 endfacet
 facet normal 0.57735026918962584 0.57735026918962584 0.57735026918962584
  outer loop
   vertex 2 8 4.5
   vertex 3 7.5 4
   vertex 2.5 8 4
  endloop
 endfacet
 facet normal 0.57735026918962584 0.57735026918962584 0.57735026918962584
  outer loop
   vertex 2 8 4.5
   vertex 2 7.5 5
   vertex 3 7.5 4
  endloop
 endfacet
 facet normal 0 1 0
  outer loop
   vertex 2 7.5 5
   vertex 3 7.5 5
   vertex 3 7.5 4
  endloop
 endfacet
 facet normal 0.57735026918962584 0.57735026918962584 0.57735026918962584
  outer loop
   vertex 3.5 7 5
   vertex 4 7 4.5
   vertex 4 7.5 4
  endloop
 endfacet
 facet normal 0.57735026918962584 0.57735026918962584 0.57735026918962584
  outer loop
   vertex 3.5 7 5
   vertex 4 7.5 4
   vertex 3 7.5 5
  endloop
 endfacet
 facet normal 0 1 0
  outer loop
   vertex 3 7.5 5
   vertex 4 7.5 4
   vertex 3 7.5 4
  endloop
 endfacet
 facet normal 0.57735026918962584 0.57735026918962584 0.57735026918962584
  outer loop
   vertex 4.5 7 4
   vertex 4 7.5 4
   vertex 4 7 4.5
  endloop
 endfacet
 facet normal -0.57735026918962584 0.57735026918962584 0.57735026918962584
  outer loop
   vertex 1.5 8 4
   vertex 2 8 4.5
   vertex 2 8.5 4
  endloop
 endfacet
 facet normal 0.57735026918962584 0.57735026918962584 0.57735026918962584
  outer loop
   vertex 2.5 8 4
   vertex 2 8.5 4
   vertex 2 8 4.5
  endloop
 endfacet
 facet normal -0.57735026918962584 -0.57735026918962584 0.57735026918962584
  outer loop
   vertex 5 0.5 5
   vertex 5 1 5.5
   vertex 4.5 1 5
  endloop
 endfacet
 facet normal 0.57735026918962584 -0.57735026918962584 0.57735026918962584
  outer loop
   vertex 5 0.5 5
   vertex 5.5 1 5
   vertex 5 1 5.5
  endloop
 endfacet
 facet normal -0.57735026918962584 -0.57735026918962584 0.57735026918962584
  outer loop
   vertex 4 1.5 5
   vertex 4 2 5.5
   vertex 3.5 2 5
  endloop
 endfacet
 facet normal -0.57735026918962584 -0.57735026918962584 0.57735026918962584
  outer loop
   vertex 4 1.5 5
   vertex 4.5 1 5
   vertex 5 1 5.5
  endloop
 endfacet
 facet normal -0.57735026918962584 -0.57735026918962584 0.57735026918962584
  outer loop
   vertex 4 1.5 5
   vertex 5 1 5.5
   vertex 4 2 5.5
  endloop
 endfacet
 facet normal 0 -0 1
  outer loop
   vertex 4 2 5.5
   vertex 5 1 5.5
   vertex 5 2 5.5
  endloop
 endfacet
 facet normal 0.57735026918962584 -0.57735026918962584 0.57735026918962584
  outer loop
   vertex 5.5 1 5
   vertex 6 1.5 5
   vertex 6 2 5.5
  endloop
 endfacet
 facet normal 0.57735026918962584 -0.57735026918962584 0.57735026918962584
  outer loop
   vertex 5.5 1 5
   vertex 6 2 5.5
   vertex 5 1 5.5
  endloop
 endfacet
 facet normal 0 0 1
  outer loop
   vertex 5 1 5.5
   vertex 6 2 5.5
   vertex 5 2 5.5
  endloop
 endfacet
 facet normal 0.57735026918962584 -0.57735026918962584 0.57735026918962584
  outer loop
   vertex 6 1.5 5
   vertex 6.5 2 5
   vertex 6 2 5.5
  endloop
 endfacet
 facet normal -0.57735026918962584 -0.57735026918962584 0.57735026918962584
  outer loop
   vertex 3 2.5 5
   vertex 3 3 5.5
   vertex 2.5 3 5
  endloop
 endfacet
 facet normal -0.57735026918962584 -0.57735026918962584 0.57735026918962584
  outer loop
   vertex 3 2.5 5
   vertex 3.5 2 5
   vertex 4 2 5.5
  endloop
 endfacet
 facet normal -0.57735026918962584 -0.57735026918962584 0.57735026918962584
  outer loop
   vertex 3 2.5 5
   vertex 4 2 5.5
   vertex 3 3 5.5
  endloop
 endfacet
 facet normal 0 -0 1
  outer loop
   vertex 3 3 5.5
   vertex 4 2 5.5
   vertex 4 3 5.5
  endloop
 endfacet
 facet normal 0 0 1
  outer loop
   vertex 5 2 5.5
   vertex 5 3 5.5
   vertex 4 2 5.5
  endloop
 endfacet
 facet normal -0 0 1
  outer loop
   vertex 5 3 5.5
   vertex 4 3 5.5
   vertex 4 2 5.5
  endloop
 endfacet
 facet normal 0 0 1
  outer loop
   vertex 6 2 5.5
   vertex 6 3 5.5
   vertex 5 2 5.5
  endloop
 endfacet
 facet normal -0 0 1
  outer loop
   vertex 6 3 5.5
   vertex 5 3 5.5
   vertex 5 2 5.5
  endloop
 endfacet
 facet normal 0.70710678118654746 0 0.70710678118654746
  outer loop
   vertex 6.5 2 5
   vertex 6.5 3 5
   vertex 6 3 5.5
  endloop
 endfacet
 facet normal 0.70710678118654746 0 0.70710678118654746
  outer loop
   vertex 6 2 5.5
   vertex 6.5 2 5
   vertex 6 3 5.5
  endloop
 endfacet
 facet normal -0.70710678118654746 -0.70710678118654746 -0
  outer loop
   vertex 2 3.5 5
   vertex 2 3.5 6
   vertex 1.5 4 6
  endloop
 endfacet
 facet normal -0.70710678118654746 -0.70710678118654746 0
  outer loop
   vertex 1.5 4 5
   vertex 2 3.5 5
   vertex 1.5 4 6
  endloop
 endfacet
 facet normal -0.70710678118654746 -0.70710678118654746 -0
  outer loop
   vertex 2.5 3 5
   vertex 2 3.5 6
   vertex 2 3.5 5
  endloop
 endfacet
 facet normal 0.57735026918962573 -0.57735026918962573 0.57735026918962573
  outer loop
   vertex 2.5 3 5
   vertex 3 4 5.5
   vertex 2 3.5 6
  endloop
 endfacet
 facet normal -0.70710678118654746 0 0.70710678118654746
  outer loop
   vertex 2.5 3 5
   vertex 3 3 5.5
   vertex 3 4 5.5
  endloop
 endfacet
 facet normal 0.57735026918962584 -0.57735026918962584 0.57735026918962584
  outer loop
   vertex 2.5 4 6
   vertex 2 3.5 6
   vertex 3 4 5.5
  endloop
 endfacet
 facet normal 0 0 1
  outer loop
   vertex 4 3 5.5
   vertex 4 4 5.5
   vertex 3 3 5.5
  endloop
 endfacet
 facet normal -0 0 1
  outer loop
   vertex 4 4 5.5
   vertex 3 4 5.5
   vertex 3 3 5.5
  endloop
 endfacet
 facet normal 0 0 1
  outer loop
   vertex 5 3 5.5
   vertex 5 4 5.5
   vertex 4 3 5.5
  endloop
 endfacet
 facet normal -0 0 1
  outer loop
   vertex 5 4 5.5
   vertex 4 4 5.5
   vertex 4 3 5.5
  endloop
 endfacet
 facet normal 0.57735026918962584 0.57735026918962584 0.57735026918962584
  outer loop
   vertex 6 3.5 5
   vertex 5.5 4 5
   vertex 5 4 5.5
  endloop
 endfacet
 facet normal 0.57735026918962584 0.57735026918962584 0.57735026918962584
  outer loop
   vertex 6 3.5 5
   vertex 5 4 5.5
   vertex 6 3 5.5
  endloop
 endfacet
 facet normal 0 0 1
  outer loop
   vertex 6 3 5.5
   vertex 5 4 5.5
   vertex 5 3 5.5
  endloop
 endfacet
 facet normal 0.57735026918962584 0.57735026918962584 0.57735026918962584
  outer loop
   vertex 6.5 3 5
   vertex 6 3.5 5
   vertex 6 3 5.5
  endloop
 endfacet
 facet normal -1 0 0
  outer loop
   vertex 1.5 4 5
   vertex 1.5 4 6
   vertex 1.5 5 5
  endloop
 endfacet
 facet normal -1 -0 -0
  outer loop
   vertex 1.5 4 6
   vertex 1.5 5 6
   vertex 1.5 5 5
  endloop
 endfacet
 facet normal 0.70710678118654746 0 0.70710678118654746
  outer loop
   vertex 3 5 5.5
   vertex 2.5 4 6
   vertex 3 4 5.5
  endloop
 endfacet
 facet normal 0.70710678118654746 -0 0.70710678118654746
  outer loop
   vertex 2.5 5 6
   vertex 2.5 4 6
   vertex 3 5 5.5
  endloop
 endfacet
 facet normal 0 0 1
  outer loop
   vertex 4 4 5.5
   vertex 4 5 5.5
   vertex 3 4 5.5
  endloop
 endfacet
 facet normal -0 0 1
  outer loop
   vertex 4 5 5.5
   vertex 3 5 5.5
   vertex 3 4 5.5
  endloop
 endfacet
 facet normal 0 0 1
  outer loop
   vertex 5 4 5.5
   vertex 5 5 5.5
   vertex 4 4 5.5
  endloop
 endfacet
 facet normal -0 0 1
  outer loop
   vertex 5 5 5.5
   vertex 4 5 5.5
   vertex 4 4 5.5
  endloop
 endfacet
 facet normal 0.70710678118654746 0 0.70710678118654746
  outer loop
   vertex 5.5 4 5
   vertex 5.5 5 5
   vertex 5 5 5.5
  endloop
 endfacet
 facet normal 0.70710678118654746 0 0.70710678118654746
  outer loop
   vertex 5 4 5.5
   vertex 5.5 4 5
   vertex 5 5 5.5
  endloop
 endfacet
 facet normal -0.57735026918962584 0.57735026918962584 0.57735026918962584
  outer loop
   vertex 2 5.5 6
   vertex 2 6 5.5
   vertex 1.5 6 5
  endloop
 endfacet
 facet normal -0.57735026918962584 0.57735026918962584 0.57735026918962584
  outer loop
   vertex 2 5.5 6
   vertex 1.5 6 5
   vertex 1.5 5 6
  endloop
 endfacet
 facet normal -1 0 0
  outer loop
   vertex 1.5 5 6
   vertex 1.5 6 5
   vertex 1.5 5 5
  endloop
 endfacet
 facet normal 0.57735026918962584 0.57735026918962584 0.57735026918962584
  outer loop
   vertex 2.5 5 6
   vertex 2 6 5.5
   vertex 2 5.5 6
  endloop
 endfacet
 facet normal 0.57735026918962584 0.57735026918962584 0.57735026918962584
  outer loop
   vertex 2.5 5 6
   vertex 3 5 5.5
   vertex 2 6 5.5
  endloop
 endfacet
 facet normal 0 0 1
  outer loop
   vertex 3 5 5.5
   vertex 3 6 5.5
   vertex 2 6 5.5
  endloop
 endfacet
 facet normal 0 0 1
  outer loop
   vertex 4 5 5.5
   vertex 4 6 5.5
   vertex 3 5 5.5
  endloop
 endfacet
 facet normal -0 0 1
  outer loop
   vertex 4 6 5.5
   vertex 3 6 5.5
   vertex 3 5 5.5
  endloop
 endfacet
 facet normal 0.57735026918962584 0.57735026918962584 0.57735026918962584
  outer loop
   vertex 5 5.5 5
   vertex 4.5 6 5
   vertex 4 6 5.5
  endloop
 endfacet
 facet normal 0.57735026918962584 0.57735026918962584 0.57735026918962584
  outer loop
   vertex 5 5.5 5
   vertex 4 6 5.5
   vertex 5 5 5.5
  endloop
 endfacet
 facet normal 0 0 1
  outer loop
   vertex 5 5 5.5
   vertex 4 6 5.5
   vertex 4 5 5.5
  endloop
 endfacet
 facet normal 0.57735026918962584 0.57735026918962584 0.57735026918962584
  outer loop
   vertex 5.5 5 5
   vertex 5 5.5 5
   vertex 5 5 5.5
  endloop
 endfacet
 facet normal -0.70710678118654746 0 0.70710678118654746
  outer loop
   vertex 2 6 5.5
   vertex 2 7 5.5
   vertex 1.5 7 5
  endloop
 endfacet
 facet normal -0.70710678118654746 0 0.70710678118654746
  outer loop
   vertex 1.5 6 5
   vertex 2 6 5.5
   vertex 1.5 7 5
  endloop
 endfacet
 facet normal 0 0 1
  outer loop
   vertex 3 6 5.5
   vertex 3 7 5.5
   vertex 2 6 5.5
  endloop
 endfacet
 facet normal -0 0 1
  outer loop
   vertex 3 7 5.5
   vertex 2 7 5.5
   vertex 2 6 5.5
  endloop
 endfacet
 facet normal 0.57735026918962584 0.57735026918962584 0.57735026918962584
  outer loop
   vertex 4 6.5 5
   vertex 3.5 7 5
   vertex 3 7 5.5
  endloop
 endfacet
 facet normal 0.57735026918962584 0.57735026918962584 0.57735026918962584
  outer loop
   vertex 4 6.5 5
   vertex 3 7 5.5
   vertex 4 6 5.5
  endloop
 endfacet
 facet normal 0 0 1
  outer loop
   vertex 4 6 5.5
   vertex 3 7 5.5
   vertex 3 6 5.5
  endloop
 endfacet
 facet normal 0.57735026918962584 0.57735026918962584 0.57735026918962584
  outer loop
   vertex 4.5 6 5
   vertex 4 6.5 5
   vertex 4 6 5.5
  endloop
 endfacet
 facet normal -0.57735026918962584 0.57735026918962584 0.57735026918962584
  outer loop
   vertex 1.5 7 5
   vertex 2 7 5.5
   vertex 2 7.5 5
  endloop
 endfacet
 facet normal -0 0.70710678118654746 0.70710678118654746
  outer loop
   vertex 3 7.5 5
   vertex 2 7.5 5
   vertex 2 7 5.5
  endloop
 endfacet
 facet normal 0 0.70710678118654746 0.70710678118654746
  outer loop
   vertex 3 7 5.5
   vertex 3 7.5 5
   vertex 2 7 5.5
  endloop
 endfacet
 facet normal 0.57735026918962584 0.57735026918962584 0.57735026918962584
  outer loop
   vertex 3.5 7 5
   vertex 3 7.5 5
   vertex 3 7 5.5
  endloop
 endfacet
 facet normal -0.57735026918962584 -0.57735026918962584 0.57735026918962584
  outer loop
   vertex 2 3.5 6
   vertex 2 4 6.5
   vertex 1.5 4 6
  endloop
 endfacet
 facet normal 0.57735026918962584 -0.57735026918962584 0.57735026918962584
  outer loop
   vertex 2 3.5 6
   vertex 2.5 4 6
   vertex 2 4 6.5
  endloop
 endfacet
 facet normal -0.70710678118654746 0 0.70710678118654746
  outer loop
   vertex 2 4 6.5
   vertex 2 5 6.5
   vertex 1.5 5 6
  endloop
 endfacet
 facet normal -0.70710678118654746 0 0.70710678118654746
  outer loop
   vertex 1.5 4 6
   vertex 2 4 6.5
   vertex 1.5 5 6
  endloop
 endfacet
 facet normal 0.70710678118654746 0 0.70710678118654746
  outer loop
   vertex 2.5 4 6
   vertex 2.5 5 6
   vertex 2 5 6.5
  endloop
 endfacet
 facet normal 0.70710678118654746 0 0.70710678118654746
  outer loop
   vertex 2 4 6.5
   vertex 2.5 4 6
   vertex 2 5 6.5
  endloop
 endfacet
 facet normal -0.57735026918962584 0.57735026918962584 0.57735026918962584
  outer loop
   vertex 1.5 5 6
   vertex 2 5 6.5
   vertex 2 5.5 6
  endloop
 endfacet
 facet normal 0.57735026918962584 0.57735026918962584 0.57735026918962584
  outer loop
   vertex 2.5 5 6
   vertex 2 5.5 6
   vertex 2 5 6.5
  endloop
 endfacet
endsolid
