solid Visualization Toolkit generated SLA File
 facet normal -0.57735026918962584 -0.57735026918962584 -0.57735026918962584
  outer loop
   vertex 5 3 0.5
   vertex 5 2.5 1
   vertex 4.5 3 1
  endloop
 endfacet
 facet normal 0.57735026918962584 -0.57735026918962584 -0.57735026918962584
  outer loop
   vertex 5 2.5 1
   vertex 5 3 0.5
   vertex 5.5 3 1
  endloop
 endfacet
 facet normal -0.57735026918962584 -0.57735026918962584 -0.57735026918962584
  outer loop
   vertex 4 4 0.5
   vertex 4 3.5 1
   vertex 3.5 4 1
  endloop
 endfacet
 facet normal -0.57735026918962584 -0.57735026918962584 -0.57735026918962584
  outer loop
   vertex 4.5 3 1
   vertex 4 3.5 1
   vertex 4 4 0.5
  endloop
 endfacet
 facet normal -0.57735026918962584 -0.57735026918962584 -0.57735026918962584
  outer loop
   vertex 4.5 3 1
   vertex 4 4 0.5
   vertex 5 3 0.5
  endloop
 endfacet
 facet normal 0 0 -1
  outer loop
   vertex 5 3 0.5
   vertex 4 4 0.5
   vertex 5 4 0.5
  endloop
 endfacet
 facet normal 0.57735026918962584 -0.57735026918962584 -0.57735026918962584
  outer loop
   vertex 6 3.5 1
   vertex 5.5 3 1
   vertex 5 3 0.5
  endloop
 endfacet
 facet normal 0.57735026918962584 -0.57735026918962584 -0.57735026918962584
  outer loop
   vertex 6 3.5 1
   vertex 5 3 0.5
   vertex 6 4 0.5
  endloop
 endfacet
 facet normal 0 0 -1
  outer loop
   vertex 6 4 0.5
   vertex 5 3 0.5
   vertex 5 4 0.5
  endloop
 endfacet
 facet normal 0.57735026918962584 -0.57735026918962584 -0.57735026918962584
  outer loop
   vertex 6 3.5 1
   vertex 6 4 0.5
   vertex 6.5 4 1
  endloop
 endfacet
 facet normal -0.57735026918962584 0.57735026918962584 -0.57735026918962584
  outer loop
   vertex 4 4 0.5
   vertex 3.5 4 1
   vertex 4 4.5 1
  endloop
 endfacet
 facet normal 0 0.70710678118654746 -0.70710678118654746
  outer loop
   vertex 5 4 0.5
   vertex 4 4 0.5
   vertex 4 4.5 1
  endloop
 endfacet
 facet normal 0 0.70710678118654746 -0.70710678118654746
  outer loop
   vertex 5 4.5 1
   vertex 5 4 0.5
   vertex 4 4.5 1
  endloop
 endfacet
 facet normal 0 0.70710678118654746 -0.70710678118654746
  outer loop
   vertex 6 4 0.5
   vertex 5 4 0.5
   vertex 5 4.5 1
  endloop
 endfacet
 facet normal 0 0.70710678118654746 -0.70710678118654746
  outer loop
   vertex 6 4.5 1
   vertex 6 4 0.5
   vertex 5 4.5 1
  endloop
 endfacet
 facet normal 0.57735026918962584 0.57735026918962584 -0.57735026918962584
  outer loop
   vertex 6.5 4 1
   vertex 6 4 0.5
   vertex 6 4.5 1
  endloop
 endfacet
 facet normal -0.57735026918962584 -0.57735026918962584 -0.57735026918962584
  outer loop
   vertex 4 2 1.5
   vertex 4 1.5 2
   vertex 3.5 2 2
  endloop
 endfacet
 facet normal -0 -0.70710678118654746 -0.70710678118654746
  outer loop
   vertex 4 2 1.5
   vertex 5 2 1.5
   vertex 5 1.5 2
  endloop
 endfacet
 facet normal 0 -0.70710678118654746 -0.70710678118654746
  outer loop
   vertex 4 1.5 2
   vertex 4 2 1.5
   vertex 5 1.5 2
  endloop
 endfacet
 facet normal -0 -0.70710678118654746 -0.70710678118654746
  outer loop
   vertex 5 2 1.5
   vertex 6 2 1.5
   vertex 6 1.5 2
  endloop
 endfacet
 facet normal 0 -0.70710678118654746 -0.70710678118654746
  outer loop
   vertex 5 1.5 2
   vertex 5 2 1.5
   vertex 6 1.5 2
  endloop
 endfacet
 facet normal 0.57735026918962584 -0.57735026918962584 -0.57735026918962584
  outer loop
   vertex 6 1.5 2
   vertex 6 2 1.5
   vertex 6.5 2 2
  endloop
 endfacet
 facet normal -0.70710678118654746 0 -0.70710678118654746
  outer loop
   vertex 4 3 1.5
   vertex 4 2 1.5
   vertex 3.5 2 2
  endloop
 endfacet
 facet normal -0.70710678118654746 0 -0.70710678118654746
  outer loop
   vertex 3.5 3 2
   vertex 4 3 1.5
   vertex 3.5 2 2
  endloop
 endfacet
 facet normal -0.57735026918962584 -0.57735026918962584 -0.57735026918962584
  outer loop
   vertex 5 2.5 1
   vertex 4 3 1.5
   vertex 4.5 3 1
  endloop
 endfacet
 facet normal -0.57735026918962584 -0.57735026918962584 -0.57735026918962584
  outer loop
   vertex 5 2.5 1
   vertex 5 2 1.5
   vertex 4 3 1.5
  endloop
 endfacet
 facet normal 0 0 -1
  outer loop
   vertex 5 2 1.5
   vertex 4 2 1.5
   vertex 4 3 1.5
  endloop
 endfacet
 facet normal 0.57735026918962584 -0.57735026918962584 -0.57735026918962584
  outer loop
   vertex 5.5 3 1
   vertex 5 2 1.5
   vertex 5 2.5 1
  endloop
 endfacet
 facet normal 0.57735026918962584 -0.57735026918962584 -0.57735026918962584
  outer loop
   vertex 5.5 3 1
   vertex 6 3 1.5
   vertex 5 2 1.5
  endloop
 endfacet
 facet normal 0 0 -1
  outer loop
   vertex 6 3 1.5
   vertex 6 2 1.5
   vertex 5 2 1.5
  endloop
 endfacet
 facet normal 0.57735026918962584 -0.57735026918962584 -0.57735026918962584
  outer loop
   vertex 7 2.5 2
   vertex 6.5 2 2
   vertex 6 2 1.5
  endloop
 endfacet
 facet normal 0.57735026918962584 -0.57735026918962584 -0.57735026918962584
  outer loop
   vertex 7 2.5 2
   vertex 6 2 1.5
   vertex 7 3 1.5
  endloop
 endfacet
 facet normal 0 0 -1
  outer loop
   vertex 7 3 1.5
   vertex 6 2 1.5
   vertex 6 3 1.5
  endloop
 endfacet
 facet normal 0.57735026918962584 -0.57735026918962584 -0.57735026918962584
  outer loop
   vertex 7 2.5 2
   vertex 7 3 1.5
   vertex 7.5 3 2
  endloop
 endfacet
 facet normal -0.57735026918962584 -0.57735026918962584 -0.57735026918962584
  outer loop
   vertex 4 3.5 1
   vertex 4 3 1.5
   vertex 3.5 3 2
  endloop
 endfacet
 facet normal -0.57735026918962584 -0.57735026918962584 -0.57735026918962584
  outer loop
   vertex 4 3.5 1
   vertex 3.5 3 2
   vertex 3.5 4 1
  endloop
 endfacet
 facet normal -1 0 0
  outer loop
   vertex 3.5 4 1
   vertex 3.5 3 2
   vertex 3.5 4 2
  endloop
 endfacet
 facet normal -0.57735026918962584 -0.57735026918962584 -0.57735026918962584
  outer loop
   vertex 4.5 3 1
   vertex 4 3 1.5
   vertex 4 3.5 1
  endloop
 endfacet
 facet normal 0.57735026918962584 -0.57735026918962584 -0.57735026918962584
  outer loop
   vertex 5.5 3 1
   vertex 6 3.5 1
   vertex 6 3 1.5
  endloop
 endfacet
 facet normal 0 0.70710678118654746 -0.70710678118654746
  outer loop
   vertex 7 3.5 2
   vertex 7 3 1.5
   vertex 6 3 1.5
  endloop
 endfacet
 facet normal 0.57735026918962573 -0.57735026918962573 -0.57735026918962573
  outer loop
   vertex 7 3.5 2
   vertex 6 3 1.5
   vertex 6.5 4 1
  endloop
 endfacet
 facet normal 0.70710678118654746 0.70710678118654746 -0
  outer loop
   vertex 7 3.5 2
   vertex 6.5 4 1
   vertex 6.5 4 2
  endloop
 endfacet
 facet normal 0.57735026918962584 -0.57735026918962584 -0.57735026918962584
  outer loop
   vertex 6 3.5 1
   vertex 6.5 4 1
   vertex 6 3 1.5
  endloop
 endfacet
 facet normal 0.57735026918962584 0.57735026918962584 -0.57735026918962584
  outer loop
   vertex 7.5 3 2
   vertex 7 3 1.5
   vertex 7 3.5 2
  endloop
 endfacet
 facet normal -0.70710678118654746 0.70710678118654746 0
  outer loop
   vertex 3.5 4 1
   vertex 3.5 4 2
   vertex 4 4.5 2
  endloop
 endfacet
 facet normal -0.70710678118654746 0.70710678118654746 0
  outer loop
   vertex 4 4.5 1
   vertex 3.5 4 1
   vertex 4 4.5 2
  endloop
 endfacet
 facet normal -0.57735026918962584 0.57735026918962584 -0.57735026918962584
  outer loop
   vertex 5 5 1.5
   vertex 4 4.5 2
   vertex 4.5 5 2
  endloop
 endfacet
 facet normal -0.57735026918962584 0.57735026918962584 -0.57735026918962584
  outer loop
   vertex 5 5 1.5
   vertex 5 4.5 1
   vertex 4 4.5 2
  endloop
 endfacet
 facet normal 0 1 0
  outer loop
   vertex 5 4.5 1
   vertex 4 4.5 1
   vertex 4 4.5 2
  endloop
 endfacet
 facet normal 0.57735026918962584 0.57735026918962584 -0.57735026918962584
  outer loop
   vertex 5.5 5 2
   vertex 5 4.5 1
   vertex 5 5 1.5
  endloop
 endfacet
 facet normal 0.57735026918962584 0.57735026918962584 -0.57735026918962584
  outer loop
   vertex 5.5 5 2
   vertex 6 4.5 2
   vertex 5 4.5 1
  endloop
 endfacet
 facet normal 0 1 -0
  outer loop
   vertex 6 4.5 2
   vertex 6 4.5 1
   vertex 5 4.5 1
  endloop
 endfacet
 facet normal 0.70710678118654746 0.70710678118654746 -0
  outer loop
   vertex 6.5 4 2
   vertex 6.5 4 1
   vertex 6 4.5 1
  endloop
 endfacet
 facet normal 0.70710678118654746 0.70710678118654746 0
  outer loop
   vertex 6 4.5 2
   vertex 6.5 4 2
   vertex 6 4.5 1
  endloop
 endfacet
 facet normal -0.57735026918962584 0.57735026918962584 -0.57735026918962584
  outer loop
   vertex 5 5 1.5
   vertex 4.5 5 2
   vertex 5 5.5 2
  endloop
 endfacet
 facet normal 0.57735026918962584 0.57735026918962584 -0.57735026918962584
  outer loop
   vertex 5.5 5 2
   vertex 5 5 1.5
   vertex 5 5.5 2
  endloop
 endfacet
 facet normal -0.70710678118654746 -0.70710678118654746 -0
  outer loop
   vertex 4 1.5 2
   vertex 4 1.5 3
   vertex 3.5 2 3
  endloop
 endfacet
 facet normal -0.70710678118654746 -0.70710678118654746 0
  outer loop
   vertex 3.5 2 2
   vertex 4 1.5 2
   vertex 3.5 2 3
  endloop
 endfacet
 facet normal 0 -1 -0
  outer loop
   vertex 5 1.5 2
   vertex 5 1.5 3
   vertex 4 1.5 2
  endloop
 endfacet
 facet normal -0 -1 0
  outer loop
   vertex 4 1.5 2
   vertex 5 1.5 3
   vertex 4 1.5 3
  endloop
 endfacet
 facet normal 0 -1 -0
  outer loop
   vertex 6 1.5 2
   vertex 6 1.5 3
   vertex 5 1.5 2
  endloop
 endfacet
 facet normal -0 -1 0
  outer loop
   vertex 5 1.5 2
   vertex 6 1.5 3
   vertex 5 1.5 3
  endloop
 endfacet
 facet normal 0.70710678118654746 -0.70710678118654746 0
  outer loop
   vertex 6 1.5 3
   vertex 6 1.5 2
   vertex 6.5 2 2
  endloop
 endfacet
 facet normal 0.70710678118654746 -0.70710678118654746 0
  outer loop
   vertex 6.5 2 3
   vertex 6 1.5 3
   vertex 6.5 2 2
  endloop
 endfacet
 facet normal -1 0 0
  outer loop
   vertex 3.5 2 2
   vertex 3.5 2 3
   vertex 3.5 3 2
  endloop
 endfacet
 facet normal -1 -0 -0
  outer loop
   vertex 3.5 2 3
   vertex 3.5 3 3
   vertex 3.5 3 2
  endloop
 endfacet
 facet normal 0.70710678118654746 -0.70710678118654746 0
  outer loop
   vertex 6.5 2 2
   vertex 7 2.5 3
   vertex 6.5 2 3
  endloop
 endfacet
 facet normal 0.70710678118654746 -0.70710678118654746 0
  outer loop
   vertex 7 2.5 2
   vertex 7 2.5 3
   vertex 6.5 2 2
  endloop
 endfacet
 facet normal 0.70710678118654746 -0.70710678118654746 0
  outer loop
   vertex 7 2.5 3
   vertex 7 2.5 2
   vertex 7.5 3 2
  endloop
 endfacet
 facet normal 0.70710678118654746 -0.70710678118654746 0
  outer loop
   vertex 7.5 3 3
   vertex 7 2.5 3
   vertex 7.5 3 2
  endloop
 endfacet
 facet normal -0.57735026918962584 -0.57735026918962584 -0.57735026918962584
  outer loop
   vertex 3 4 2.5
   vertex 3 3.5 3
   vertex 2.5 4 3
  endloop
 endfacet
 facet normal -0.57735026918962584 -0.57735026918962584 -0.57735026918962584
  outer loop
   vertex 3 4 2.5
   vertex 3.5 3 3
   vertex 3 3.5 3
  endloop
 endfacet
 facet normal -0.57735026918962584 -0.57735026918962584 -0.57735026918962584
  outer loop
   vertex 3 4 2.5
   vertex 3.5 4 2
   vertex 3.5 3 3
  endloop
 endfacet
 facet normal -1 0 0
  outer loop
   vertex 3.5 4 2
   vertex 3.5 3 2
   vertex 3.5 3 3
  endloop
 endfacet
 facet normal 0.57735026918962584 0.57735026918962584 -0.57735026918962584
  outer loop
   vertex 7 3.5 2
   vertex 6.5 4 2
   vertex 7 4 2.5
  endloop
 endfacet
 facet normal 0.57735026918962584 0.57735026918962584 -0.57735026918962584
  outer loop
   vertex 7 3.5 2
   vertex 7 4 2.5
   vertex 7.5 4 3
  endloop
 endfacet
 facet normal 0.57735026918962584 0.57735026918962584 -0.57735026918962584
  outer loop
   vertex 7 3.5 2
   vertex 7.5 4 3
   vertex 7.5 3 2
  endloop
 endfacet
 facet normal 1 0 0
  outer loop
   vertex 7.5 3 2
   vertex 7.5 4 3
   vertex 7.5 3 3
  endloop
 endfacet
 facet normal -0.70710678118654746 0 -0.70710678118654746
  outer loop
   vertex 3 5 2.5
   vertex 3 4 2.5
   vertex 2.5 4 3
  endloop
 endfacet
 facet normal -0.70710678118654746 0 -0.70710678118654746
  outer loop
   vertex 2.5 5 3
   vertex 3 5 2.5
   vertex 2.5 4 3
  endloop
 endfacet
 facet normal -0.57735026918962584 0.57735026918962584 -0.57735026918962584
  outer loop
   vertex 3.5 4 2
   vertex 4 5 2.5
   vertex 4 4.5 2
  endloop
 endfacet
 facet normal -0.57735026918962584 0.57735026918962584 -0.57735026918962584
  outer loop
   vertex 3.5 4 2
   vertex 3 4 2.5
   vertex 4 5 2.5
  endloop
 endfacet
 facet normal 0 0 -1
  outer loop
   vertex 3 4 2.5
   vertex 3 5 2.5
   vertex 4 5 2.5
  endloop
 endfacet
 facet normal -0.57735026918962584 0.57735026918962584 -0.57735026918962584
  outer loop
   vertex 4 4.5 2
   vertex 4 5 2.5
   vertex 4.5 5 2
  endloop
 endfacet
 facet normal 0.57735026918962584 0.57735026918962584 -0.57735026918962584
  outer loop
   vertex 6 4.5 2
   vertex 5.5 5 2
   vertex 6 5 2.5
  endloop
 endfacet
 facet normal 0.57735026918962584 0.57735026918962584 -0.57735026918962584
  outer loop
   vertex 6 4.5 2
   vertex 6 5 2.5
   vertex 6.5 5 3
  endloop
 endfacet
 facet normal 0.57735026918962584 0.57735026918962584 -0.57735026918962584
  outer loop
   vertex 6.5 4 2
   vertex 6 4.5 2
   vertex 6.5 5 3
  endloop
 endfacet
 facet normal 0.57735026918962584 0.57735026918962584 -0.57735026918962584
  outer loop
   vertex 6.5 4 2
   vertex 6.5 5 3
   vertex 7 4.5 3
  endloop
 endfacet
 facet normal 0.57735026918962584 0.57735026918962584 -0.57735026918962584
  outer loop
   vertex 6.5 4 2
   vertex 7 4.5 3
   vertex 7 4 2.5
  endloop
 endfacet
 facet normal 0.57735026918962584 0.57735026918962584 -0.57735026918962584
  outer loop
   vertex 7.5 4 3
   vertex 7 4 2.5
   vertex 7 4.5 3
  endloop
 endfacet
 facet normal -0.57735026918962584 0.57735026918962584 -0.57735026918962584
  outer loop
   vertex 3 5 2.5
   vertex 2.5 5 3
   vertex 3 5.5 3
  endloop
 endfacet
 facet normal -0.57735026918962584 0.57735026918962584 -0.57735026918962584
  outer loop
   vertex 3 5.5 3
   vertex 3.5 6 3
   vertex 4 6 2.5
  endloop
 endfacet
 facet normal -0.57735026918962584 0.57735026918962584 -0.57735026918962584
  outer loop
   vertex 3 5.5 3
   vertex 4 6 2.5
   vertex 3 5 2.5
  endloop
 endfacet
 facet normal 0 -0 -1
  outer loop
   vertex 3 5 2.5
   vertex 4 6 2.5
   vertex 4 5 2.5
  endloop
 endfacet
 facet normal -0.57735026918962584 0.57735026918962584 -0.57735026918962584
  outer loop
   vertex 4.5 5 2
   vertex 5 6 2.5
   vertex 5 5.5 2
  endloop
 endfacet
 facet normal -0.57735026918962584 0.57735026918962584 -0.57735026918962584
  outer loop
   vertex 4.5 5 2
   vertex 4 5 2.5
   vertex 5 6 2.5
  endloop
 endfacet
 facet normal 0 0 -1
  outer loop
   vertex 4 5 2.5
   vertex 4 6 2.5
   vertex 5 6 2.5
  endloop
 endfacet
 facet normal 0.57735026918962584 0.57735026918962584 -0.57735026918962584
  outer loop
   vertex 5 5.5 2
   vertex 5 6 2.5
   vertex 5.5 6 3
  endloop
 endfacet
 facet normal 0.57735026918962584 0.57735026918962584 -0.57735026918962584
  outer loop
   vertex 5.5 5 2
   vertex 5 5.5 2
   vertex 5.5 6 3
  endloop
 endfacet
 facet normal 0.57735026918962584 0.57735026918962584 -0.57735026918962584
  outer loop
   vertex 5.5 5 2
   vertex 5.5 6 3
   vertex 6 5.5 3
  endloop
 endfacet
 facet normal 0.57735026918962584 0.57735026918962584 -0.57735026918962584
  outer loop
   vertex 5.5 5 2
   vertex 6 5.5 3
   vertex 6 5 2.5
  endloop
 endfacet
 facet normal 0.57735026918962584 0.57735026918962584 -0.57735026918962584
  outer loop
   vertex 6.5 5 3
   vertex 6 5 2.5
   vertex 6 5.5 3
  endloop
 endfacet
 facet normal -0.57735026918962584 0.57735026918962584 -0.57735026918962584
  outer loop
   vertex 4 6 2.5
   vertex 3.5 6 3
   vertex 4 6.5 3
  endloop
 endfacet
 facet normal 0 0.70710678118654746 -0.70710678118654746
  outer loop
   vertex 5 6 2.5
   vertex 4 6 2.5
   vertex 4 6.5 3
  endloop
 endfacet
 facet normal 0 0.70710678118654746 -0.70710678118654746
  outer loop
   vertex 5 6.5 3
   vertex 5 6 2.5
   vertex 4 6.5 3
  endloop
 endfacet
 facet normal 0.57735026918962584 0.57735026918962584 -0.57735026918962584
  outer loop
   vertex 5.5 6 3
   vertex 5 6 2.5
   vertex 5 6.5 3
  endloop
 endfacet
 facet normal -0.57735026918962584 -0.57735026918962584 -0.57735026918962584
  outer loop
   vertex 4 1 3.5
   vertex 4 0.5 4
   vertex 3.5 1 4
  endloop
 endfacet
 facet normal -0 -0.70710678118654746 -0.70710678118654746
  outer loop
   vertex 4 1 3.5
   vertex 5 1 3.5
   vertex 5 0.5 4
  endloop
 endfacet
 facet normal 0 -0.70710678118654746 -0.70710678118654746
  outer loop
   vertex 4 0.5 4
   vertex 4 1 3.5
   vertex 5 0.5 4
  endloop
 endfacet
 facet normal -0 -0.70710678118654746 -0.70710678118654746
  outer loop
   vertex 5 1 3.5
   vertex 6 1 3.5
   vertex 6 0.5 4
  endloop
 endfacet
 facet normal 0 -0.70710678118654746 -0.70710678118654746
  outer loop
   vertex 5 0.5 4
   vertex 5 1 3.5
   vertex 6 0.5 4
  endloop
 endfacet
 facet normal 0.57735026918962584 -0.57735026918962584 -0.57735026918962584
  outer loop
   vertex 6 0.5 4
   vertex 6 1 3.5
   vertex 6.5 1 4
  endloop
 endfacet
 facet normal -0.57735026918962584 -0.57735026918962584 -0.57735026918962584
  outer loop
   vertex 3 2 3.5
   vertex 3 1.5 4
   vertex 2.5 2 4
  endloop
 endfacet
 facet normal -0.57735026918962584 -0.57735026918962584 -0.57735026918962584
  outer loop
   vertex 3.5 1 4
   vertex 3 1.5 4
   vertex 3 2 3.5
  endloop
 endfacet
 facet normal -0.57735026918962584 -0.57735026918962584 -0.57735026918962584
  outer loop
   vertex 4 1 3.5
   vertex 3.5 1 4
   vertex 3 2 3.5
  endloop
 endfacet
 facet normal -0.57735026918962584 -0.57735026918962584 -0.57735026918962584
  outer loop
   vertex 4 1 3.5
   vertex 3 2 3.5
   vertex 3.5 2 3
  endloop
 endfacet
 facet normal -0.57735026918962584 -0.57735026918962584 -0.57735026918962584
  outer loop
   vertex 4 1 3.5
   vertex 3.5 2 3
   vertex 4 1.5 3
  endloop
 endfacet
 facet normal 0 -0.70710678118654746 -0.70710678118654746
  outer loop
   vertex 5 1.5 3
   vertex 4 1 3.5
   vertex 4 1.5 3
  endloop
 endfacet
 facet normal 0 -0.70710678118654746 -0.70710678118654746
  outer loop
   vertex 5 1 3.5
   vertex 4 1 3.5
   vertex 5 1.5 3
  endloop
 endfacet
 facet normal 0 -0.70710678118654746 -0.70710678118654746
  outer loop
   vertex 6 1.5 3
   vertex 5 1 3.5
   vertex 5 1.5 3
  endloop
 endfacet
 facet normal 0 -0.70710678118654746 -0.70710678118654746
  outer loop
   vertex 6 1 3.5
   vertex 5 1 3.5
   vertex 6 1.5 3
  endloop
 endfacet
 facet normal 0.57735026918962584 -0.57735026918962584 -0.57735026918962584
  outer loop
   vertex 6.5 2 3
   vertex 7 2 3.5
   vertex 7 1.5 4
  endloop
 endfacet
 facet normal 0.57735026918962584 -0.57735026918962584 -0.57735026918962584
  outer loop
   vertex 6 1.5 3
   vertex 6.5 2 3
   vertex 7 1.5 4
  endloop
 endfacet
 facet normal 0.57735026918962584 -0.57735026918962584 -0.57735026918962584
  outer loop
   vertex 6 1.5 3
   vertex 7 1.5 4
   vertex 6.5 1 4
  endloop
 endfacet
 facet normal 0.57735026918962584 -0.57735026918962584 -0.57735026918962584
  outer loop
   vertex 6 1.5 3
   vertex 6.5 1 4
   vertex 6 1 3.5
  endloop
 endfacet
 facet normal 0.57735026918962584 -0.57735026918962584 -0.57735026918962584
  outer loop
   vertex 7 1.5 4
   vertex 7 2 3.5
   vertex 7.5 2 4
  endloop
 endfacet
 facet normal -0.70710678118654746 0 -0.70710678118654746
  outer loop
   vertex 3 3 3.5
   vertex 3 2 3.5
   vertex 2.5 2 4
  endloop
 endfacet
 facet normal -0.70710678118654746 0 -0.70710678118654746
  outer loop
   vertex 2.5 3 4
   vertex 3 3 3.5
   vertex 2.5 2 4
  endloop
 endfacet
 facet normal -0.70710678118654746 0 -0.70710678118654746
  outer loop
   vertex 3.5 2 3
   vertex 3 3 3.5
   vertex 3.5 3 3
  endloop
 endfacet
 facet normal -0.70710678118654746 -0 -0.70710678118654746
  outer loop
   vertex 3 2 3.5
   vertex 3 3 3.5
   vertex 3.5 2 3
  endloop
 endfacet
 facet normal 0.57735026918962584 -0.57735026918962584 -0.57735026918962584
  outer loop
   vertex 6.5 2 3
   vertex 7 2.5 3
   vertex 7 2 3.5
  endloop
 endfacet
 facet normal 0.57735026918962584 -0.57735026918962584 -0.57735026918962584
  outer loop
   vertex 7 2 3.5
   vertex 7 2.5 3
   vertex 7.5 3 3
  endloop
 endfacet
 facet normal 0.57735026918962584 -0.57735026918962584 -0.57735026918962584
  outer loop
   vertex 7 2 3.5
   vertex 7.5 3 3
   vertex 7.5 2 4
  endloop
 endfacet
 facet normal 1 0 -0
  outer loop
   vertex 7.5 2 4
   vertex 7.5 3 3
   vertex 7.5 3 4
  endloop
 endfacet
 facet normal -0.57735026918962584 -0.57735026918962584 -0.57735026918962584
  outer loop
   vertex 3 3.5 3
   vertex 3 3 3.5
   vertex 2.5 3 4
  endloop
 endfacet
 facet normal -0.57735026918962584 -0.57735026918962584 -0.57735026918962584
  outer loop
   vertex 3 3.5 3
   vertex 2.5 3 4
   vertex 2.5 4 3
  endloop
 endfacet
 facet normal -1 0 0
  outer loop
   vertex 2.5 4 3
   vertex 2.5 3 4
   vertex 2.5 4 4
  endloop
 endfacet
 facet normal -0.57735026918962584 -0.57735026918962584 -0.57735026918962584
  outer loop
   vertex 3.5 3 3
   vertex 3 3 3.5
   vertex 3 3.5 3
  endloop
 endfacet
 facet normal 1 0 0
  outer loop
   vertex 7.5 3 3
   vertex 7.5 4 3
   vertex 7.5 3 4
  endloop
 endfacet
 facet normal 1 0 -0
  outer loop
   vertex 7.5 3 4
   vertex 7.5 4 3
   vertex 7.5 4 4
  endloop
 endfacet
 facet normal -0.57735026918962584 0.57735026918962584 0.57735026918962584
  outer loop
   vertex 3 4.5 4
   vertex 3 5 3.5
   vertex 2.5 5 3
  endloop
 endfacet
 facet normal -0.57735026918962584 0.57735026918962584 0.57735026918962584
  outer loop
   vertex 3 4.5 4
   vertex 2.5 5 3
   vertex 2.5 4 4
  endloop
 endfacet
 facet normal -1 0 0
  outer loop
   vertex 2.5 4 4
   vertex 2.5 5 3
   vertex 2.5 4 3
  endloop
 endfacet
 facet normal -0.57735026918962584 0.57735026918962584 0.57735026918962584
  outer loop
   vertex 3 4.5 4
   vertex 3.5 5 4
   vertex 3 5 3.5
  endloop
 endfacet
 facet normal 0.70710678118654746 0.70710678118654746 0
  outer loop
   vertex 7 4.5 3
   vertex 6.5 5 4
   vertex 7 4.5 4
  endloop
 endfacet
 facet normal 0.70710678118654746 0.70710678118654746 0
  outer loop
   vertex 6.5 5 3
   vertex 6.5 5 4
   vertex 7 4.5 3
  endloop
 endfacet
 facet normal 0.70710678118654746 0.70710678118654746 -0
  outer loop
   vertex 7.5 4 4
   vertex 7.5 4 3
   vertex 7 4.5 3
  endloop
 endfacet
 facet normal 0.70710678118654746 0.70710678118654746 0
  outer loop
   vertex 7 4.5 4
   vertex 7.5 4 4
   vertex 7 4.5 3
  endloop
 endfacet
 facet normal -0.57735026918962584 0.57735026918962584 0.57735026918962584
  outer loop
   vertex 2.5 5 3
   vertex 3 5 3.5
   vertex 3 5.5 3
  endloop
 endfacet
 facet normal -0.57735026918962584 0.57735026918962584 0.57735026918962584
  outer loop
   vertex 3.5 6 3
   vertex 4 5.5 4
   vertex 4 6 3.5
  endloop
 endfacet
 facet normal -0.57735026918962584 0.57735026918962584 0.57735026918962584
  outer loop
   vertex 3 5.5 3
   vertex 4 5.5 4
   vertex 3.5 6 3
  endloop
 endfacet
 facet normal -0.57735026918962584 0.57735026918962584 0.57735026918962584
  outer loop
   vertex 3 5.5 3
   vertex 3.5 5 4
   vertex 4 5.5 4
  endloop
 endfacet
 facet normal -0.57735026918962584 0.57735026918962584 0.57735026918962584
  outer loop
   vertex 3 5.5 3
   vertex 3 5 3.5
   vertex 3.5 5 4
  endloop
 endfacet
 facet normal 0 0.70710678118654746 0.70710678118654746
  outer loop
   vertex 4 6 3.5
   vertex 5 5.5 4
   vertex 5 6 3.5
  endloop
 endfacet
 facet normal 0 0.70710678118654746 0.70710678118654746
  outer loop
   vertex 4 5.5 4
   vertex 5 5.5 4
   vertex 4 6 3.5
  endloop
 endfacet
 facet normal 0.57735026918962584 0.57735026918962584 0.57735026918962584
  outer loop
   vertex 5 6 3.5
   vertex 6 5.5 3
   vertex 5.5 6 3
  endloop
 endfacet
 facet normal 0.57735026918962584 0.57735026918962584 0.57735026918962584
  outer loop
   vertex 5 6 3.5
   vertex 5 5.5 4
   vertex 6 5.5 3
  endloop
 endfacet
 facet normal 0 1 0
  outer loop
   vertex 5 5.5 4
   vertex 6 5.5 4
   vertex 6 5.5 3
  endloop
 endfacet
 facet normal 0.70710678118654746 0.70710678118654746 -0
  outer loop
   vertex 6.5 5 4
   vertex 6.5 5 3
   vertex 6 5.5 3
  endloop
 endfacet
 facet normal 0.70710678118654746 0.70710678118654746 0
  outer loop
   vertex 6 5.5 4
   vertex 6.5 5 4
   vertex 6 5.5 3
  endloop
 endfacet
 facet normal -0.57735026918962584 0.57735026918962584 0.57735026918962584
  outer loop
   vertex 3.5 6 3
   vertex 4 6 3.5
   vertex 4 6.5 3
  endloop
 endfacet
 facet normal -0 0.70710678118654746 0.70710678118654746
  outer loop
   vertex 5 6.5 3
   vertex 4 6.5 3
   vertex 4 6 3.5
  endloop
 endfacet
 facet normal 0 0.70710678118654746 0.70710678118654746
  outer loop
   vertex 5 6 3.5
   vertex 5 6.5 3
   vertex 4 6 3.5
  endloop
 endfacet
 facet normal 0.57735026918962584 0.57735026918962584 0.57735026918962584
  outer loop
   vertex 5.5 6 3
   vertex 5 6.5 3
   vertex 5 6 3.5
  endloop
 endfacet
 facet normal -0.70710678118654746 -0.70710678118654746 -0
  outer loop
   vertex 4 0.5 4
   vertex 4 0.5 5
   vertex 3.5 1 5
  endloop
 endfacet
 facet normal -0.70710678118654746 -0.70710678118654746 0
  outer loop
   vertex 3.5 1 4
   vertex 4 0.5 4
   vertex 3.5 1 5
  endloop
 endfacet
 facet normal 0 -1 -0
  outer loop
   vertex 5 0.5 4
   vertex 5 0.5 5
   vertex 4 0.5 4
  endloop
 endfacet
 facet normal -0 -1 0
  outer loop
   vertex 4 0.5 4
   vertex 5 0.5 5
   vertex 4 0.5 5
  endloop
 endfacet
 facet normal 0 -1 -0
  outer loop
   vertex 6 0.5 4
   vertex 6 0.5 5
   vertex 5 0.5 4
  endloop
 endfacet
 facet normal -0 -1 0
  outer loop
   vertex 5 0.5 4
   vertex 6 0.5 5
   vertex 5 0.5 5
  endloop
 endfacet
 facet normal 0.70710678118654746 -0.70710678118654746 0
  outer loop
   vertex 6 0.5 5
   vertex 6 0.5 4
   vertex 6.5 1 4
  endloop
 endfacet
 facet normal 0.70710678118654746 -0.70710678118654746 0
  outer loop
   vertex 6.5 1 5
   vertex 6 0.5 5
   vertex 6.5 1 4
  endloop
 endfacet
 facet normal -0.70710678118654746 -0.70710678118654746 -0
  outer loop
   vertex 3 1.5 4
   vertex 3 1.5 5
   vertex 2.5 2 5
  endloop
 endfacet
 facet normal -0.70710678118654746 -0.70710678118654746 0
  outer loop
   vertex 2.5 2 4
   vertex 3 1.5 4
   vertex 2.5 2 5
  endloop
 endfacet
 facet normal -0.70710678118654746 -0.70710678118654746 0
  outer loop
   vertex 3.5 1 5
   vertex 3 1.5 4
   vertex 3.5 1 4
  endloop
 endfacet
 facet normal -0.70710678118654746 -0.70710678118654746 0
  outer loop
   vertex 3 1.5 5
   vertex 3 1.5 4
   vertex 3.5 1 5
  endloop
 endfacet
 facet normal 0.70710678118654746 -0.70710678118654746 0
  outer loop
   vertex 6.5 1 4
   vertex 7 1.5 5
   vertex 6.5 1 5
  endloop
 endfacet
 facet normal 0.70710678118654746 -0.70710678118654746 0
  outer loop
   vertex 7 1.5 4
   vertex 7 1.5 5
   vertex 6.5 1 4
  endloop
 endfacet
 facet normal 0.70710678118654746 -0.70710678118654746 0
  outer loop
   vertex 7 1.5 5
   vertex 7 1.5 4
   vertex 7.5 2 4
  endloop
 endfacet
 facet normal 0.70710678118654746 -0.70710678118654746 0
  outer loop
   vertex 7.5 2 5
   vertex 7 1.5 5
   vertex 7.5 2 4
  endloop
 endfacet
 facet normal -1 0 0
  outer loop
   vertex 2.5 2 4
   vertex 2.5 2 5
   vertex 2.5 3 4
  endloop
 endfacet
 facet normal -1 -0 -0
  outer loop
   vertex 2.5 2 5
   vertex 2.5 3 5
   vertex 2.5 3 4
  endloop
 endfacet
 facet normal 1 0 0
  outer loop
   vertex 7.5 2 4
   vertex 7.5 3 4
   vertex 7.5 2 5
  endloop
 endfacet
 facet normal 1 0 -0
  outer loop
   vertex 7.5 2 5
   vertex 7.5 3 4
   vertex 7.5 3 5
  endloop
 endfacet
 facet normal -1 0 0
  outer loop
   vertex 2.5 3 4
   vertex 2.5 3 5
   vertex 2.5 4 4
  endloop
 endfacet
 facet normal -1 -0 -0
  outer loop
   vertex 2.5 3 5
   vertex 2.5 4 5
   vertex 2.5 4 4
  endloop
 endfacet
 facet normal 1 0 0
  outer loop
   vertex 7.5 3 4
   vertex 7.5 4 4
   vertex 7.5 3 5
  endloop
 endfacet
 facet normal 1 0 -0
  outer loop
   vertex 7.5 3 5
   vertex 7.5 4 4
   vertex 7.5 4 5
  endloop
 endfacet
 facet normal -0.70710678118654746 0.70710678118654746 0
  outer loop
   vertex 2.5 4 4
   vertex 2.5 4 5
   vertex 3 4.5 5
  endloop
 endfacet
 facet normal -0.70710678118654746 0.70710678118654746 0
  outer loop
   vertex 3 4.5 4
   vertex 2.5 4 4
   vertex 3 4.5 5
  endloop
 endfacet
 facet normal -0.70710678118654746 0.70710678118654746 0
  outer loop
   vertex 3 4.5 5
   vertex 3.5 5 4
   vertex 3 4.5 4
  endloop
 endfacet
 facet normal -0.70710678118654746 0.70710678118654746 0
  outer loop
   vertex 3.5 5 5
   vertex 3.5 5 4
   vertex 3 4.5 5
  endloop
 endfacet
 facet normal 0.70710678118654746 0.70710678118654746 0
  outer loop
   vertex 7 4.5 4
   vertex 6.5 5 5
   vertex 7 4.5 5
  endloop
 endfacet
 facet normal 0.70710678118654746 0.70710678118654746 0
  outer loop
   vertex 6.5 5 4
   vertex 6.5 5 5
   vertex 7 4.5 4
  endloop
 endfacet
 facet normal 0.70710678118654746 0.70710678118654746 -0
  outer loop
   vertex 7.5 4 5
   vertex 7.5 4 4
   vertex 7 4.5 4
  endloop
 endfacet
 facet normal 0.70710678118654746 0.70710678118654746 0
  outer loop
   vertex 7 4.5 5
   vertex 7.5 4 5
   vertex 7 4.5 4
  endloop
 endfacet
 facet normal -0.70710678118654746 0.70710678118654746 0
  outer loop
   vertex 3.5 5 4
   vertex 3.5 5 5
   vertex 4 5.5 5
  endloop
 endfacet
 facet normal -0.70710678118654746 0.70710678118654746 0
  outer loop
   vertex 4 5.5 4
   vertex 3.5 5 4
   vertex 4 5.5 5
  endloop
 endfacet
 facet normal 0 1 0
  outer loop
   vertex 5 5.5 4
   vertex 4 5.5 4
   vertex 5 5.5 5
  endloop
 endfacet
 facet normal -0 1 0
  outer loop
   vertex 4 5.5 4
   vertex 4 5.5 5
   vertex 5 5.5 5
  endloop
 endfacet
 facet normal 0 1 0
  outer loop
   vertex 6 5.5 4
   vertex 5 5.5 4
   vertex 6 5.5 5
  endloop
 endfacet
 facet normal -0 1 0
  outer loop
   vertex 5 5.5 4
   vertex 5 5.5 5
   vertex 6 5.5 5
  endloop
 endfacet
 facet normal 0.70710678118654746 0.70710678118654746 -0
  outer loop
   vertex 6.5 5 5
   vertex 6.5 5 4
   vertex 6 5.5 4
  endloop
 endfacet
 facet normal 0.70710678118654746 0.70710678118654746 0
  outer loop
   vertex 6 5.5 5
   vertex 6.5 5 5
   vertex 6 5.5 4
  endloop
 endfacet
 facet normal -0.70710678118654746 -0.70710678118654746 -0
  outer loop
   vertex 4 0.5 5
   vertex 4 0.5 6
   vertex 3.5 1 6
  endloop
 endfacet
 facet normal -0.70710678118654746 -0.70710678118654746 0
  outer loop
   vertex 3.5 1 5
   vertex 4 0.5 5
   vertex 3.5 1 6
  endloop
 endfacet
 facet normal 0 -1 -0
  outer loop
   vertex 5 0.5 5
   vertex 5 0.5 6
   vertex 4 0.5 5
  endloop
 endfacet
 facet normal -0 -1 0
  outer loop
   vertex 4 0.5 5
   vertex 5 0.5 6
   vertex 4 0.5 6
  endloop
 endfacet
 facet normal 0 -1 -0
  outer loop
   vertex 6 0.5 5
   vertex 6 0.5 6
   vertex 5 0.5 5
  endloop
 endfacet
 facet normal -0 -1 0
  outer loop
   vertex 5 0.5 5
   vertex 6 0.5 6
   vertex 5 0.5 6
  endloop
 endfacet
 facet normal 0.70710678118654746 -0.70710678118654746 0
  outer loop
   vertex 6 0.5 6
   vertex 6 0.5 5
   vertex 6.5 1 5
  endloop
 endfacet
 facet normal 0.70710678118654746 -0.70710678118654746 0
  outer loop
   vertex 6.5 1 6
   vertex 6 0.5 6
   vertex 6.5 1 5
  endloop
 endfacet
 facet normal -0.70710678118654746 -0.70710678118654746 -0
  outer loop
   vertex 3 1.5 5
   vertex 3 1.5 6
   vertex 2.5 2 6
  endloop
 endfacet
 facet normal -0.70710678118654746 -0.70710678118654746 0
  outer loop
   vertex 2.5 2 5
   vertex 3 1.5 5
   vertex 2.5 2 6
  endloop
 endfacet
 facet normal -0.70710678118654746 -0.70710678118654746 0
  outer loop
   vertex 3.5 1 6
   vertex 3 1.5 5
   vertex 3.5 1 5
  endloop
 endfacet
 facet normal -0.70710678118654746 -0.70710678118654746 0
  outer loop
   vertex 3 1.5 6
   vertex 3 1.5 5
   vertex 3.5 1 6
  endloop
 endfacet
 facet normal 0.57735026918962584 -0.57735026918962584 0.57735026918962584
  outer loop
   vertex 7 2 5.5
   vertex 6.5 1 5
   vertex 7 1.5 5
  endloop
 endfacet
 facet normal 0.57735026918962584 -0.57735026918962584 0.57735026918962584
  outer loop
   vertex 7 2 5.5
   vertex 6.5 2 6
   vertex 6.5 1 5
  endloop
 endfacet
 facet normal 1 -0 0
  outer loop
   vertex 6.5 2 6
   vertex 6.5 1 6
   vertex 6.5 1 5
  endloop
 endfacet
 facet normal 0.57735026918962584 -0.57735026918962584 0.57735026918962584
  outer loop
   vertex 7 1.5 5
   vertex 7.5 2 5
   vertex 7 2 5.5
  endloop
 endfacet
 facet normal -0.57735026918962584 -0.57735026918962584 -0.57735026918962584
  outer loop
   vertex 2 3 5.5
   vertex 2 2.5 6
   vertex 1.5 3 6
  endloop
 endfacet
 facet normal -0.57735026918962584 -0.57735026918962584 -0.57735026918962584
  outer loop
   vertex 2 3 5.5
   vertex 2.5 2 6
   vertex 2 2.5 6
  endloop
 endfacet
 facet normal -0.57735026918962584 -0.57735026918962584 -0.57735026918962584
  outer loop
   vertex 2 3 5.5
   vertex 2.5 3 5
   vertex 2.5 2 6
  endloop
 endfacet
 facet normal -1 0 0
  outer loop
   vertex 2.5 3 5
   vertex 2.5 2 5
   vertex 2.5 2 6
  endloop
 endfacet
 facet normal 0.70710678118654746 0 0.70710678118654746
  outer loop
   vertex 7 3 5.5
   vertex 6.5 2 6
   vertex 7 2 5.5
  endloop
 endfacet
 facet normal 0.70710678118654746 -0 0.70710678118654746
  outer loop
   vertex 6.5 3 6
   vertex 6.5 2 6
   vertex 7 3 5.5
  endloop
 endfacet
 facet normal 0.70710678118654746 0 0.70710678118654746
  outer loop
   vertex 7.5 2 5
   vertex 7.5 3 5
   vertex 7 3 5.5
  endloop
 endfacet
 facet normal 0.70710678118654746 0 0.70710678118654746
  outer loop
   vertex 7 2 5.5
   vertex 7.5 2 5
   vertex 7 3 5.5
  endloop
 endfacet
 facet normal -0.57735026918962584 0.57735026918962584 -0.57735026918962584
  outer loop
   vertex 2 3 5.5
   vertex 1.5 3 6
   vertex 2 3.5 6
  endloop
 endfacet
 facet normal -0.57735026918962584 0.57735026918962584 -0.57735026918962584
  outer loop
   vertex 2 3.5 6
   vertex 2.5 3 5
   vertex 2 3 5.5
  endloop
 endfacet
 facet normal -0.57735026918962584 0.57735026918962584 -0.57735026918962584
  outer loop
   vertex 2 3.5 6
   vertex 2.5 4 6
   vertex 2.5 3 5
  endloop
 endfacet
 facet normal -1 0 0
  outer loop
   vertex 2.5 4 6
   vertex 2.5 4 5
   vertex 2.5 3 5
  endloop
 endfacet
 facet normal 0.70710678118654746 0 0.70710678118654746
  outer loop
   vertex 7 4 5.5
   vertex 6.5 3 6
   vertex 7 3 5.5
  endloop
 endfacet
 facet normal 0.70710678118654746 -0 0.70710678118654746
  outer loop
   vertex 6.5 4 6
   vertex 6.5 3 6
   vertex 7 4 5.5
  endloop
 endfacet
 facet normal 0.70710678118654746 0 0.70710678118654746
  outer loop
   vertex 7.5 3 5
   vertex 7.5 4 5
   vertex 7 4 5.5
  endloop
 endfacet
 facet normal 0.70710678118654746 0 0.70710678118654746
  outer loop
   vertex 7 3 5.5
   vertex 7.5 3 5
   vertex 7 4 5.5
  endloop
 endfacet
 facet normal -0.70710678118654746 0.70710678118654746 0
  outer loop
   vertex 2.5 4 5
   vertex 2.5 4 6
   vertex 3 4.5 6
  endloop
 endfacet
 facet normal -0.70710678118654746 0.70710678118654746 0
  outer loop
   vertex 3 4.5 5
   vertex 2.5 4 5
   vertex 3 4.5 6
  endloop
 endfacet
 facet normal -0.70710678118654746 0.70710678118654746 0
  outer loop
   vertex 3 4.5 6
   vertex 3.5 5 5
   vertex 3 4.5 5
  endloop
 endfacet
 facet normal -0.70710678118654746 0.70710678118654746 0
  outer loop
   vertex 3.5 5 6
   vertex 3.5 5 5
   vertex 3 4.5 6
  endloop
 endfacet
 facet normal 0.57735026918962584 0.57735026918962584 0.57735026918962584
  outer loop
   vertex 7 4.5 5
   vertex 6.5 4 6
   vertex 7 4 5.5
  endloop
 endfacet
 facet normal 0.57735026918962584 0.57735026918962584 0.57735026918962584
  outer loop
   vertex 7 4.5 5
   vertex 6.5 5 5
   vertex 6.5 4 6
  endloop
 endfacet
 facet normal 1 0 0
  outer loop
   vertex 6.5 5 5
   vertex 6.5 5 6
   vertex 6.5 4 6
  endloop
 endfacet
 facet normal 0.57735026918962584 0.57735026918962584 0.57735026918962584
  outer loop
   vertex 7.5 4 5
   vertex 7 4.5 5
   vertex 7 4 5.5
  endloop
 endfacet
 facet normal -0.70710678118654746 0.70710678118654746 0
  outer loop
   vertex 3.5 5 5
   vertex 3.5 5 6
   vertex 4 5.5 6
  endloop
 endfacet
 facet normal -0.70710678118654746 0.70710678118654746 0
  outer loop
   vertex 4 5.5 5
   vertex 3.5 5 5
   vertex 4 5.5 6
  endloop
 endfacet
 facet normal 0 1 0
  outer loop
   vertex 5 5.5 5
   vertex 4 5.5 5
   vertex 5 5.5 6
  endloop
 endfacet
 facet normal -0 1 0
  outer loop
   vertex 4 5.5 5
   vertex 4 5.5 6
   vertex 5 5.5 6
  endloop
 endfacet
 facet normal 0 1 0
  outer loop
   vertex 6 5.5 5
   vertex 5 5.5 5
   vertex 6 5.5 6
  endloop
 endfacet
 facet normal -0 1 0
  outer loop
   vertex 5 5.5 5
   vertex 5 5.5 6
   vertex 6 5.5 6
  endloop
 endfacet
 facet normal 0.70710678118654746 0.70710678118654746 -0
  outer loop
   vertex 6.5 5 6
   vertex 6.5 5 5
   vertex 6 5.5 5
  endloop
 endfacet
 facet normal 0.70710678118654746 0.70710678118654746 0
  outer loop
   vertex 6 5.5 6
   vertex 6.5 5 6
   vertex 6 5.5 5
  endloop
 endfacet
 facet normal -0.70710678118654746 -0.70710678118654746 -0
  outer loop
   vertex 4 0.5 6
   vertex 4 0.5 7
   vertex 3.5 1 7
  endloop
 endfacet
 facet normal -0.70710678118654746 -0.70710678118654746 0
  outer loop
   vertex 3.5 1 6
   vertex 4 0.5 6
   vertex 3.5 1 7
  endloop
 endfacet
 facet normal 0 -1 -0
  outer loop
   vertex 5 0.5 6
   vertex 5 0.5 7
   vertex 4 0.5 6
  endloop
 endfacet
 facet normal -0 -1 0
  outer loop
   vertex 4 0.5 6
   vertex 5 0.5 7
   vertex 4 0.5 7
  endloop
 endfacet
 facet normal 0.57735026918962584 -0.57735026918962584 0.57735026918962584
  outer loop
   vertex 6 1 6.5
   vertex 5.5 1 7
   vertex 5 0.5 7
  endloop
 endfacet
 facet normal 0.57735026918962584 -0.57735026918962584 0.57735026918962584
  outer loop
   vertex 6 1 6.5
   vertex 5 0.5 7
   vertex 6 0.5 6
  endloop
 endfacet
 facet normal 0 -1 0
  outer loop
   vertex 6 0.5 6
   vertex 5 0.5 7
   vertex 5 0.5 6
  endloop
 endfacet
 facet normal 0.57735026918962584 -0.57735026918962584 0.57735026918962584
  outer loop
   vertex 6 0.5 6
   vertex 6.5 1 6
   vertex 6 1 6.5
  endloop
 endfacet
 facet normal -0.70710678118654746 -0.70710678118654746 -0
  outer loop
   vertex 3 1.5 6
   vertex 3 1.5 7
   vertex 2.5 2 7
  endloop
 endfacet
 facet normal -0.70710678118654746 -0.70710678118654746 0
  outer loop
   vertex 2.5 2 6
   vertex 3 1.5 6
   vertex 2.5 2 7
  endloop
 endfacet
 facet normal -0.70710678118654746 -0.70710678118654746 0
  outer loop
   vertex 3.5 1 7
   vertex 3 1.5 6
   vertex 3.5 1 6
  endloop
 endfacet
 facet normal -0.70710678118654746 -0.70710678118654746 0
  outer loop
   vertex 3 1.5 7
   vertex 3 1.5 6
   vertex 3.5 1 7
  endloop
 endfacet
 facet normal 0.57735026918962584 -0.57735026918962584 0.57735026918962584
  outer loop
   vertex 6 1 6.5
   vertex 6 1.5 7
   vertex 5.5 1 7
  endloop
 endfacet
 facet normal 0.57735026918962584 -0.57735026918962584 0.57735026918962584
  outer loop
   vertex 6 1.5 7
   vertex 6 1 6.5
   vertex 6.5 1 6
  endloop
 endfacet
 facet normal 0.57735026918962584 -0.57735026918962584 0.57735026918962584
  outer loop
   vertex 6 1.5 7
   vertex 6.5 1 6
   vertex 6.5 2 7
  endloop
 endfacet
 facet normal 1 0 0
  outer loop
   vertex 6.5 2 7
   vertex 6.5 1 6
   vertex 6.5 2 6
  endloop
 endfacet
 facet normal -0.57735026918962584 -0.57735026918962584 0.57735026918962584
  outer loop
   vertex 2 2.5 6
   vertex 2 3 6.5
   vertex 1.5 3 6
  endloop
 endfacet
 facet normal -0.57735026918962584 -0.57735026918962584 0.57735026918962584
  outer loop
   vertex 2 2.5 6
   vertex 2.5 3 7
   vertex 2 3 6.5
  endloop
 endfacet
 facet normal -0.57735026918962584 -0.57735026918962584 0.57735026918962584
  outer loop
   vertex 2 2.5 6
   vertex 2.5 2 6
   vertex 2.5 3 7
  endloop
 endfacet
 facet normal -1 0 0
  outer loop
   vertex 2.5 2 6
   vertex 2.5 2 7
   vertex 2.5 3 7
  endloop
 endfacet
 facet normal 1 0 0
  outer loop
   vertex 6.5 2 6
   vertex 6.5 3 6
   vertex 6.5 2 7
  endloop
 endfacet
 facet normal 1 0 -0
  outer loop
   vertex 6.5 2 7
   vertex 6.5 3 6
   vertex 6.5 3 7
  endloop
 endfacet
 facet normal -0.57735026918962584 0.57735026918962584 0.57735026918962584
  outer loop
   vertex 1.5 3 6
   vertex 2 3 6.5
   vertex 2 3.5 6
  endloop
 endfacet
 facet normal -0.57735026918962584 0.57735026918962584 0.57735026918962584
  outer loop
   vertex 2.5 4 6
   vertex 3 3.5 7
   vertex 3 4 6.5
  endloop
 endfacet
 facet normal -0.57735026918962584 0.57735026918962584 0.57735026918962584
  outer loop
   vertex 2 3.5 6
   vertex 3 3.5 7
   vertex 2.5 4 6
  endloop
 endfacet
 facet normal -0.57735026918962584 0.57735026918962584 0.57735026918962584
  outer loop
   vertex 2 3.5 6
   vertex 2.5 3 7
   vertex 3 3.5 7
  endloop
 endfacet
 facet normal -0.57735026918962584 0.57735026918962584 0.57735026918962584
  outer loop
   vertex 2 3.5 6
   vertex 2 3 6.5
   vertex 2.5 3 7
  endloop
 endfacet
 facet normal -0.57735026918962584 0.57735026918962584 0.57735026918962584
  outer loop
   vertex 3 3.5 7
   vertex 3.5 4 7
   vertex 3 4 6.5
  endloop
 endfacet
 facet normal 1 0 0
  outer loop
   vertex 6.5 3 6
   vertex 6.5 4 6
   vertex 6.5 3 7
  endloop
 endfacet
 facet normal 1 0 -0
  outer loop
   vertex 6.5 3 7
   vertex 6.5 4 6
   vertex 6.5 4 7
  endloop
 endfacet
 facet normal -0.57735026918962584 0.57735026918962584 0.57735026918962584
  outer loop
   vertex 2.5 4 6
   vertex 3 4 6.5
   vertex 3 4.5 6
  endloop
 endfacet
 facet normal -0.57735026918962584 0.57735026918962584 0.57735026918962584
  outer loop
   vertex 3 4 6.5
   vertex 3.5 5 6
   vertex 3 4.5 6
  endloop
 endfacet
 facet normal -0.57735026918962584 0.57735026918962584 0.57735026918962584
  outer loop
   vertex 3 4 6.5
   vertex 3.5 4 7
   vertex 3.5 5 6
  endloop
 endfacet
 facet normal -1 -0 -0
  outer loop
   vertex 3.5 4 7
   vertex 3.5 5 7
   vertex 3.5 5 6
  endloop
 endfacet
 facet normal 1 0 0
  outer loop
   vertex 6.5 4 6
   vertex 6.5 5 6
   vertex 6.5 4 7
  endloop
 endfacet
 facet normal 1 0 -0
  outer loop
   vertex 6.5 4 7
   vertex 6.5 5 6
   vertex 6.5 5 7
  endloop
 endfacet
 facet normal -0.70710678118654746 0.70710678118654746 0
  outer loop
   vertex 3.5 5 6
   vertex 3.5 5 7
   vertex 4 5.5 7
  endloop
 endfacet
 facet normal -0.70710678118654746 0.70710678118654746 0
  outer loop
   vertex 4 5.5 6
   vertex 3.5 5 6
   vertex 4 5.5 7
  endloop
 endfacet
 facet normal 0 1 0
  outer loop
   vertex 5 5.5 6
   vertex 4 5.5 6
   vertex 5 5.5 7
  endloop
 endfacet
 facet normal -0 1 0
  outer loop
   vertex 4 5.5 6
   vertex 4 5.5 7
   vertex 5 5.5 7
  endloop
 endfacet
 facet normal 0 1 0
  outer loop
   vertex 6 5.5 6
   vertex 5 5.5 6
   vertex 6 5.5 7
  endloop
 endfacet
 facet normal -0 1 0
  outer loop
   vertex 5 5.5 6
   vertex 5 5.5 7
   vertex 6 5.5 7
  endloop
 endfacet
 facet normal 0.70710678118654746 0.70710678118654746 -0
  outer loop
   vertex 6.5 5 7
   vertex 6.5 5 6
   vertex 6 5.5 6
  endloop
 endfacet
 facet normal 0.70710678118654746 0.70710678118654746 0
  outer loop
   vertex 6 5.5 7
   vertex 6.5 5 7
   vertex 6 5.5 6
  endloop
 endfacet
 facet normal -0.70710678118654746 -0.70710678118654746 -0
  outer loop
   vertex 4 0.5 7
   vertex 4 0.5 8
   vertex 3.5 1 8
  endloop
 endfacet
 facet normal -0.70710678118654746 -0.70710678118654746 0
  outer loop
   vertex 3.5 1 7
   vertex 4 0.5 7
   vertex 3.5 1 8
  endloop
 endfacet
 facet normal 0 -1 -0
  outer loop
   vertex 5 0.5 7
   vertex 5 0.5 8
   vertex 4 0.5 7
  endloop
 endfacet
 facet normal -0 -1 0
  outer loop
   vertex 4 0.5 7
   vertex 5 0.5 8
   vertex 4 0.5 8
  endloop
 endfacet
 facet normal 0.70710678118654746 -0.70710678118654746 0
  outer loop
   vertex 5 0.5 8
   vertex 5 0.5 7
   vertex 5.5 1 7
  endloop
 endfacet
 facet normal 0.70710678118654746 -0.70710678118654746 0
  outer loop
   vertex 5.5 1 8
   vertex 5 0.5 8
   vertex 5.5 1 7
  endloop
 endfacet
 facet normal -0.70710678118654746 -0.70710678118654746 -0
  outer loop
   vertex 3 1.5 7
   vertex 3 1.5 8
   vertex 2.5 2 8
  endloop
 endfacet
 facet normal -0.70710678118654746 -0.70710678118654746 0
  outer loop
   vertex 2.5 2 7
   vertex 3 1.5 7
   vertex 2.5 2 8
  endloop
 endfacet
 facet normal -0.70710678118654746 -0.70710678118654746 0
  outer loop
   vertex 3.5 1 8
   vertex 3 1.5 7
   vertex 3.5 1 7
  endloop
 endfacet
 facet normal -0.70710678118654746 -0.70710678118654746 0
  outer loop
   vertex 3 1.5 8
   vertex 3 1.5 7
   vertex 3.5 1 8
  endloop
 endfacet
 facet normal 0.70710678118654746 -0.70710678118654746 0
  outer loop
   vertex 5.5 1 7
   vertex 6 1.5 8
   vertex 5.5 1 8
  endloop
 endfacet
 facet normal 0.70710678118654746 -0.70710678118654746 0
  outer loop
   vertex 6 1.5 7
   vertex 6 1.5 8
   vertex 5.5 1 7
  endloop
 endfacet
 facet normal 0.70710678118654746 -0.70710678118654746 0
  outer loop
   vertex 6 1.5 8
   vertex 6 1.5 7
   vertex 6.5 2 7
  endloop
 endfacet
 facet normal 0.70710678118654746 -0.70710678118654746 0
  outer loop
   vertex 6.5 2 8
   vertex 6 1.5 8
   vertex 6.5 2 7
  endloop
 endfacet
 facet normal -1 0 0
  outer loop
   vertex 2.5 2 7
   vertex 2.5 2 8
   vertex 2.5 3 7
  endloop
 endfacet
 facet normal -1 -0 -0
  outer loop
   vertex 2.5 2 8
   vertex 2.5 3 8
   vertex 2.5 3 7
  endloop
 endfacet
 facet normal 1 0 0
  outer loop
   vertex 6.5 2 7
   vertex 6.5 3 7
   vertex 6.5 2 8
  endloop
 endfacet
 facet normal 1 0 -0
  outer loop
   vertex 6.5 2 8
   vertex 6.5 3 7
   vertex 6.5 3 8
  endloop
 endfacet
 facet normal -0.70710678118654746 0.70710678118654746 0
  outer loop
   vertex 2.5 3 7
   vertex 2.5 3 8
   vertex 3 3.5 8
  endloop
 endfacet
 facet normal -0.70710678118654746 0.70710678118654746 0
  outer loop
   vertex 3 3.5 7
   vertex 2.5 3 7
   vertex 3 3.5 8
  endloop
 endfacet
 facet normal -0.70710678118654746 0.70710678118654746 0
  outer loop
   vertex 3 3.5 8
   vertex 3.5 4 7
   vertex 3 3.5 7
  endloop
 endfacet
 facet normal -0.70710678118654746 0.70710678118654746 0
  outer loop
   vertex 3.5 4 8
   vertex 3.5 4 7
   vertex 3 3.5 8
  endloop
 endfacet
 facet normal 1 0 0
  outer loop
   vertex 6.5 3 7
   vertex 6.5 4 7
   vertex 6.5 3 8
  endloop
 endfacet
 facet normal 1 0 -0
  outer loop
   vertex 6.5 3 8
   vertex 6.5 4 7
   vertex 6.5 4 8
  endloop
 endfacet
 facet normal -1 0 0
  outer loop
   vertex 3.5 4 7
   vertex 3.5 4 8
   vertex 3.5 5 7
  endloop
 endfacet
 facet normal -1 -0 -0
  outer loop
   vertex 3.5 4 8
   vertex 3.5 5 8
   vertex 3.5 5 7
  endloop
 endfacet
 facet normal 1 0 0
  outer loop
   vertex 6.5 4 7
   vertex 6.5 5 7
   vertex 6.5 4 8
  endloop
 endfacet
 facet normal 1 0 -0
  outer loop
   vertex 6.5 4 8
   vertex 6.5 5 7
   vertex 6.5 5 8
  endloop
 endfacet
 facet normal -0.70710678118654746 0.70710678118654746 0
  outer loop
   vertex 3.5 5 7
   vertex 3.5 5 8
   vertex 4 5.5 8
  endloop
 endfacet
 facet normal -0.70710678118654746 0.70710678118654746 0
  outer loop
   vertex 4 5.5 7
   vertex 3.5 5 7
   vertex 4 5.5 8
  endloop
 endfacet
 facet normal 0 1 0
  outer loop
   vertex 5 5.5 7
   vertex 4 5.5 7
   vertex 5 5.5 8
  endloop
 endfacet
 facet normal -0 1 0
  outer loop
   vertex 4 5.5 7
   vertex 4 5.5 8
   vertex 5 5.5 8
  endloop
 endfacet
 facet normal 0 1 0
  outer loop
   vertex 6 5.5 7
   vertex 5 5.5 7
   vertex 6 5.5 8
  endloop
 endfacet
 facet normal -0 1 0
  outer loop
   vertex 5 5.5 7
   vertex 5 5.5 8
   vertex 6 5.5 8
  endloop
 endfacet
 facet normal 0.70710678118654746 0.70710678118654746 -0
  outer loop
   vertex 6.5 5 8
   vertex 6.5 5 7
   vertex 6 5.5 7
  endloop
 endfacet
 facet normal 0.70710678118654746 0.70710678118654746 0
  outer loop
   vertex 6 5.5 8
   vertex 6.5 5 8
   vertex 6 5.5 7
  endloop
 endfacet
 facet normal -0.70710678118654746 -0.70710678118654746 -0
  outer loop
   vertex 4 0.5 8
   vertex 4 0.5 9
   vertex 3.5 1 9
  endloop
 endfacet
 facet normal -0.70710678118654746 -0.70710678118654746 0
  outer loop
   vertex 3.5 1 8
   vertex 4 0.5 8
   vertex 3.5 1 9
  endloop
 endfacet
 facet normal 0 -1 -0
  outer loop
   vertex 5 0.5 8
   vertex 5 0.5 9
   vertex 4 0.5 8
  endloop
 endfacet
 facet normal -0 -1 0
  outer loop
   vertex 4 0.5 8
   vertex 5 0.5 9
   vertex 4 0.5 9
  endloop
 endfacet
 facet normal 0.70710678118654746 -0.70710678118654746 0
  outer loop
   vertex 5 0.5 9
   vertex 5 0.5 8
   vertex 5.5 1 8
  endloop
 endfacet
 facet normal 0.70710678118654746 -0.70710678118654746 0
  outer loop
   vertex 5.5 1 9
   vertex 5 0.5 9
   vertex 5.5 1 8
  endloop
 endfacet
 facet normal -0.70710678118654746 -0.70710678118654746 -0
  outer loop
   vertex 3 1.5 8
   vertex 3 1.5 9
   vertex 2.5 2 9
  endloop
 endfacet
 facet normal -0.70710678118654746 -0.70710678118654746 0
  outer loop
   vertex 2.5 2 8
   vertex 3 1.5 8
   vertex 2.5 2 9
  endloop
 endfacet
 facet normal -0.70710678118654746 -0.70710678118654746 0
  outer loop
   vertex 3.5 1 9
   vertex 3 1.5 8
   vertex 3.5 1 8
  endloop
 endfacet
 facet normal -0.70710678118654746 -0.70710678118654746 0
  outer loop
   vertex 3 1.5 9
   vertex 3 1.5 8
   vertex 3.5 1 9
  endloop
 endfacet
 facet normal 0.70710678118654746 -0.70710678118654746 0
  outer loop
   vertex 5.5 1 8
   vertex 6 1.5 9
   vertex 5.5 1 9
  endloop
 endfacet
 facet normal 0.70710678118654746 -0.70710678118654746 0
  outer loop
   vertex 6 1.5 8
   vertex 6 1.5 9
   vertex 5.5 1 8
  endloop
 endfacet
 facet normal 0.70710678118654746 -0.70710678118654746 0
  outer loop
   vertex 6 1.5 9
   vertex 6 1.5 8
   vertex 6.5 2 8
  endloop
 endfacet
 facet normal 0.70710678118654746 -0.70710678118654746 0
  outer loop
   vertex 6.5 2 9
   vertex 6 1.5 9
   vertex 6.5 2 8
  endloop
 endfacet
 facet normal -1 0 0
  outer loop
   vertex 2.5 2 8
   vertex 2.5 2 9
   vertex 2.5 3 8
  endloop
 endfacet
 facet normal -1 -0 -0
  outer loop
   vertex 2.5 2 9
   vertex 2.5 3 9
   vertex 2.5 3 8
  endloop
 endfacet
 facet normal 1 0 0
  outer loop
   vertex 6.5 2 8
   vertex 6.5 3 8
   vertex 6.5 2 9
  endloop
 endfacet
 facet normal 1 0 -0
  outer loop
   vertex 6.5 2 9
   vertex 6.5 3 8
   vertex 6.5 3 9
  endloop
 endfacet
 facet normal -0.57735026918962584 0.57735026918962584 -0.57735026918962584
  outer loop
   vertex 3 4 8.5
   vertex 3 3.5 8
   vertex 2.5 3 8
  endloop
 endfacet
 facet normal -0.57735026918962584 0.57735026918962584 -0.57735026918962584
  outer loop
   vertex 3 4 8.5
   vertex 2.5 3 8
   vertex 2.5 4 9
  endloop
 endfacet
 facet normal -1 0 0
  outer loop
   vertex 2.5 4 9
   vertex 2.5 3 8
   vertex 2.5 3 9
  endloop
 endfacet
 facet normal -0.57735026918962584 0.57735026918962584 -0.57735026918962584
  outer loop
   vertex 3 3.5 8
   vertex 3 4 8.5
   vertex 3.5 4 8
  endloop
 endfacet
 facet normal 1 0 0
  outer loop
   vertex 6.5 3 8
   vertex 6.5 4 8
   vertex 6.5 3 9
  endloop
 endfacet
 facet normal 1 0 -0
  outer loop
   vertex 6.5 3 9
   vertex 6.5 4 8
   vertex 6.5 4 9
  endloop
 endfacet
 facet normal -0.57735026918962584 0.57735026918962584 -0.57735026918962584
  outer loop
   vertex 3 4 8.5
   vertex 2.5 4 9
   vertex 3 4.5 9
  endloop
 endfacet
 facet normal -0.57735026918962584 0.57735026918962584 -0.57735026918962584
  outer loop
   vertex 3 4.5 9
   vertex 3.5 4 8
   vertex 3 4 8.5
  endloop
 endfacet
 facet normal -0.57735026918962584 0.57735026918962584 -0.57735026918962584
  outer loop
   vertex 3 4.5 9
   vertex 3.5 5 9
   vertex 3.5 4 8
  endloop
 endfacet
 facet normal -1 0 0
  outer loop
   vertex 3.5 5 9
   vertex 3.5 5 8
   vertex 3.5 4 8
  endloop
 endfacet
 facet normal 0.57735026918962584 0.57735026918962584 0.57735026918962584
  outer loop
   vertex 6 5 8.5
   vertex 5.5 5 9
   vertex 6 4.5 9
  endloop
 endfacet
 facet normal 0.57735026918962584 0.57735026918962584 0.57735026918962584
  outer loop
   vertex 6 5 8.5
   vertex 6 4.5 9
   vertex 6.5 4 9
  endloop
 endfacet
 facet normal 0.57735026918962584 0.57735026918962584 0.57735026918962584
  outer loop
   vertex 6 5 8.5
   vertex 6.5 4 9
   vertex 6.5 5 8
  endloop
 endfacet
 facet normal 1 0 0
  outer loop
   vertex 6.5 5 8
   vertex 6.5 4 9
   vertex 6.5 4 8
  endloop
 endfacet
 facet normal -0.70710678118654746 0.70710678118654746 0
  outer loop
   vertex 3.5 5 8
   vertex 3.5 5 9
   vertex 4 5.5 9
  endloop
 endfacet
 facet normal -0.70710678118654746 0.70710678118654746 0
  outer loop
   vertex 4 5.5 8
   vertex 3.5 5 8
   vertex 4 5.5 9
  endloop
 endfacet
 facet normal 0 1 0
  outer loop
   vertex 5 5.5 8
   vertex 4 5.5 8
   vertex 5 5.5 9
  endloop
 endfacet
 facet normal -0 1 0
  outer loop
   vertex 4 5.5 8
   vertex 4 5.5 9
   vertex 5 5.5 9
  endloop
 endfacet
 facet normal 0.57735026918962584 0.57735026918962584 0.57735026918962584
  outer loop
   vertex 5.5 5 9
   vertex 6 5 8.5
   vertex 6 5.5 8
  endloop
 endfacet
 facet normal 0.57735026918962584 0.57735026918962584 0.57735026918962584
  outer loop
   vertex 5.5 5 9
   vertex 6 5.5 8
   vertex 5 5.5 9
  endloop
 endfacet
 facet normal 0 1 0
  outer loop
   vertex 5 5.5 9
   vertex 6 5.5 8
   vertex 5 5.5 8
  endloop
 endfacet
 facet normal 0.57735026918962584 0.57735026918962584 0.57735026918962584
  outer loop
   vertex 6.5 5 8
   vertex 6 5.5 8
   vertex 6 5 8.5
  endloop
 endfacet
 facet normal -0.57735026918962584 -0.57735026918962584 -0.57735026918962584
  outer loop
   vertex 3 1 9.5
   vertex 3 0.5 10
   vertex 2.5 1 10
  endloop
 endfacet
 facet normal -0.57735026918962584 -0.57735026918962584 -0.57735026918962584
  outer loop
   vertex 3 1 9.5
   vertex 3.5 1 9
   vertex 4 0.5 9
  endloop
 endfacet
 facet normal -0.57735026918962584 -0.57735026918962584 -0.57735026918962584
  outer loop
   vertex 3 1 9.5
   vertex 4 0.5 9
   vertex 3 0.5 10
  endloop
 endfacet
 facet normal 0 -1 0
  outer loop
   vertex 3 0.5 10
   vertex 4 0.5 9
   vertex 4 0.5 10
  endloop
 endfacet
 facet normal 0 -1 -0
  outer loop
   vertex 5 0.5 9
   vertex 5 0.5 10
   vertex 4 0.5 9
  endloop
 endfacet
 facet normal -0 -1 0
  outer loop
   vertex 4 0.5 9
   vertex 5 0.5 10
   vertex 4 0.5 10
  endloop
 endfacet
 facet normal 0.70710678118654746 -0.70710678118654746 0
  outer loop
   vertex 5 0.5 10
   vertex 5 0.5 9
   vertex 5.5 1 9
  endloop
 endfacet
 facet normal 0.70710678118654746 -0.70710678118654746 0
  outer loop
   vertex 5.5 1 10
   vertex 5 0.5 10
   vertex 5.5 1 9
  endloop
 endfacet
 facet normal -0.57735026918962584 -0.57735026918962584 -0.57735026918962584
  outer loop
   vertex 2 2 9.5
   vertex 2 1.5 10
   vertex 1.5 2 10
  endloop
 endfacet
 facet normal -0.57735026918962584 -0.57735026918962584 -0.57735026918962584
  outer loop
   vertex 2.5 1 10
   vertex 2 1.5 10
   vertex 2 2 9.5
  endloop
 endfacet
 facet normal -0.57735026918962584 -0.57735026918962584 -0.57735026918962584
  outer loop
   vertex 3 1 9.5
   vertex 2.5 1 10
   vertex 2 2 9.5
  endloop
 endfacet
 facet normal -0.57735026918962584 -0.57735026918962584 -0.57735026918962584
  outer loop
   vertex 3 1 9.5
   vertex 2 2 9.5
   vertex 2.5 2 9
  endloop
 endfacet
 facet normal -0.57735026918962584 -0.57735026918962584 -0.57735026918962584
  outer loop
   vertex 3 1 9.5
   vertex 2.5 2 9
   vertex 3 1.5 9
  endloop
 endfacet
 facet normal -0.57735026918962584 -0.57735026918962584 -0.57735026918962584
  outer loop
   vertex 3.5 1 9
   vertex 3 1 9.5
   vertex 3 1.5 9
  endloop
 endfacet
 facet normal 0.70710678118654746 -0.70710678118654746 0
  outer loop
   vertex 5.5 1 9
   vertex 6 1.5 10
   vertex 5.5 1 10
  endloop
 endfacet
 facet normal 0.70710678118654746 -0.70710678118654746 0
  outer loop
   vertex 6 1.5 9
   vertex 6 1.5 10
   vertex 5.5 1 9
  endloop
 endfacet
 facet normal 0.70710678118654746 -0.70710678118654746 0
  outer loop
   vertex 6 1.5 10
   vertex 6 1.5 9
   vertex 6.5 2 9
  endloop
 endfacet
 facet normal 0.70710678118654746 -0.70710678118654746 0
  outer loop
   vertex 6.5 2 10
   vertex 6 1.5 10
   vertex 6.5 2 9
  endloop
 endfacet
 facet normal -0.70710678118654746 0 -0.70710678118654746
  outer loop
   vertex 2 3 9.5
   vertex 2 2 9.5
   vertex 1.5 2 10
  endloop
 endfacet
 facet normal -0.70710678118654746 0 -0.70710678118654746
  outer loop
   vertex 1.5 3 10
   vertex 2 3 9.5
   vertex 1.5 2 10
  endloop
 endfacet
 facet normal -0.70710678118654746 0 -0.70710678118654746
  outer loop
   vertex 2.5 2 9
   vertex 2 3 9.5
   vertex 2.5 3 9
  endloop
 endfacet
 facet normal -0.70710678118654746 -0 -0.70710678118654746
  outer loop
   vertex 2 2 9.5
   vertex 2 3 9.5
   vertex 2.5 2 9
  endloop
 endfacet
 facet normal 1 0 0
  outer loop
   vertex 6.5 2 9
   vertex 6.5 3 9
   vertex 6.5 2 10
  endloop
 endfacet
 facet normal 1 0 -0
  outer loop
   vertex 6.5 2 10
   vertex 6.5 3 9
   vertex 6.5 3 10
  endloop
 endfacet
 facet normal -0.70710678118654746 0 -0.70710678118654746
  outer loop
   vertex 2 4 9.5
   vertex 2 3 9.5
   vertex 1.5 3 10
  endloop
 endfacet
 facet normal -0.70710678118654746 0 -0.70710678118654746
  outer loop
   vertex 1.5 4 10
   vertex 2 4 9.5
   vertex 1.5 3 10
  endloop
 endfacet
 facet normal -0.70710678118654746 0 -0.70710678118654746
  outer loop
   vertex 2.5 3 9
   vertex 2 4 9.5
   vertex 2.5 4 9
  endloop
 endfacet
 facet normal -0.70710678118654746 -0 -0.70710678118654746
  outer loop
   vertex 2 3 9.5
   vertex 2 4 9.5
   vertex 2.5 3 9
  endloop
 endfacet
 facet normal 1 0 0
  outer loop
   vertex 6.5 3 9
   vertex 6.5 4 9
   vertex 6.5 3 10
  endloop
 endfacet
 facet normal 1 0 -0
  outer loop
   vertex 6.5 3 10
   vertex 6.5 4 9
   vertex 6.5 4 10
  endloop
 endfacet
 facet normal -0.70710678118654746 0 -0.70710678118654746
  outer loop
   vertex 2 5 9.5
   vertex 2 4 9.5
   vertex 1.5 4 10
  endloop
 endfacet
 facet normal -0.70710678118654746 0 -0.70710678118654746
  outer loop
   vertex 1.5 5 10
   vertex 2 5 9.5
   vertex 1.5 4 10
  endloop
 endfacet
 facet normal -0.57735026918962584 0.57735026918962584 -0.57735026918962584
  outer loop
   vertex 2.5 4 9
   vertex 3 5 9.5
   vertex 3 4.5 9
  endloop
 endfacet
 facet normal -0.57735026918962584 0.57735026918962584 -0.57735026918962584
  outer loop
   vertex 2.5 4 9
   vertex 2 4 9.5
   vertex 3 5 9.5
  endloop
 endfacet
 facet normal 0 0 -1
  outer loop
   vertex 2 4 9.5
   vertex 2 5 9.5
   vertex 3 5 9.5
  endloop
 endfacet
 facet normal -0.57735026918962584 0.57735026918962584 -0.57735026918962584
  outer loop
   vertex 3 4.5 9
   vertex 3 5 9.5
   vertex 3.5 5 9
  endloop
 endfacet
 facet normal 0.70710678118654746 0.70710678118654746 0
  outer loop
   vertex 6 4.5 9
   vertex 5.5 5 10
   vertex 6 4.5 10
  endloop
 endfacet
 facet normal 0.70710678118654746 0.70710678118654746 0
  outer loop
   vertex 5.5 5 9
   vertex 5.5 5 10
   vertex 6 4.5 9
  endloop
 endfacet
 facet normal 0.70710678118654746 0.70710678118654746 -0
  outer loop
   vertex 6.5 4 10
   vertex 6.5 4 9
   vertex 6 4.5 9
  endloop
 endfacet
 facet normal 0.70710678118654746 0.70710678118654746 0
  outer loop
   vertex 6 4.5 10
   vertex 6.5 4 10
   vertex 6 4.5 9
  endloop
 endfacet
 facet normal -0.57735026918962584 0.57735026918962584 -0.57735026918962584
  outer loop
   vertex 2 5 9.5
   vertex 1.5 5 10
   vertex 2 5.5 10
  endloop
 endfacet
 facet normal -0.57735026918962584 0.57735026918962584 -0.57735026918962584
  outer loop
   vertex 2 5.5 10
   vertex 2.5 6 10
   vertex 3 6 9.5
  endloop
 endfacet
 facet normal -0.57735026918962584 0.57735026918962584 -0.57735026918962584
  outer loop
   vertex 2 5.5 10
   vertex 3 6 9.5
   vertex 2 5 9.5
  endloop
 endfacet
 facet normal 0 -0 -1
  outer loop
   vertex 2 5 9.5
   vertex 3 6 9.5
   vertex 3 5 9.5
  endloop
 endfacet
 facet normal -0.57735026918962584 0.57735026918962584 -0.57735026918962584
  outer loop
   vertex 3.5 5 9
   vertex 4 6 9.5
   vertex 4 5.5 9
  endloop
 endfacet
 facet normal -0.57735026918962584 0.57735026918962584 -0.57735026918962584
  outer loop
   vertex 3.5 5 9
   vertex 3 5 9.5
   vertex 4 6 9.5
  endloop
 endfacet
 facet normal 0 0 -1
  outer loop
   vertex 3 5 9.5
   vertex 3 6 9.5
   vertex 4 6 9.5
  endloop
 endfacet
 facet normal 0.57735026918962584 0.57735026918962584 -0.57735026918962584
  outer loop
   vertex 4.5 6 10
   vertex 4 5.5 9
   vertex 4 6 9.5
  endloop
 endfacet
 facet normal 0.57735026918962584 0.57735026918962584 -0.57735026918962584
  outer loop
   vertex 4.5 6 10
   vertex 5 5.5 10
   vertex 4 5.5 9
  endloop
 endfacet
 facet normal 0 1 -0
  outer loop
   vertex 5 5.5 10
   vertex 5 5.5 9
   vertex 4 5.5 9
  endloop
 endfacet
 facet normal 0.70710678118654746 0.70710678118654746 -0
  outer loop
   vertex 5.5 5 10
   vertex 5.5 5 9
   vertex 5 5.5 9
  endloop
 endfacet
 facet normal 0.70710678118654746 0.70710678118654746 0
  outer loop
   vertex 5 5.5 10
   vertex 5.5 5 10
   vertex 5 5.5 9
  endloop
 endfacet
 facet normal -0.57735026918962584 0.57735026918962584 -0.57735026918962584
  outer loop
   vertex 3 6 9.5
   vertex 2.5 6 10
   vertex 3 6.5 10
  endloop
 endfacet
 facet normal 0 0.70710678118654746 -0.70710678118654746
  outer loop
   vertex 4 6 9.5
   vertex 3 6 9.5
   vertex 3 6.5 10
  endloop
 endfacet
 facet normal 0 0.70710678118654746 -0.70710678118654746
  outer loop
   vertex 4 6.5 10
   vertex 4 6 9.5
   vertex 3 6.5 10
  endloop
 endfacet
 facet normal 0.57735026918962584 0.57735026918962584 -0.57735026918962584
  outer loop
   vertex 4.5 6 10
   vertex 4 6 9.5
   vertex 4 6.5 10
  endloop
 endfacet
 facet normal -0.57735026918962584 -0.57735026918962584 -0.57735026918962584
  outer loop
   vertex 2 1 10.5
   vertex 2 0.5 11
   vertex 1.5 1 11
  endloop
 endfacet
 facet normal -0.57735026918962584 -0.57735026918962584 -0.57735026918962584
  outer loop
   vertex 2 1 10.5
   vertex 2.5 1 10
   vertex 3 0.5 10
  endloop
 endfacet
 facet normal -0.57735026918962584 -0.57735026918962584 -0.57735026918962584
  outer loop
   vertex 2 1 10.5
   vertex 3 0.5 10
   vertex 2 0.5 11
  endloop
 endfacet
 facet normal 0 -1 0
  outer loop
   vertex 2 0.5 11
   vertex 3 0.5 10
   vertex 3 0.5 11
  endloop
 endfacet
 facet normal 0 -1 -0
  outer loop
   vertex 4 0.5 10
   vertex 4 0.5 11
   vertex 3 0.5 10
  endloop
 endfacet
 facet normal -0 -1 0
  outer loop
   vertex 3 0.5 10
   vertex 4 0.5 11
   vertex 3 0.5 11
  endloop
 endfacet
 facet normal 0.57735026918962584 -0.57735026918962584 0.57735026918962584
  outer loop
   vertex 5 1 10.5
   vertex 4.5 1 11
   vertex 4 0.5 11
  endloop
 endfacet
 facet normal 0.57735026918962584 -0.57735026918962584 0.57735026918962584
  outer loop
   vertex 5 1 10.5
   vertex 4 0.5 11
   vertex 5 0.5 10
  endloop
 endfacet
 facet normal 0 -1 0
  outer loop
   vertex 5 0.5 10
   vertex 4 0.5 11
   vertex 4 0.5 10
  endloop
 endfacet
 facet normal 0.57735026918962584 -0.57735026918962584 0.57735026918962584
  outer loop
   vertex 5 0.5 10
   vertex 5.5 1 10
   vertex 5 1 10.5
  endloop
 endfacet
 facet normal -0.57735026918962584 -0.57735026918962584 -0.57735026918962584
  outer loop
   vertex 1 2 10.5
   vertex 1 1.5 11
   vertex 0.5 2 11
  endloop
 endfacet
 facet normal -0.57735026918962584 -0.57735026918962584 -0.57735026918962584
  outer loop
   vertex 1.5 1 11
   vertex 1 1.5 11
   vertex 1 2 10.5
  endloop
 endfacet
 facet normal -0.57735026918962584 -0.57735026918962584 -0.57735026918962584
  outer loop
   vertex 2 1 10.5
   vertex 1.5 1 11
   vertex 1 2 10.5
  endloop
 endfacet
 facet normal -0.57735026918962584 -0.57735026918962584 -0.57735026918962584
  outer loop
   vertex 2 1 10.5
   vertex 1 2 10.5
   vertex 1.5 2 10
  endloop
 endfacet
 facet normal -0.57735026918962584 -0.57735026918962584 -0.57735026918962584
  outer loop
   vertex 2 1 10.5
   vertex 1.5 2 10
   vertex 2 1.5 10
  endloop
 endfacet
 facet normal -0.57735026918962584 -0.57735026918962584 -0.57735026918962584
  outer loop
   vertex 2.5 1 10
   vertex 2 1 10.5
   vertex 2 1.5 10
  endloop
 endfacet
 facet normal 0.57735026918962584 -0.57735026918962584 0.57735026918962584
  outer loop
   vertex 5 1 10.5
   vertex 5 1.5 11
   vertex 4.5 1 11
  endloop
 endfacet
 facet normal 0.57735026918962584 -0.57735026918962584 0.57735026918962584
  outer loop
   vertex 6 2 10.5
   vertex 5.5 2 11
   vertex 5 1.5 11
  endloop
 endfacet
 facet normal 0.57735026918962584 -0.57735026918962584 0.57735026918962584
  outer loop
   vertex 6 1.5 10
   vertex 6 2 10.5
   vertex 5 1.5 11
  endloop
 endfacet
 facet normal 0.57735026918962584 -0.57735026918962584 0.57735026918962584
  outer loop
   vertex 6 1.5 10
   vertex 5 1.5 11
   vertex 5 1 10.5
  endloop
 endfacet
 facet normal 0.57735026918962584 -0.57735026918962584 0.57735026918962584
  outer loop
   vertex 6 1.5 10
   vertex 5 1 10.5
   vertex 5.5 1 10
  endloop
 endfacet
 facet normal 0.57735026918962584 -0.57735026918962584 0.57735026918962584
  outer loop
   vertex 6 1.5 10
   vertex 6.5 2 10
   vertex 6 2 10.5
  endloop
 endfacet
 facet normal -0.70710678118654746 0 -0.70710678118654746
  outer loop
   vertex 1 3 10.5
   vertex 1 2 10.5
   vertex 0.5 2 11
  endloop
 endfacet
 facet normal -0.70710678118654746 0 -0.70710678118654746
  outer loop
   vertex 0.5 3 11
   vertex 1 3 10.5
   vertex 0.5 2 11
  endloop
 endfacet
 facet normal -0.70710678118654746 0 -0.70710678118654746
  outer loop
   vertex 1.5 2 10
   vertex 1 3 10.5
   vertex 1.5 3 10
  endloop
 endfacet
 facet normal -0.70710678118654746 -0 -0.70710678118654746
  outer loop
   vertex 1 2 10.5
   vertex 1 3 10.5
   vertex 1.5 2 10
  endloop
 endfacet
 facet normal 0.57735026918962584 -0.57735026918962584 0.57735026918962584
  outer loop
   vertex 6 2 10.5
   vertex 6 2.5 11
   vertex 5.5 2 11
  endloop
 endfacet
 facet normal 0.57735026918962584 -0.57735026918962584 0.57735026918962584
  outer loop
   vertex 6 2.5 11
   vertex 6 2 10.5
   vertex 6.5 2 10
  endloop
 endfacet
 facet normal 0.57735026918962584 -0.57735026918962584 0.57735026918962584
  outer loop
   vertex 6 2.5 11
   vertex 6.5 2 10
   vertex 6.5 3 11
  endloop
 endfacet
 facet normal 1 0 0
  outer loop
   vertex 6.5 3 11
   vertex 6.5 2 10
   vertex 6.5 3 10
  endloop
 endfacet
 facet normal -0.57735026918962584 0.57735026918962584 -0.57735026918962584
  outer loop
   vertex 1 3 10.5
   vertex 0.5 3 11
   vertex 1 3.5 11
  endloop
 endfacet
 facet normal -0.57735026918962584 0.57735026918962584 -0.57735026918962584
  outer loop
   vertex 1 3.5 11
   vertex 1.5 3 10
   vertex 1 3 10.5
  endloop
 endfacet
 facet normal -0.57735026918962584 0.57735026918962584 -0.57735026918962584
  outer loop
   vertex 1 3.5 11
   vertex 1.5 4 11
   vertex 1.5 3 10
  endloop
 endfacet
 facet normal -1 0 0
  outer loop
   vertex 1.5 4 11
   vertex 1.5 4 10
   vertex 1.5 3 10
  endloop
 endfacet
 facet normal 1 0 0
  outer loop
   vertex 6.5 3 10
   vertex 6.5 4 10
   vertex 6.5 3 11
  endloop
 endfacet
 facet normal 1 0 -0
  outer loop
   vertex 6.5 3 11
   vertex 6.5 4 10
   vertex 6.5 4 11
  endloop
 endfacet
 facet normal -1 0 0
  outer loop
   vertex 1.5 4 10
   vertex 1.5 4 11
   vertex 1.5 5 10
  endloop
 endfacet
 facet normal -1 -0 -0
  outer loop
   vertex 1.5 4 11
   vertex 1.5 5 11
   vertex 1.5 5 10
  endloop
 endfacet
 facet normal 0.70710678118654746 0.70710678118654746 0
  outer loop
   vertex 6 4.5 10
   vertex 5.5 5 11
   vertex 6 4.5 11
  endloop
 endfacet
 facet normal 0.70710678118654746 0.70710678118654746 0
  outer loop
   vertex 5.5 5 10
   vertex 5.5 5 11
   vertex 6 4.5 10
  endloop
 endfacet
 facet normal 0.70710678118654746 0.70710678118654746 -0
  outer loop
   vertex 6.5 4 11
   vertex 6.5 4 10
   vertex 6 4.5 10
  endloop
 endfacet
 facet normal 0.70710678118654746 0.70710678118654746 0
  outer loop
   vertex 6 4.5 11
   vertex 6.5 4 11
   vertex 6 4.5 10
  endloop
 endfacet
 facet normal -0.70710678118654746 0.70710678118654746 0
  outer loop
   vertex 1.5 5 10
   vertex 1.5 5 11
   vertex 2 5.5 11
  endloop
 endfacet
 facet normal -0.70710678118654746 0.70710678118654746 0
  outer loop
   vertex 2 5.5 10
   vertex 1.5 5 10
   vertex 2 5.5 11
  endloop
 endfacet
 facet normal -0.57735026918962584 0.57735026918962584 0.57735026918962584
  outer loop
   vertex 2.5 6 10
   vertex 3 5.5 11
   vertex 3 6 10.5
  endloop
 endfacet
 facet normal -0.57735026918962584 0.57735026918962584 0.57735026918962584
  outer loop
   vertex 2.5 6 10
   vertex 2 5.5 10
   vertex 3 5.5 11
  endloop
 endfacet
 facet normal -0 1 0
  outer loop
   vertex 2 5.5 10
   vertex 2 5.5 11
   vertex 3 5.5 11
  endloop
 endfacet
 facet normal 0 0.70710678118654746 0.70710678118654746
  outer loop
   vertex 3 6 10.5
   vertex 4 5.5 11
   vertex 4 6 10.5
  endloop
 endfacet
 facet normal 0 0.70710678118654746 0.70710678118654746
  outer loop
   vertex 3 5.5 11
   vertex 4 5.5 11
   vertex 3 6 10.5
  endloop
 endfacet
 facet normal 0.57735026918962584 0.57735026918962584 0.57735026918962584
  outer loop
   vertex 4 6 10.5
   vertex 5 5.5 10
   vertex 4.5 6 10
  endloop
 endfacet
 facet normal 0.57735026918962584 0.57735026918962584 0.57735026918962584
  outer loop
   vertex 4 6 10.5
   vertex 4 5.5 11
   vertex 5 5.5 10
  endloop
 endfacet
 facet normal 0 1 0
  outer loop
   vertex 4 5.5 11
   vertex 5 5.5 11
   vertex 5 5.5 10
  endloop
 endfacet
 facet normal 0.70710678118654746 0.70710678118654746 -0
  outer loop
   vertex 5.5 5 11
   vertex 5.5 5 10
   vertex 5 5.5 10
  endloop
 endfacet
 facet normal 0.70710678118654746 0.70710678118654746 0
  outer loop
   vertex 5 5.5 11
   vertex 5.5 5 11
   vertex 5 5.5 10
  endloop
 endfacet
 facet normal -0.57735026918962584 0.57735026918962584 0.57735026918962584
  outer loop
   vertex 2.5 6 10
   vertex 3 6 10.5
   vertex 3 6.5 10
  endloop
 endfacet
 facet normal -0 0.70710678118654746 0.70710678118654746
  outer loop
   vertex 4 6.5 10
   vertex 3 6.5 10
   vertex 3 6 10.5
  endloop
 endfacet
 facet normal 0 0.70710678118654746 0.70710678118654746
  outer loop
   vertex 4 6 10.5
   vertex 4 6.5 10
   vertex 3 6 10.5
  endloop
 endfacet
 facet normal 0.57735026918962584 0.57735026918962584 0.57735026918962584
  outer loop
   vertex 4.5 6 10
   vertex 4 6.5 10
   vertex 4 6 10.5
  endloop
 endfacet
 facet normal -0.57735026918962584 -0.57735026918962584 0.57735026918962584
  outer loop
   vertex 2 0.5 11
   vertex 2 1 11.5
   vertex 1.5 1 11
  endloop
 endfacet
 facet normal 0 -0.70710678118654746 0.70710678118654746
  outer loop
   vertex 2 0.5 11
   vertex 3 0.5 11
   vertex 3 1 11.5
  endloop
 endfacet
 facet normal 0 -0.70710678118654746 0.70710678118654746
  outer loop
   vertex 2 1 11.5
   vertex 2 0.5 11
   vertex 3 1 11.5
  endloop
 endfacet
 facet normal 0 -0.70710678118654746 0.70710678118654746
  outer loop
   vertex 3 0.5 11
   vertex 4 0.5 11
   vertex 4 1 11.5
  endloop
 endfacet
 facet normal 0 -0.70710678118654746 0.70710678118654746
  outer loop
   vertex 3 1 11.5
   vertex 3 0.5 11
   vertex 4 1 11.5
  endloop
 endfacet
 facet normal 0.57735026918962584 -0.57735026918962584 0.57735026918962584
  outer loop
   vertex 4 0.5 11
   vertex 4.5 1 11
   vertex 4 1 11.5
  endloop
 endfacet
 facet normal -0.57735026918962584 -0.57735026918962584 0.57735026918962584
  outer loop
   vertex 1 1.5 11
   vertex 1 2 11.5
   vertex 0.5 2 11
  endloop
 endfacet
 facet normal -0.57735026918962584 -0.57735026918962584 0.57735026918962584
  outer loop
   vertex 1 1.5 11
   vertex 1.5 1 11
   vertex 2 1 11.5
  endloop
 endfacet
 facet normal -0.57735026918962584 -0.57735026918962584 0.57735026918962584
  outer loop
   vertex 1 1.5 11
   vertex 2 1 11.5
   vertex 1 2 11.5
  endloop
 endfacet
 facet normal 0 -0 1
  outer loop
   vertex 1 2 11.5
   vertex 2 1 11.5
   vertex 2 2 11.5
  endloop
 endfacet
 facet normal -0.57735026918962584 -0.57735026918962584 0.57735026918962584
  outer loop
   vertex 2.5 2 12
   vertex 3 1 11.5
   vertex 3 1.5 12
  endloop
 endfacet
 facet normal -0.57735026918962584 -0.57735026918962584 0.57735026918962584
  outer loop
   vertex 2.5 2 12
   vertex 2 2 11.5
   vertex 3 1 11.5
  endloop
 endfacet
 facet normal 0 0 1
  outer loop
   vertex 2 2 11.5
   vertex 2 1 11.5
   vertex 3 1 11.5
  endloop
 endfacet
 facet normal 0 -0.70710678118654746 0.70710678118654746
  outer loop
   vertex 4 1 11.5
   vertex 3 1.5 12
   vertex 3 1 11.5
  endloop
 endfacet
 facet normal 0 -0.70710678118654746 0.70710678118654746
  outer loop
   vertex 4 1.5 12
   vertex 3 1.5 12
   vertex 4 1 11.5
  endloop
 endfacet
 facet normal 0.57735026918962584 -0.57735026918962584 0.57735026918962584
  outer loop
   vertex 5 2 11.5
   vertex 4.5 2 12
   vertex 4 1.5 12
  endloop
 endfacet
 facet normal 0.57735026918962584 -0.57735026918962584 0.57735026918962584
  outer loop
   vertex 5 1.5 11
   vertex 5 2 11.5
   vertex 4 1.5 12
  endloop
 endfacet
 facet normal 0.57735026918962584 -0.57735026918962584 0.57735026918962584
  outer loop
   vertex 5 1.5 11
   vertex 4 1.5 12
   vertex 4 1 11.5
  endloop
 endfacet
 facet normal 0.57735026918962584 -0.57735026918962584 0.57735026918962584
  outer loop
   vertex 5 1.5 11
   vertex 4 1 11.5
   vertex 4.5 1 11
  endloop
 endfacet
 facet normal 0.57735026918962584 -0.57735026918962584 0.57735026918962584
  outer loop
   vertex 5 1.5 11
   vertex 5.5 2 11
   vertex 5 2 11.5
  endloop
 endfacet
 facet normal -0.70710678118654746 0 0.70710678118654746
  outer loop
   vertex 1 2 11.5
   vertex 1 3 11.5
   vertex 0.5 3 11
  endloop
 endfacet
 facet normal -0.70710678118654746 0 0.70710678118654746
  outer loop
   vertex 0.5 2 11
   vertex 1 2 11.5
   vertex 0.5 3 11
  endloop
 endfacet
 facet normal -0.57735026918962584 -0.57735026918962584 0.57735026918962584
  outer loop
   vertex 1.5 3 12
   vertex 2 2 11.5
   vertex 2 2.5 12
  endloop
 endfacet
 facet normal -0.57735026918962584 -0.57735026918962584 0.57735026918962584
  outer loop
   vertex 1.5 3 12
   vertex 1 3 11.5
   vertex 2 2 11.5
  endloop
 endfacet
 facet normal 0 0 1
  outer loop
   vertex 1 3 11.5
   vertex 1 2 11.5
   vertex 2 2 11.5
  endloop
 endfacet
 facet normal -0.57735026918962584 -0.57735026918962584 0.57735026918962584
  outer loop
   vertex 2.5 2 12
   vertex 2 2.5 12
   vertex 2 2 11.5
  endloop
 endfacet
 facet normal 0.57735026918962584 -0.57735026918962584 0.57735026918962584
  outer loop
   vertex 5 2 11.5
   vertex 5 2.5 12
   vertex 4.5 2 12
  endloop
 endfacet
 facet normal 0.57735026918962584 -0.57735026918962584 0.57735026918962584
  outer loop
   vertex 6 3 11.5
   vertex 5.5 3 12
   vertex 5 2.5 12
  endloop
 endfacet
 facet normal 0.57735026918962584 -0.57735026918962584 0.57735026918962584
  outer loop
   vertex 6 2.5 11
   vertex 6 3 11.5
   vertex 5 2.5 12
  endloop
 endfacet
 facet normal 0.57735026918962584 -0.57735026918962584 0.57735026918962584
  outer loop
   vertex 6 2.5 11
   vertex 5 2.5 12
   vertex 5 2 11.5
  endloop
 endfacet
 facet normal 0.57735026918962584 -0.57735026918962584 0.57735026918962584
  outer loop
   vertex 6 2.5 11
   vertex 5 2 11.5
   vertex 5.5 2 11
  endloop
 endfacet
 facet normal 0.57735026918962584 -0.57735026918962584 0.57735026918962584
  outer loop
   vertex 6 2.5 11
   vertex 6.5 3 11
   vertex 6 3 11.5
  endloop
 endfacet
 facet normal -0.57735026918962584 0.57735026918962584 0.57735026918962584
  outer loop
   vertex 0.5 3 11
   vertex 1 3 11.5
   vertex 1 3.5 11
  endloop
 endfacet
 facet normal -0.57735026918962584 0.57735026918962584 0.57735026918962584
  outer loop
   vertex 1 3 11.5
   vertex 1.5 4 11
   vertex 1 3.5 11
  endloop
 endfacet
 facet normal -0.57735026918962584 0.57735026918962584 0.57735026918962584
  outer loop
   vertex 1 3 11.5
   vertex 1.5 3 12
   vertex 1.5 4 11
  endloop
 endfacet
 facet normal -1 -0 -0
  outer loop
   vertex 1.5 3 12
   vertex 1.5 4 12
   vertex 1.5 4 11
  endloop
 endfacet
 facet normal 0.70710678118654746 0 0.70710678118654746
  outer loop
   vertex 6 4 11.5
   vertex 5.5 3 12
   vertex 6 3 11.5
  endloop
 endfacet
 facet normal 0.70710678118654746 -0 0.70710678118654746
  outer loop
   vertex 5.5 4 12
   vertex 5.5 3 12
   vertex 6 4 11.5
  endloop
 endfacet
 facet normal 0.70710678118654746 0 0.70710678118654746
  outer loop
   vertex 6.5 3 11
   vertex 6.5 4 11
   vertex 6 4 11.5
  endloop
 endfacet
 facet normal 0.70710678118654746 0 0.70710678118654746
  outer loop
   vertex 6 3 11.5
   vertex 6.5 3 11
   vertex 6 4 11.5
  endloop
 endfacet
 facet normal -0.57735026918962584 0.57735026918962584 0.57735026918962584
  outer loop
   vertex 2 4.5 12
   vertex 2 5 11.5
   vertex 1.5 5 11
  endloop
 endfacet
 facet normal -0.57735026918962584 0.57735026918962584 0.57735026918962584
  outer loop
   vertex 2 4.5 12
   vertex 1.5 5 11
   vertex 1.5 4 12
  endloop
 endfacet
 facet normal -1 0 0
  outer loop
   vertex 1.5 4 12
   vertex 1.5 5 11
   vertex 1.5 4 11
  endloop
 endfacet
 facet normal -0.57735026918962584 0.57735026918962584 0.57735026918962584
  outer loop
   vertex 2 4.5 12
   vertex 2.5 5 12
   vertex 2 5 11.5
  endloop
 endfacet
 facet normal 0.57735026918962584 0.57735026918962584 0.57735026918962584
  outer loop
   vertex 6 4.5 11
   vertex 5.5 4 12
   vertex 6 4 11.5
  endloop
 endfacet
 facet normal 0.57735026918962584 0.57735026918962584 0.57735026918962584
  outer loop
   vertex 6 4.5 11
   vertex 5.5 5 11
   vertex 5.5 4 12
  endloop
 endfacet
 facet normal 1 0 0
  outer loop
   vertex 5.5 5 11
   vertex 5.5 5 12
   vertex 5.5 4 12
  endloop
 endfacet
 facet normal 0.57735026918962584 0.57735026918962584 0.57735026918962584
  outer loop
   vertex 6.5 4 11
   vertex 6 4.5 11
   vertex 6 4 11.5
  endloop
 endfacet
 facet normal -0.57735026918962584 0.57735026918962584 0.57735026918962584
  outer loop
   vertex 1.5 5 11
   vertex 2 5 11.5
   vertex 2 5.5 11
  endloop
 endfacet
 facet normal -0.57735026918962584 0.57735026918962584 0.57735026918962584
  outer loop
   vertex 2 5 11.5
   vertex 2.5 5 12
   vertex 3 5.5 12
  endloop
 endfacet
 facet normal -0.57735026918962584 0.57735026918962584 0.57735026918962584
  outer loop
   vertex 2 5 11.5
   vertex 3 5.5 12
   vertex 2 5.5 11
  endloop
 endfacet
 facet normal 0 1 0
  outer loop
   vertex 2 5.5 11
   vertex 3 5.5 12
   vertex 3 5.5 11
  endloop
 endfacet
 facet normal 0 1 0
  outer loop
   vertex 4 5.5 11
   vertex 3 5.5 11
   vertex 4 5.5 12
  endloop
 endfacet
 facet normal -0 1 0
  outer loop
   vertex 3 5.5 11
   vertex 3 5.5 12
   vertex 4 5.5 12
  endloop
 endfacet
 facet normal 0 1 0
  outer loop
   vertex 5 5.5 11
   vertex 4 5.5 11
   vertex 5 5.5 12
  endloop
 endfacet
 facet normal -0 1 0
  outer loop
   vertex 4 5.5 11
   vertex 4 5.5 12
   vertex 5 5.5 12
  endloop
 endfacet
 facet normal 0.70710678118654746 0.70710678118654746 -0
  outer loop
   vertex 5.5 5 12
   vertex 5.5 5 11
   vertex 5 5.5 11
  endloop
 endfacet
 facet normal 0.70710678118654746 0.70710678118654746 0
  outer loop
   vertex 5 5.5 12
   vertex 5.5 5 12
   vertex 5 5.5 11
  endloop
 endfacet
 facet normal -0.57735026918962584 -0.57735026918962584 0.57735026918962584
  outer loop
   vertex 3 1.5 12
   vertex 3 2 12.5
   vertex 2.5 2 12
  endloop
 endfacet
 facet normal 0 -0.70710678118654746 0.70710678118654746
  outer loop
   vertex 3 1.5 12
   vertex 4 1.5 12
   vertex 4 2 12.5
  endloop
 endfacet
 facet normal 0 -0.70710678118654746 0.70710678118654746
  outer loop
   vertex 3 2 12.5
   vertex 3 1.5 12
   vertex 4 2 12.5
  endloop
 endfacet
 facet normal 0.57735026918962584 -0.57735026918962584 0.57735026918962584
  outer loop
   vertex 4 1.5 12
   vertex 4.5 2 12
   vertex 4 2 12.5
  endloop
 endfacet
 facet normal -0.57735026918962584 -0.57735026918962584 0.57735026918962584
  outer loop
   vertex 2 2.5 12
   vertex 2 3 12.5
   vertex 1.5 3 12
  endloop
 endfacet
 facet normal -0.57735026918962584 -0.57735026918962584 0.57735026918962584
  outer loop
   vertex 2 2.5 12
   vertex 2.5 3 13
   vertex 2 3 12.5
  endloop
 endfacet
 facet normal -0.57735026918962584 -0.57735026918962584 0.57735026918962584
  outer loop
   vertex 2.5 2 12
   vertex 2.5 3 13
   vertex 2 2.5 12
  endloop
 endfacet
 facet normal -0.57735026918962584 -0.57735026918962584 0.57735026918962584
  outer loop
   vertex 2.5 2 12
   vertex 3 2.5 13
   vertex 2.5 3 13
  endloop
 endfacet
 facet normal -0.57735026918962584 -0.57735026918962584 0.57735026918962584
  outer loop
   vertex 2.5 2 12
   vertex 3 2 12.5
   vertex 3 2.5 13
  endloop
 endfacet
 facet normal 0.57735026918962584 -0.57735026918962584 0.57735026918962584
  outer loop
   vertex 3 2.5 13
   vertex 4 3 12.5
   vertex 3.5 3 13
  endloop
 endfacet
 facet normal 0.57735026918962584 -0.57735026918962584 0.57735026918962584
  outer loop
   vertex 3 2.5 13
   vertex 3 2 12.5
   vertex 4 3 12.5
  endloop
 endfacet
 facet normal 0 -0 1
  outer loop
   vertex 3 2 12.5
   vertex 4 2 12.5
   vertex 4 3 12.5
  endloop
 endfacet
 facet normal 0.57735026918962584 -0.57735026918962584 0.57735026918962584
  outer loop
   vertex 4.5 2 12
   vertex 5 2.5 12
   vertex 5 3 12.5
  endloop
 endfacet
 facet normal 0.57735026918962584 -0.57735026918962584 0.57735026918962584
  outer loop
   vertex 4.5 2 12
   vertex 5 3 12.5
   vertex 4 2 12.5
  endloop
 endfacet
 facet normal 0 0 1
  outer loop
   vertex 4 2 12.5
   vertex 5 3 12.5
   vertex 4 3 12.5
  endloop
 endfacet
 facet normal 0.57735026918962584 -0.57735026918962584 0.57735026918962584
  outer loop
   vertex 5 2.5 12
   vertex 5.5 3 12
   vertex 5 3 12.5
  endloop
 endfacet
 facet normal -0.57735026918962584 -0.57735026918962584 0.57735026918962584
  outer loop
   vertex 2 3 12.5
   vertex 2 3.5 13
   vertex 1.5 4 13
  endloop
 endfacet
 facet normal -0.57735026918962584 -0.57735026918962584 0.57735026918962584
  outer loop
   vertex 2 3 12.5
   vertex 1.5 4 13
   vertex 1.5 3 12
  endloop
 endfacet
 facet normal -1 0 -0
  outer loop
   vertex 1.5 3 12
   vertex 1.5 4 13
   vertex 1.5 4 12
  endloop
 endfacet
 facet normal -0.57735026918962584 -0.57735026918962584 0.57735026918962584
  outer loop
   vertex 2.5 3 13
   vertex 2 3.5 13
   vertex 2 3 12.5
  endloop
 endfacet
 facet normal 0.70710678118654746 0 0.70710678118654746
  outer loop
   vertex 4 4 12.5
   vertex 3.5 3 13
   vertex 4 3 12.5
  endloop
 endfacet
 facet normal 0.70710678118654746 -0 0.70710678118654746
  outer loop
   vertex 3.5 4 13
   vertex 3.5 3 13
   vertex 4 4 12.5
  endloop
 endfacet
 facet normal 0 0 1
  outer loop
   vertex 5 3 12.5
   vertex 5 4 12.5
   vertex 4 3 12.5
  endloop
 endfacet
 facet normal -0 0 1
  outer loop
   vertex 5 4 12.5
   vertex 4 4 12.5
   vertex 4 3 12.5
  endloop
 endfacet
 facet normal 0.70710678118654746 0 0.70710678118654746
  outer loop
   vertex 5.5 3 12
   vertex 5.5 4 12
   vertex 5 4 12.5
  endloop
 endfacet
 facet normal 0.70710678118654746 0 0.70710678118654746
  outer loop
   vertex 5 3 12.5
   vertex 5.5 3 12
   vertex 5 4 12.5
  endloop
 endfacet
 facet normal -0.70710678118654746 0.70710678118654746 0
  outer loop
   vertex 1.5 4 12
   vertex 1.5 4 13
   vertex 2 4.5 13
  endloop
 endfacet
 facet normal -0.70710678118654746 0.70710678118654746 0
  outer loop
   vertex 2 4.5 12
   vertex 1.5 4 12
   vertex 2 4.5 13
  endloop
 endfacet
 facet normal -0.57735026918962584 0.57735026918962584 0.57735026918962584
  outer loop
   vertex 2.5 5 12
   vertex 3 4.5 13
   vertex 3 5 12.5
  endloop
 endfacet
 facet normal -0.57735026918962584 0.57735026918962584 0.57735026918962584
  outer loop
   vertex 2.5 5 12
   vertex 2 4.5 12
   vertex 3 4.5 13
  endloop
 endfacet
 facet normal -0 1 0
  outer loop
   vertex 2 4.5 12
   vertex 2 4.5 13
   vertex 3 4.5 13
  endloop
 endfacet
 facet normal 0.57735026918962584 0.57735026918962584 0.57735026918962584
  outer loop
   vertex 3.5 4 13
   vertex 3 5 12.5
   vertex 3 4.5 13
  endloop
 endfacet
 facet normal 0.57735026918962584 0.57735026918962584 0.57735026918962584
  outer loop
   vertex 3.5 4 13
   vertex 4 4 12.5
   vertex 3 5 12.5
  endloop
 endfacet
 facet normal 0 0 1
  outer loop
   vertex 4 4 12.5
   vertex 4 5 12.5
   vertex 3 5 12.5
  endloop
 endfacet
 facet normal 0 0 1
  outer loop
   vertex 5 4 12.5
   vertex 5 5 12.5
   vertex 4 4 12.5
  endloop
 endfacet
 facet normal -0 0 1
  outer loop
   vertex 5 5 12.5
   vertex 4 5 12.5
   vertex 4 4 12.5
  endloop
 endfacet
 facet normal 0.70710678118654746 0 0.70710678118654746
  outer loop
   vertex 5.5 4 12
   vertex 5.5 5 12
   vertex 5 5 12.5
  endloop
 endfacet
 facet normal 0.70710678118654746 0 0.70710678118654746
  outer loop
   vertex 5 4 12.5
   vertex 5.5 4 12
   vertex 5 5 12.5
  endloop
 endfacet
 facet normal -0.57735026918962584 0.57735026918962584 0.57735026918962584
  outer loop
   vertex 2.5 5 12
   vertex 3 5 12.5
   vertex 3 5.5 12
  endloop
 endfacet
 facet normal -0 0.70710678118654746 0.70710678118654746
  outer loop
   vertex 4 5.5 12
   vertex 3 5.5 12
   vertex 3 5 12.5
  endloop
 endfacet
 facet normal 0 0.70710678118654746 0.70710678118654746
  outer loop
   vertex 4 5 12.5
   vertex 4 5.5 12
   vertex 3 5 12.5
  endloop
 endfacet
 facet normal -0 0.70710678118654746 0.70710678118654746
  outer loop
   vertex 5 5.5 12
   vertex 4 5.5 12
   vertex 4 5 12.5
  endloop
 endfacet
 facet normal 0 0.70710678118654746 0.70710678118654746
  outer loop
   vertex 5 5 12.5
   vertex 5 5.5 12
   vertex 4 5 12.5
  endloop
 endfacet
 facet normal 0.57735026918962584 0.57735026918962584 0.57735026918962584
  outer loop
   vertex 5.5 5 12
   vertex 5 5.5 12
   vertex 5 5 12.5
  endloop
 endfacet
 facet normal -0.57735026918962584 -0.57735026918962584 0.57735026918962584
  outer loop
   vertex 3 2.5 13
   vertex 3 3 13.5
   vertex 2.5 3 13
  endloop
 endfacet
 facet normal 0.57735026918962584 -0.57735026918962584 0.57735026918962584
  outer loop
   vertex 3 2.5 13
   vertex 3.5 3 13
   vertex 3 3 13.5
  endloop
 endfacet
 facet normal -0.57735026918962584 -0.57735026918962584 0.57735026918962584
  outer loop
   vertex 2 3.5 13
   vertex 2 4 13.5
   vertex 1.5 4 13
  endloop
 endfacet
 facet normal -0.57735026918962584 -0.57735026918962584 0.57735026918962584
  outer loop
   vertex 2 3.5 13
   vertex 2.5 3 13
   vertex 3 3 13.5
  endloop
 endfacet
 facet normal -0.57735026918962584 -0.57735026918962584 0.57735026918962584
  outer loop
   vertex 2 3.5 13
   vertex 3 3 13.5
   vertex 2 4 13.5
  endloop
 endfacet
 facet normal 0 -0 1
  outer loop
   vertex 2 4 13.5
   vertex 3 3 13.5
   vertex 3 4 13.5
  endloop
 endfacet
 facet normal 0.70710678118654746 0 0.70710678118654746
  outer loop
   vertex 3.5 3 13
   vertex 3.5 4 13
   vertex 3 4 13.5
  endloop
 endfacet
 facet normal 0.70710678118654746 0 0.70710678118654746
  outer loop
   vertex 3 3 13.5
   vertex 3.5 3 13
   vertex 3 4 13.5
  endloop
 endfacet
 facet normal -0.57735026918962584 0.57735026918962584 0.57735026918962584
  outer loop
   vertex 1.5 4 13
   vertex 2 4 13.5
   vertex 2 4.5 13
  endloop
 endfacet
 facet normal -0 0.70710678118654746 0.70710678118654746
  outer loop
   vertex 3 4.5 13
   vertex 2 4.5 13
   vertex 2 4 13.5
  endloop
 endfacet
 facet normal 0 0.70710678118654746 0.70710678118654746
  outer loop
   vertex 3 4 13.5
   vertex 3 4.5 13
   vertex 2 4 13.5
  endloop
 endfacet
 facet normal 0.57735026918962584 0.57735026918962584 0.57735026918962584
  outer loop
   vertex 3.5 4 13
   vertex 3 4.5 13
   vertex 3 4 13.5
  endloop
 endfacet
endsolid
