solid Visualization Toolkit generated SLA File
 facet normal -0.57735026918962584 -0.57735026918962584 -0.57735026918962584
  outer loop
   vertex 2 3 0.5
   vertex 2 2.5 1
   vertex 1.5 3 1
  endloop
 endfacet
 facet normal -0 -0.70710678118654746 -0.70710678118654746
  outer loop
   vertex 2 3 0.5
   vertex 3 3 0.5
   vertex 3 2.5 1
  endloop
 endfacet
 facet normal 0 -0.70710678118654746 -0.70710678118654746
  outer loop
   vertex 2 2.5 1
   vertex 2 3 0.5
   vertex 3 2.5 1
  endloop
 endfacet
 facet normal 0.57735026918962584 -0.57735026918962584 -0.57735026918962584
  outer loop
   vertex 3 2.5 1
   vertex 3 3 0.5
   vertex 3.5 3 1
  endloop
 endfacet
 facet normal -0.70710678118654746 0 -0.70710678118654746
  outer loop
   vertex 2 4 0.5
   vertex 2 3 0.5
   vertex 1.5 3 1
  endloop
 endfacet
 facet normal -0.70710678118654746 0 -0.70710678118654746
  outer loop
   vertex 1.5 4 1
   vertex 2 4 0.5
   vertex 1.5 3 1
  endloop
 endfacet
 facet normal 0 0 -1
  outer loop
   vertex 3 3 0.5
   vertex 2 3 0.5
   vertex 3 4 0.5
  endloop
 endfacet
 facet normal 0 0 -1
  outer loop
   vertex 3 4 0.5
   vertex 2 3 0.5
   vertex 2 4 0.5
  endloop
 endfacet
 facet normal 0.57735026918962584 -0.57735026918962584 -0.57735026918962584
  outer loop
   vertex 4 3.5 1
   vertex 3.5 3 1
   vertex 3 3 0.5
  endloop
 endfacet
 facet normal 0.57735026918962584 -0.57735026918962584 -0.57735026918962584
  outer loop
   vertex 4 3.5 1
   vertex 3 3 0.5
   vertex 4 4 0.5
  endloop
 endfacet
 facet normal 0 0 -1
  outer loop
   vertex 4 4 0.5
   vertex 3 3 0.5
   vertex 3 4 0.5
  endloop
 endfacet
 facet normal 0.57735026918962584 -0.57735026918962584 -0.57735026918962584
  outer loop
   vertex 4 3.5 1
   vertex 4 4 0.5
   vertex 4.5 4 1
  endloop
 endfacet
 facet normal -0.70710678118654746 0 -0.70710678118654746
  outer loop
   vertex 2 5 0.5
   vertex 2 4 0.5
   vertex 1.5 4 1
  endloop
 endfacet
 facet normal -0.70710678118654746 0 -0.70710678118654746
  outer loop
   vertex 1.5 5 1
   vertex 2 5 0.5
   vertex 1.5 4 1
  endloop
 endfacet
 facet normal 0 0 -1
  outer loop
   vertex 3 4 0.5
   vertex 2 4 0.5
   vertex 3 5 0.5
  endloop
 endfacet
 facet normal 0 0 -1
  outer loop
   vertex 3 5 0.5
   vertex 2 4 0.5
   vertex 2 5 0.5
  endloop
 endfacet
 facet normal 0.57735026918962584 0.57735026918962584 -0.57735026918962584
  outer loop
   vertex 3.5 5 1
   vertex 4 4.5 1
   vertex 4 4 0.5
  endloop
 endfacet
 facet normal 0.57735026918962584 0.57735026918962584 -0.57735026918962584
  outer loop
   vertex 3.5 5 1
   vertex 4 4 0.5
   vertex 3 5 0.5
  endloop
 endfacet
 facet normal 0 0 -1
  outer loop
   vertex 3 5 0.5
   vertex 4 4 0.5
   vertex 3 4 0.5
  endloop
 endfacet
 facet normal 0.57735026918962584 0.57735026918962584 -0.57735026918962584
  outer loop
   vertex 4.5 4 1
   vertex 4 4 0.5
   vertex 4 4.5 1
  endloop
 endfacet
 facet normal -0.57735026918962584 0.57735026918962584 -0.57735026918962584
  outer loop
   vertex 2 5 0.5
   vertex 1.5 5 1
   vertex 2 5.5 1
  endloop
 endfacet
 facet normal 0 0.70710678118654746 -0.70710678118654746
  outer loop
   vertex 3 5 0.5
   vertex 2 5 0.5
   vertex 2 5.5 1
  endloop
 endfacet
 facet normal 0 0.70710678118654746 -0.70710678118654746
  outer loop
   vertex 3 5.5 1
   vertex 3 5 0.5
   vertex 2 5.5 1
  endloop
 endfacet
 facet normal 0.57735026918962584 0.57735026918962584 -0.57735026918962584
  outer loop
   vertex 3.5 5 1
   vertex 3 5 0.5
   vertex 3 5.5 1
  endloop
 endfacet
 facet normal -0.57735026918962584 -0.57735026918962584 -0.57735026918962584
  outer loop
   vertex 2 2 1.5
   vertex 2 1.5 2
   vertex 1.5 2 2
  endloop
 endfacet
 facet normal -0 -0.70710678118654746 -0.70710678118654746
  outer loop
   vertex 2 2 1.5
   vertex 3 2 1.5
   vertex 3 1.5 2
  endloop
 endfacet
 facet normal 0 -0.70710678118654746 -0.70710678118654746
  outer loop
   vertex 2 1.5 2
   vertex 2 2 1.5
   vertex 3 1.5 2
  endloop
 endfacet
 facet normal -0 -0.70710678118654746 -0.70710678118654746
  outer loop
   vertex 3 2 1.5
   vertex 4 2 1.5
   vertex 4 1.5 2
  endloop
 endfacet
 facet normal 0 -0.70710678118654746 -0.70710678118654746
  outer loop
   vertex 3 1.5 2
   vertex 3 2 1.5
   vertex 4 1.5 2
  endloop
 endfacet
 facet normal 0.57735026918962584 -0.57735026918962584 -0.57735026918962584
  outer loop
   vertex 4 1.5 2
   vertex 4 2 1.5
   vertex 4.5 2 2
  endloop
 endfacet
 facet normal -0.57735026918962584 -0.57735026918962584 -0.57735026918962584
  outer loop
   vertex 1 3 1.5
   vertex 1 2.5 2
   vertex 0.5 3 2
  endloop
 endfacet
 facet normal -0.57735026918962584 -0.57735026918962584 -0.57735026918962584
  outer loop
   vertex 1.5 2 2
   vertex 1 2.5 2
   vertex 1 3 1.5
  endloop
 endfacet
 facet normal -0.57735026918962584 -0.57735026918962584 -0.57735026918962584
  outer loop
   vertex 2 2 1.5
   vertex 1.5 2 2
   vertex 1 3 1.5
  endloop
 endfacet
 facet normal -0.57735026918962584 -0.57735026918962584 -0.57735026918962584
  outer loop
   vertex 2 2 1.5
   vertex 1 3 1.5
   vertex 1.5 3 1
  endloop
 endfacet
 facet normal -0.57735026918962584 -0.57735026918962584 -0.57735026918962584
  outer loop
   vertex 2 2 1.5
   vertex 1.5 3 1
   vertex 2 2.5 1
  endloop
 endfacet
 facet normal 0 -0.70710678118654746 -0.70710678118654746
  outer loop
   vertex 3 2.5 1
   vertex 2 2 1.5
   vertex 2 2.5 1
  endloop
 endfacet
 facet normal 0 -0.70710678118654746 -0.70710678118654746
  outer loop
   vertex 3 2 1.5
   vertex 2 2 1.5
   vertex 3 2.5 1
  endloop
 endfacet
 facet normal 0.57735026918962584 -0.57735026918962584 -0.57735026918962584
  outer loop
   vertex 3.5 3 1
   vertex 3 2 1.5
   vertex 3 2.5 1
  endloop
 endfacet
 facet normal 0.57735026918962584 -0.57735026918962584 -0.57735026918962584
  outer loop
   vertex 3.5 3 1
   vertex 4 3 1.5
   vertex 3 2 1.5
  endloop
 endfacet
 facet normal 0 0 -1
  outer loop
   vertex 4 3 1.5
   vertex 4 2 1.5
   vertex 3 2 1.5
  endloop
 endfacet
 facet normal 0.57735026918962584 -0.57735026918962584 -0.57735026918962584
  outer loop
   vertex 5 2.5 2
   vertex 4.5 2 2
   vertex 4 2 1.5
  endloop
 endfacet
 facet normal 0.57735026918962584 -0.57735026918962584 -0.57735026918962584
  outer loop
   vertex 5 2.5 2
   vertex 4 2 1.5
   vertex 5 3 1.5
  endloop
 endfacet
 facet normal 0 0 -1
  outer loop
   vertex 5 3 1.5
   vertex 4 2 1.5
   vertex 4 3 1.5
  endloop
 endfacet
 facet normal 0.57735026918962584 -0.57735026918962584 -0.57735026918962584
  outer loop
   vertex 5 2.5 2
   vertex 5 3 1.5
   vertex 5.5 3 2
  endloop
 endfacet
 facet normal -0.70710678118654746 0 -0.70710678118654746
  outer loop
   vertex 1 4 1.5
   vertex 1 3 1.5
   vertex 0.5 3 2
  endloop
 endfacet
 facet normal -0.70710678118654746 0 -0.70710678118654746
  outer loop
   vertex 0.5 4 2
   vertex 1 4 1.5
   vertex 0.5 3 2
  endloop
 endfacet
 facet normal -0.70710678118654746 0 -0.70710678118654746
  outer loop
   vertex 1.5 3 1
   vertex 1 4 1.5
   vertex 1.5 4 1
  endloop
 endfacet
 facet normal -0.70710678118654746 -0 -0.70710678118654746
  outer loop
   vertex 1 3 1.5
   vertex 1 4 1.5
   vertex 1.5 3 1
  endloop
 endfacet
 facet normal 0.57735026918962584 -0.57735026918962584 -0.57735026918962584
  outer loop
   vertex 3.5 3 1
   vertex 4 3.5 1
   vertex 4 3 1.5
  endloop
 endfacet
 facet normal 0.57735026918962584 -0.57735026918962584 -0.57735026918962584
  outer loop
   vertex 4.5 4 1
   vertex 4 3 1.5
   vertex 4 3.5 1
  endloop
 endfacet
 facet normal 0.57735026918962584 -0.57735026918962584 -0.57735026918962584
  outer loop
   vertex 4.5 4 1
   vertex 5 4 1.5
   vertex 4 3 1.5
  endloop
 endfacet
 facet normal 0 0 -1
  outer loop
   vertex 5 4 1.5
   vertex 5 3 1.5
   vertex 4 3 1.5
  endloop
 endfacet
 facet normal 0.70710678118654746 0 -0.70710678118654746
  outer loop
   vertex 5.5 4 2
   vertex 5.5 3 2
   vertex 5 3 1.5
  endloop
 endfacet
 facet normal 0.70710678118654746 0 -0.70710678118654746
  outer loop
   vertex 5 4 1.5
   vertex 5.5 4 2
   vertex 5 3 1.5
  endloop
 endfacet
 facet normal -0.57735026918962584 0.57735026918962584 -0.57735026918962584
  outer loop
   vertex 1 4 1.5
   vertex 0.5 4 2
   vertex 1 4.5 2
  endloop
 endfacet
 facet normal -0.57735026918962584 0.57735026918962584 -0.57735026918962584
  outer loop
   vertex 1 4.5 2
   vertex 1.5 4 1
   vertex 1 4 1.5
  endloop
 endfacet
 facet normal -0.57735026918962584 0.57735026918962584 -0.57735026918962584
  outer loop
   vertex 1 4.5 2
   vertex 1.5 5 2
   vertex 1.5 4 1
  endloop
 endfacet
 facet normal -1 0 0
  outer loop
   vertex 1.5 5 2
   vertex 1.5 5 1
   vertex 1.5 4 1
  endloop
 endfacet
 facet normal 0.57735026918962584 0.57735026918962584 -0.57735026918962584
  outer loop
   vertex 4 4.5 1
   vertex 3.5 5 1
   vertex 4 5 1.5
  endloop
 endfacet
 facet normal 0.57735026918962584 0.57735026918962584 -0.57735026918962584
  outer loop
   vertex 4 4.5 1
   vertex 4 5 1.5
   vertex 4.5 5 2
  endloop
 endfacet
 facet normal 0.57735026918962584 0.57735026918962584 -0.57735026918962584
  outer loop
   vertex 4.5 4 1
   vertex 4 4.5 1
   vertex 4.5 5 2
  endloop
 endfacet
 facet normal 0.57735026918962584 0.57735026918962584 -0.57735026918962584
  outer loop
   vertex 4.5 4 1
   vertex 4.5 5 2
   vertex 5 4.5 2
  endloop
 endfacet
 facet normal 0.57735026918962584 0.57735026918962584 -0.57735026918962584
  outer loop
   vertex 4.5 4 1
   vertex 5 4.5 2
   vertex 5 4 1.5
  endloop
 endfacet
 facet normal 0.57735026918962584 0.57735026918962584 -0.57735026918962584
  outer loop
   vertex 5.5 4 2
   vertex 5 4 1.5
   vertex 5 4.5 2
  endloop
 endfacet
 facet normal -0.70710678118654746 0.70710678118654746 0
  outer loop
   vertex 1.5 5 1
   vertex 1.5 5 2
   vertex 2 5.5 2
  endloop
 endfacet
 facet normal -0.70710678118654746 0.70710678118654746 0
  outer loop
   vertex 2 5.5 1
   vertex 1.5 5 1
   vertex 2 5.5 2
  endloop
 endfacet
 facet normal 0 1 0
  outer loop
   vertex 3 5.5 1
   vertex 2 5.5 1
   vertex 3 5.5 2
  endloop
 endfacet
 facet normal -0 1 0
  outer loop
   vertex 2 5.5 1
   vertex 2 5.5 2
   vertex 3 5.5 2
  endloop
 endfacet
 facet normal 0.57735026918962584 0.57735026918962584 -0.57735026918962584
  outer loop
   vertex 4 5 1.5
   vertex 3.5 5 1
   vertex 3 5.5 1
  endloop
 endfacet
 facet normal 0.57735026918962584 0.57735026918962584 -0.57735026918962584
  outer loop
   vertex 4 5 1.5
   vertex 3 5.5 1
   vertex 4 5.5 2
  endloop
 endfacet
 facet normal 0 1 0
  outer loop
   vertex 4 5.5 2
   vertex 3 5.5 1
   vertex 3 5.5 2
  endloop
 endfacet
 facet normal 0.57735026918962584 0.57735026918962584 -0.57735026918962584
  outer loop
   vertex 4.5 5 2
   vertex 4 5 1.5
   vertex 4 5.5 2
  endloop
 endfacet
 facet normal -0.70710678118654746 -0.70710678118654746 -0
  outer loop
   vertex 2 1.5 2
   vertex 2 1.5 3
   vertex 1.5 2 3
  endloop
 endfacet
 facet normal -0.70710678118654746 -0.70710678118654746 0
  outer loop
   vertex 1.5 2 2
   vertex 2 1.5 2
   vertex 1.5 2 3
  endloop
 endfacet
 facet normal 0 -1 -0
  outer loop
   vertex 3 1.5 2
   vertex 3 1.5 3
   vertex 2 1.5 2
  endloop
 endfacet
 facet normal -0 -1 0
  outer loop
   vertex 2 1.5 2
   vertex 3 1.5 3
   vertex 2 1.5 3
  endloop
 endfacet
 facet normal 0 -1 -0
  outer loop
   vertex 4 1.5 2
   vertex 4 1.5 3
   vertex 3 1.5 2
  endloop
 endfacet
 facet normal -0 -1 0
  outer loop
   vertex 3 1.5 2
   vertex 4 1.5 3
   vertex 3 1.5 3
  endloop
 endfacet
 facet normal 0.57735026918962584 -0.57735026918962584 -0.57735026918962584
  outer loop
   vertex 4.5 2 2
   vertex 5 2 2.5
   vertex 5 1.5 3
  endloop
 endfacet
 facet normal 0.57735026918962584 -0.57735026918962584 -0.57735026918962584
  outer loop
   vertex 4.5 2 2
   vertex 5 1.5 3
   vertex 4 1.5 2
  endloop
 endfacet
 facet normal -0 -1 0
  outer loop
   vertex 4 1.5 2
   vertex 5 1.5 3
   vertex 4 1.5 3
  endloop
 endfacet
 facet normal 0.57735026918962584 -0.57735026918962584 -0.57735026918962584
  outer loop
   vertex 5 1.5 3
   vertex 5 2 2.5
   vertex 5.5 2 3
  endloop
 endfacet
 facet normal -0.70710678118654746 -0.70710678118654746 -0
  outer loop
   vertex 1 2.5 2
   vertex 1 2.5 3
   vertex 0.5 3 3
  endloop
 endfacet
 facet normal -0.70710678118654746 -0.70710678118654746 0
  outer loop
   vertex 0.5 3 2
   vertex 1 2.5 2
   vertex 0.5 3 3
  endloop
 endfacet
 facet normal -0.70710678118654746 -0.70710678118654746 0
  outer loop
   vertex 1.5 2 3
   vertex 1 2.5 2
   vertex 1.5 2 2
  endloop
 endfacet
 facet normal -0.70710678118654746 -0.70710678118654746 0
  outer loop
   vertex 1 2.5 3
   vertex 1 2.5 2
   vertex 1.5 2 3
  endloop
 endfacet
 facet normal 0.57735026918962584 -0.57735026918962584 -0.57735026918962584
  outer loop
   vertex 4.5 2 2
   vertex 5 2.5 2
   vertex 5 2 2.5
  endloop
 endfacet
 facet normal 0.57735026918962584 -0.57735026918962584 -0.57735026918962584
  outer loop
   vertex 5.5 3 2
   vertex 6 3 2.5
   vertex 6 2.5 3
  endloop
 endfacet
 facet normal 0.57735026918962584 -0.57735026918962584 -0.57735026918962584
  outer loop
   vertex 5 2.5 2
   vertex 5.5 3 2
   vertex 6 2.5 3
  endloop
 endfacet
 facet normal 0.57735026918962584 -0.57735026918962584 -0.57735026918962584
  outer loop
   vertex 5 2.5 2
   vertex 6 2.5 3
   vertex 5.5 2 3
  endloop
 endfacet
 facet normal 0.57735026918962584 -0.57735026918962584 -0.57735026918962584
  outer loop
   vertex 5 2.5 2
   vertex 5.5 2 3
   vertex 5 2 2.5
  endloop
 endfacet
 facet normal 0.57735026918962584 -0.57735026918962584 -0.57735026918962584
  outer loop
   vertex 6 2.5 3
   vertex 6 3 2.5
   vertex 6.5 3 3
  endloop
 endfacet
 facet normal -1 0 0
  outer loop
   vertex 0.5 3 2
   vertex 0.5 3 3
   vertex 0.5 4 2
  endloop
 endfacet
 facet normal -1 -0 -0
  outer loop
   vertex 0.5 3 3
   vertex 0.5 4 3
   vertex 0.5 4 2
  endloop
 endfacet
 facet normal 0.70710678118654746 0 -0.70710678118654746
  outer loop
   vertex 6 3 2.5
   vertex 5.5 4 2
   vertex 6 4 2.5
  endloop
 endfacet
 facet normal 0.70710678118654746 0 -0.70710678118654746
  outer loop
   vertex 5.5 3 2
   vertex 5.5 4 2
   vertex 6 3 2.5
  endloop
 endfacet
 facet normal 0.70710678118654746 0 -0.70710678118654746
  outer loop
   vertex 6.5 4 3
   vertex 6.5 3 3
   vertex 6 3 2.5
  endloop
 endfacet
 facet normal 0.70710678118654746 0 -0.70710678118654746
  outer loop
   vertex 6 4 2.5
   vertex 6.5 4 3
   vertex 6 3 2.5
  endloop
 endfacet
 facet normal -0.57735026918962584 0.57735026918962584 -0.57735026918962584
  outer loop
   vertex 1 5 2.5
   vertex 1 4.5 2
   vertex 0.5 4 2
  endloop
 endfacet
 facet normal -0.57735026918962584 0.57735026918962584 -0.57735026918962584
  outer loop
   vertex 1 5 2.5
   vertex 0.5 4 2
   vertex 0.5 5 3
  endloop
 endfacet
 facet normal -1 0 0
  outer loop
   vertex 0.5 5 3
   vertex 0.5 4 2
   vertex 0.5 4 3
  endloop
 endfacet
 facet normal -0.57735026918962584 0.57735026918962584 -0.57735026918962584
  outer loop
   vertex 1 4.5 2
   vertex 1 5 2.5
   vertex 1.5 5 2
  endloop
 endfacet
 facet normal 0.57735026918962584 0.57735026918962584 -0.57735026918962584
  outer loop
   vertex 5 4.5 2
   vertex 4.5 5 2
   vertex 5 5 2.5
  endloop
 endfacet
 facet normal 0.57735026918962584 0.57735026918962584 -0.57735026918962584
  outer loop
   vertex 5 4.5 2
   vertex 5 5 2.5
   vertex 5.5 5 3
  endloop
 endfacet
 facet normal 0.57735026918962584 0.57735026918962584 -0.57735026918962584
  outer loop
   vertex 5.5 4 2
   vertex 5 4.5 2
   vertex 5.5 5 3
  endloop
 endfacet
 facet normal 0.57735026918962584 0.57735026918962584 -0.57735026918962584
  outer loop
   vertex 5.5 4 2
   vertex 5.5 5 3
   vertex 6 4.5 3
  endloop
 endfacet
 facet normal 0.57735026918962584 0.57735026918962584 -0.57735026918962584
  outer loop
   vertex 5.5 4 2
   vertex 6 4.5 3
   vertex 6 4 2.5
  endloop
 endfacet
 facet normal 0.57735026918962584 0.57735026918962584 -0.57735026918962584
  outer loop
   vertex 6.5 4 3
   vertex 6 4 2.5
   vertex 6 4.5 3
  endloop
 endfacet
 facet normal -0.57735026918962584 0.57735026918962584 -0.57735026918962584
  outer loop
   vertex 1 5 2.5
   vertex 0.5 5 3
   vertex 1 5.5 3
  endloop
 endfacet
 facet normal -0.57735026918962584 0.57735026918962584 -0.57735026918962584
  outer loop
   vertex 2 6 2.5
   vertex 1 5.5 3
   vertex 1.5 6 3
  endloop
 endfacet
 facet normal -0.57735026918962584 0.57735026918962584 -0.57735026918962584
  outer loop
   vertex 2 5.5 2
   vertex 1 5.5 3
   vertex 2 6 2.5
  endloop
 endfacet
 facet normal -0.57735026918962584 0.57735026918962584 -0.57735026918962584
  outer loop
   vertex 2 5.5 2
   vertex 1 5 2.5
   vertex 1 5.5 3
  endloop
 endfacet
 facet normal -0.57735026918962584 0.57735026918962584 -0.57735026918962584
  outer loop
   vertex 2 5.5 2
   vertex 1.5 5 2
   vertex 1 5 2.5
  endloop
 endfacet
 facet normal 0 0.70710678118654746 -0.70710678118654746
  outer loop
   vertex 2 5.5 2
   vertex 3 6 2.5
   vertex 3 5.5 2
  endloop
 endfacet
 facet normal 0 0.70710678118654746 -0.70710678118654746
  outer loop
   vertex 2 6 2.5
   vertex 3 6 2.5
   vertex 2 5.5 2
  endloop
 endfacet
 facet normal 0 0.70710678118654746 -0.70710678118654746
  outer loop
   vertex 3 5.5 2
   vertex 4 6 2.5
   vertex 4 5.5 2
  endloop
 endfacet
 facet normal 0 0.70710678118654746 -0.70710678118654746
  outer loop
   vertex 3 6 2.5
   vertex 4 6 2.5
   vertex 3 5.5 2
  endloop
 endfacet
 facet normal 0.57735026918962584 0.57735026918962584 -0.57735026918962584
  outer loop
   vertex 4 5.5 2
   vertex 4 6 2.5
   vertex 4.5 6 3
  endloop
 endfacet
 facet normal 0.57735026918962584 0.57735026918962584 -0.57735026918962584
  outer loop
   vertex 4.5 5 2
   vertex 4 5.5 2
   vertex 4.5 6 3
  endloop
 endfacet
 facet normal 0.57735026918962584 0.57735026918962584 -0.57735026918962584
  outer loop
   vertex 4.5 5 2
   vertex 4.5 6 3
   vertex 5 5.5 3
  endloop
 endfacet
 facet normal 0.57735026918962584 0.57735026918962584 -0.57735026918962584
  outer loop
   vertex 4.5 5 2
   vertex 5 5.5 3
   vertex 5 5 2.5
  endloop
 endfacet
 facet normal 0.57735026918962584 0.57735026918962584 -0.57735026918962584
  outer loop
   vertex 5.5 5 3
   vertex 5 5 2.5
   vertex 5 5.5 3
  endloop
 endfacet
 facet normal -0.57735026918962584 0.57735026918962584 -0.57735026918962584
  outer loop
   vertex 2 6 2.5
   vertex 1.5 6 3
   vertex 2 6.5 3
  endloop
 endfacet
 facet normal 0 0.70710678118654746 -0.70710678118654746
  outer loop
   vertex 3 6 2.5
   vertex 2 6 2.5
   vertex 2 6.5 3
  endloop
 endfacet
 facet normal 0 0.70710678118654746 -0.70710678118654746
  outer loop
   vertex 3 6.5 3
   vertex 3 6 2.5
   vertex 2 6.5 3
  endloop
 endfacet
 facet normal 0 0.70710678118654746 -0.70710678118654746
  outer loop
   vertex 4 6 2.5
   vertex 3 6 2.5
   vertex 3 6.5 3
  endloop
 endfacet
 facet normal 0 0.70710678118654746 -0.70710678118654746
  outer loop
   vertex 4 6.5 3
   vertex 4 6 2.5
   vertex 3 6.5 3
  endloop
 endfacet
 facet normal 0.57735026918962584 0.57735026918962584 -0.57735026918962584
  outer loop
   vertex 4.5 6 3
   vertex 4 6 2.5
   vertex 4 6.5 3
  endloop
 endfacet
 facet normal -0.57735026918962584 -0.57735026918962584 -0.57735026918962584
  outer loop
   vertex 4 1 3.5
   vertex 4 0.5 4
   vertex 3.5 1 4
  endloop
 endfacet
 facet normal -0 -0.70710678118654746 -0.70710678118654746
  outer loop
   vertex 4 1 3.5
   vertex 5 1 3.5
   vertex 5 0.5 4
  endloop
 endfacet
 facet normal 0 -0.70710678118654746 -0.70710678118654746
  outer loop
   vertex 4 0.5 4
   vertex 4 1 3.5
   vertex 5 0.5 4
  endloop
 endfacet
 facet normal 0.57735026918962584 -0.57735026918962584 -0.57735026918962584
  outer loop
   vertex 5 0.5 4
   vertex 5 1 3.5
   vertex 5.5 1 4
  endloop
 endfacet
 facet normal -0.57735026918962584 -0.57735026918962584 0.57735026918962584
  outer loop
   vertex 2 1.5 3
   vertex 2 2 3.5
   vertex 1.5 2 3
  endloop
 endfacet
 facet normal -0.57735026918962584 -0.57735026918962584 0.57735026918962584
  outer loop
   vertex 2.5 2 4
   vertex 2 2 3.5
   vertex 2 1.5 3
  endloop
 endfacet
 facet normal -0.57735026918962584 -0.57735026918962584 0.57735026918962584
  outer loop
   vertex 2.5 2 4
   vertex 2 1.5 3
   vertex 3 1.5 4
  endloop
 endfacet
 facet normal 0 -1 0
  outer loop
   vertex 3 1.5 4
   vertex 2 1.5 3
   vertex 3 1.5 3
  endloop
 endfacet
 facet normal -0.57735026918962584 -0.57735026918962584 -0.57735026918962584
  outer loop
   vertex 3.5 1 4
   vertex 4 1.5 3
   vertex 4 1 3.5
  endloop
 endfacet
 facet normal -0.57735026918962584 -0.57735026918962584 -0.57735026918962584
  outer loop
   vertex 3.5 1 4
   vertex 3 1.5 4
   vertex 4 1.5 3
  endloop
 endfacet
 facet normal 0 -1 0
  outer loop
   vertex 3 1.5 4
   vertex 3 1.5 3
   vertex 4 1.5 3
  endloop
 endfacet
 facet normal 0 -0.70710678118654746 -0.70710678118654746
  outer loop
   vertex 5 1.5 3
   vertex 4 1 3.5
   vertex 4 1.5 3
  endloop
 endfacet
 facet normal 0 -0.70710678118654746 -0.70710678118654746
  outer loop
   vertex 5 1 3.5
   vertex 4 1 3.5
   vertex 5 1.5 3
  endloop
 endfacet
 facet normal 0.57735026918962584 -0.57735026918962584 -0.57735026918962584
  outer loop
   vertex 5.5 2 3
   vertex 6 2 3.5
   vertex 6 1.5 4
  endloop
 endfacet
 facet normal 0.57735026918962584 -0.57735026918962584 -0.57735026918962584
  outer loop
   vertex 5 1.5 3
   vertex 5.5 2 3
   vertex 6 1.5 4
  endloop
 endfacet
 facet normal 0.57735026918962584 -0.57735026918962584 -0.57735026918962584
  outer loop
   vertex 5 1.5 3
   vertex 6 1.5 4
   vertex 5.5 1 4
  endloop
 endfacet
 facet normal 0.57735026918962584 -0.57735026918962584 -0.57735026918962584
  outer loop
   vertex 5 1.5 3
   vertex 5.5 1 4
   vertex 5 1 3.5
  endloop
 endfacet
 facet normal 0.57735026918962584 -0.57735026918962584 -0.57735026918962584
  outer loop
   vertex 6 1.5 4
   vertex 6 2 3.5
   vertex 6.5 2 4
  endloop
 endfacet
 facet normal -0.57735026918962584 -0.57735026918962584 0.57735026918962584
  outer loop
   vertex 1 2.5 3
   vertex 1 3 3.5
   vertex 0.5 3 3
  endloop
 endfacet
 facet normal -0.57735026918962584 -0.57735026918962584 0.57735026918962584
  outer loop
   vertex 1 2.5 3
   vertex 1.5 3 4
   vertex 1 3 3.5
  endloop
 endfacet
 facet normal -0.57735026918962584 -0.57735026918962584 0.57735026918962584
  outer loop
   vertex 1.5 2 3
   vertex 1.5 3 4
   vertex 1 2.5 3
  endloop
 endfacet
 facet normal -0.57735026918962584 -0.57735026918962584 0.57735026918962584
  outer loop
   vertex 1.5 2 3
   vertex 2 2.5 4
   vertex 1.5 3 4
  endloop
 endfacet
 facet normal -0.57735026918962584 -0.57735026918962584 0.57735026918962584
  outer loop
   vertex 1.5 2 3
   vertex 2 2 3.5
   vertex 2 2.5 4
  endloop
 endfacet
 facet normal -0.57735026918962584 -0.57735026918962584 0.57735026918962584
  outer loop
   vertex 2.5 2 4
   vertex 2 2.5 4
   vertex 2 2 3.5
  endloop
 endfacet
 facet normal 0.57735026918962584 -0.57735026918962584 -0.57735026918962584
  outer loop
   vertex 5.5 2 3
   vertex 6 2.5 3
   vertex 6 2 3.5
  endloop
 endfacet
 facet normal 0.57735026918962584 -0.57735026918962584 -0.57735026918962584
  outer loop
   vertex 6 2 3.5
   vertex 6 2.5 3
   vertex 6.5 3 3
  endloop
 endfacet
 facet normal 0.57735026918962584 -0.57735026918962584 -0.57735026918962584
  outer loop
   vertex 6 2 3.5
   vertex 6.5 3 3
   vertex 6.5 2 4
  endloop
 endfacet
 facet normal 1 0 -0
  outer loop
   vertex 6.5 2 4
   vertex 6.5 3 3
   vertex 6.5 3 4
  endloop
 endfacet
 facet normal -0.57735026918962584 -0.57735026918962584 0.57735026918962584
  outer loop
   vertex 1 3 3.5
   vertex 1 3.5 4
   vertex 0.5 4 4
  endloop
 endfacet
 facet normal -0.57735026918962584 -0.57735026918962584 0.57735026918962584
  outer loop
   vertex 1 3 3.5
   vertex 0.5 4 4
   vertex 0.5 3 3
  endloop
 endfacet
 facet normal -1 0 -0
  outer loop
   vertex 0.5 3 3
   vertex 0.5 4 4
   vertex 0.5 4 3
  endloop
 endfacet
 facet normal -0.57735026918962584 -0.57735026918962584 0.57735026918962584
  outer loop
   vertex 1.5 3 4
   vertex 1 3.5 4
   vertex 1 3 3.5
  endloop
 endfacet
 facet normal 0.57735026918962584 -0.57735026918962584 -0.57735026918962584
  outer loop
   vertex 7 3.5 4
   vertex 6.5 4 3
   vertex 7 4 3.5
  endloop
 endfacet
 facet normal 0.57735026918962584 -0.57735026918962584 -0.57735026918962584
  outer loop
   vertex 7 3.5 4
   vertex 6.5 3 4
   vertex 6.5 4 3
  endloop
 endfacet
 facet normal 1 0 0
  outer loop
   vertex 6.5 3 4
   vertex 6.5 3 3
   vertex 6.5 4 3
  endloop
 endfacet
 facet normal 0.57735026918962584 -0.57735026918962584 -0.57735026918962584
  outer loop
   vertex 7 3.5 4
   vertex 7 4 3.5
   vertex 7.5 4 4
  endloop
 endfacet
 facet normal -1 0 0
  outer loop
   vertex 0.5 4 3
   vertex 0.5 4 4
   vertex 0.5 5 3
  endloop
 endfacet
 facet normal -1 -0 -0
  outer loop
   vertex 0.5 4 4
   vertex 0.5 5 4
   vertex 0.5 5 3
  endloop
 endfacet
 facet normal 0.57735026918962584 0.57735026918962584 -0.57735026918962584
  outer loop
   vertex 6 4.5 3
   vertex 5.5 5 3
   vertex 6 5 3.5
  endloop
 endfacet
 facet normal 0.57735026918962584 0.57735026918962584 -0.57735026918962584
  outer loop
   vertex 6 4.5 3
   vertex 7 4 3.5
   vertex 6.5 4 3
  endloop
 endfacet
 facet normal 0.57735026918962584 0.57735026918962584 -0.57735026918962584
  outer loop
   vertex 6 4.5 3
   vertex 6 5 3.5
   vertex 7 4 3.5
  endloop
 endfacet
 facet normal -0 -0 -1
  outer loop
   vertex 6 5 3.5
   vertex 7 5 3.5
   vertex 7 4 3.5
  endloop
 endfacet
 facet normal 0.70710678118654746 0 -0.70710678118654746
  outer loop
   vertex 7.5 5 4
   vertex 7.5 4 4
   vertex 7 4 3.5
  endloop
 endfacet
 facet normal 0.70710678118654746 0 -0.70710678118654746
  outer loop
   vertex 7 5 3.5
   vertex 7.5 5 4
   vertex 7 4 3.5
  endloop
 endfacet
 facet normal -0.70710678118654746 0.70710678118654746 0
  outer loop
   vertex 0.5 5 3
   vertex 0.5 5 4
   vertex 1 5.5 4
  endloop
 endfacet
 facet normal -0.70710678118654746 0.70710678118654746 0
  outer loop
   vertex 1 5.5 3
   vertex 0.5 5 3
   vertex 1 5.5 4
  endloop
 endfacet
 facet normal -0.70710678118654746 0.70710678118654746 0
  outer loop
   vertex 1 5.5 4
   vertex 1.5 6 3
   vertex 1 5.5 3
  endloop
 endfacet
 facet normal -0.70710678118654746 0.70710678118654746 0
  outer loop
   vertex 1.5 6 4
   vertex 1.5 6 3
   vertex 1 5.5 4
  endloop
 endfacet
 facet normal 0.57735026918962584 0.57735026918962584 -0.57735026918962584
  outer loop
   vertex 5 5.5 3
   vertex 4.5 6 3
   vertex 5 6 3.5
  endloop
 endfacet
 facet normal 0.57735026918962584 0.57735026918962584 -0.57735026918962584
  outer loop
   vertex 5 5.5 3
   vertex 6 5 3.5
   vertex 5.5 5 3
  endloop
 endfacet
 facet normal 0.57735026918962584 0.57735026918962584 -0.57735026918962584
  outer loop
   vertex 5 5.5 3
   vertex 5 6 3.5
   vertex 6 5 3.5
  endloop
 endfacet
 facet normal -0 -0 -1
  outer loop
   vertex 5 6 3.5
   vertex 6 6 3.5
   vertex 6 5 3.5
  endloop
 endfacet
 facet normal 0 0 -1
  outer loop
   vertex 7 5 3.5
   vertex 6 5 3.5
   vertex 7 6 3.5
  endloop
 endfacet
 facet normal 0 0 -1
  outer loop
   vertex 7 6 3.5
   vertex 6 5 3.5
   vertex 6 6 3.5
  endloop
 endfacet
 facet normal 0.70710678118654746 0 -0.70710678118654746
  outer loop
   vertex 7.5 6 4
   vertex 7.5 5 4
   vertex 7 5 3.5
  endloop
 endfacet
 facet normal 0.70710678118654746 0 -0.70710678118654746
  outer loop
   vertex 7 6 3.5
   vertex 7.5 6 4
   vertex 7 5 3.5
  endloop
 endfacet
 facet normal -0.70710678118654746 0.70710678118654746 0
  outer loop
   vertex 1.5 6 3
   vertex 1.5 6 4
   vertex 2 6.5 4
  endloop
 endfacet
 facet normal -0.70710678118654746 0.70710678118654746 0
  outer loop
   vertex 2 6.5 3
   vertex 1.5 6 3
   vertex 2 6.5 4
  endloop
 endfacet
 facet normal -0.57735026918962584 0.57735026918962584 -0.57735026918962584
  outer loop
   vertex 3 7 3.5
   vertex 2 6.5 4
   vertex 2.5 7 4
  endloop
 endfacet
 facet normal -0.57735026918962584 0.57735026918962584 -0.57735026918962584
  outer loop
   vertex 3 7 3.5
   vertex 3 6.5 3
   vertex 2 6.5 4
  endloop
 endfacet
 facet normal 0 1 0
  outer loop
   vertex 3 6.5 3
   vertex 2 6.5 3
   vertex 2 6.5 4
  endloop
 endfacet
 facet normal 0 0.70710678118654746 -0.70710678118654746
  outer loop
   vertex 3 6.5 3
   vertex 4 7 3.5
   vertex 4 6.5 3
  endloop
 endfacet
 facet normal 0 0.70710678118654746 -0.70710678118654746
  outer loop
   vertex 3 7 3.5
   vertex 4 7 3.5
   vertex 3 6.5 3
  endloop
 endfacet
 facet normal 0.57735026918962584 0.57735026918962584 -0.57735026918962584
  outer loop
   vertex 4 6.5 3
   vertex 5 6 3.5
   vertex 4.5 6 3
  endloop
 endfacet
 facet normal 0.57735026918962584 0.57735026918962584 -0.57735026918962584
  outer loop
   vertex 4 6.5 3
   vertex 4 7 3.5
   vertex 5 6 3.5
  endloop
 endfacet
 facet normal -0 -0 -1
  outer loop
   vertex 4 7 3.5
   vertex 5 7 3.5
   vertex 5 6 3.5
  endloop
 endfacet
 facet normal 0 0 -1
  outer loop
   vertex 6 6 3.5
   vertex 5 6 3.5
   vertex 6 7 3.5
  endloop
 endfacet
 facet normal 0 0 -1
  outer loop
   vertex 6 7 3.5
   vertex 5 6 3.5
   vertex 5 7 3.5
  endloop
 endfacet
 facet normal 0 0 -1
  outer loop
   vertex 7 6 3.5
   vertex 6 6 3.5
   vertex 7 7 3.5
  endloop
 endfacet
 facet normal 0 0 -1
  outer loop
   vertex 7 7 3.5
   vertex 6 6 3.5
   vertex 6 7 3.5
  endloop
 endfacet
 facet normal 0.70710678118654746 0 -0.70710678118654746
  outer loop
   vertex 7.5 7 4
   vertex 7.5 6 4
   vertex 7 6 3.5
  endloop
 endfacet
 facet normal 0.70710678118654746 0 -0.70710678118654746
  outer loop
   vertex 7 7 3.5
   vertex 7.5 7 4
   vertex 7 6 3.5
  endloop
 endfacet
 facet normal -0.57735026918962584 0.57735026918962584 -0.57735026918962584
  outer loop
   vertex 3 7 3.5
   vertex 2.5 7 4
   vertex 3 7.5 4
  endloop
 endfacet
 facet normal -0.57735026918962584 0.57735026918962584 -0.57735026918962584
  outer loop
   vertex 3 7.5 4
   vertex 3.5 8 4
   vertex 4 8 3.5
  endloop
 endfacet
 facet normal -0.57735026918962584 0.57735026918962584 -0.57735026918962584
  outer loop
   vertex 3 7.5 4
   vertex 4 8 3.5
   vertex 3 7 3.5
  endloop
 endfacet
 facet normal 0 -0 -1
  outer loop
   vertex 3 7 3.5
   vertex 4 8 3.5
   vertex 4 7 3.5
  endloop
 endfacet
 facet normal 0 0 -1
  outer loop
   vertex 5 7 3.5
   vertex 4 7 3.5
   vertex 5 8 3.5
  endloop
 endfacet
 facet normal 0 0 -1
  outer loop
   vertex 5 8 3.5
   vertex 4 7 3.5
   vertex 4 8 3.5
  endloop
 endfacet
 facet normal 0 0 -1
  outer loop
   vertex 6 7 3.5
   vertex 5 7 3.5
   vertex 6 8 3.5
  endloop
 endfacet
 facet normal 0 0 -1
  outer loop
   vertex 6 8 3.5
   vertex 5 7 3.5
   vertex 5 8 3.5
  endloop
 endfacet
 facet normal 0.57735026918962584 0.57735026918962584 -0.57735026918962584
  outer loop
   vertex 6.5 8 4
   vertex 7 7.5 4
   vertex 7 7 3.5
  endloop
 endfacet
 facet normal 0.57735026918962584 0.57735026918962584 -0.57735026918962584
  outer loop
   vertex 6.5 8 4
   vertex 7 7 3.5
   vertex 6 8 3.5
  endloop
 endfacet
 facet normal 0 0 -1
  outer loop
   vertex 6 8 3.5
   vertex 7 7 3.5
   vertex 6 7 3.5
  endloop
 endfacet
 facet normal 0.57735026918962584 0.57735026918962584 -0.57735026918962584
  outer loop
   vertex 7.5 7 4
   vertex 7 7 3.5
   vertex 7 7.5 4
  endloop
 endfacet
 facet normal -0.57735026918962584 0.57735026918962584 -0.57735026918962584
  outer loop
   vertex 4 8 3.5
   vertex 3.5 8 4
   vertex 4 8.5 4
  endloop
 endfacet
 facet normal 0 0.70710678118654746 -0.70710678118654746
  outer loop
   vertex 5 8 3.5
   vertex 4 8 3.5
   vertex 4 8.5 4
  endloop
 endfacet
 facet normal 0 0.70710678118654746 -0.70710678118654746
  outer loop
   vertex 5 8.5 4
   vertex 5 8 3.5
   vertex 4 8.5 4
  endloop
 endfacet
 facet normal 0 0.70710678118654746 -0.70710678118654746
  outer loop
   vertex 6 8 3.5
   vertex 5 8 3.5
   vertex 5 8.5 4
  endloop
 endfacet
 facet normal 0 0.70710678118654746 -0.70710678118654746
  outer loop
   vertex 6 8.5 4
   vertex 6 8 3.5
   vertex 5 8.5 4
  endloop
 endfacet
 facet normal 0.57735026918962584 0.57735026918962584 -0.57735026918962584
  outer loop
   vertex 6.5 8 4
   vertex 6 8 3.5
   vertex 6 8.5 4
  endloop
 endfacet
 facet normal -0.57735026918962584 -0.57735026918962584 0.57735026918962584
  outer loop
   vertex 4 0.5 4
   vertex 4 1 4.5
   vertex 3.5 1 4
  endloop
 endfacet
 facet normal 0 -0.70710678118654746 0.70710678118654746
  outer loop
   vertex 4 0.5 4
   vertex 5 0.5 4
   vertex 5 1 4.5
  endloop
 endfacet
 facet normal 0 -0.70710678118654746 0.70710678118654746
  outer loop
   vertex 4 1 4.5
   vertex 4 0.5 4
   vertex 5 1 4.5
  endloop
 endfacet
 facet normal 0.57735026918962584 -0.57735026918962584 0.57735026918962584
  outer loop
   vertex 5 0.5 4
   vertex 5.5 1 4
   vertex 5 1 4.5
  endloop
 endfacet
 facet normal -0.70710678118654746 -0.70710678118654746 -0
  outer loop
   vertex 3 1.5 4
   vertex 3 1.5 5
   vertex 2.5 2 5
  endloop
 endfacet
 facet normal -0.70710678118654746 -0.70710678118654746 0
  outer loop
   vertex 2.5 2 4
   vertex 3 1.5 4
   vertex 2.5 2 5
  endloop
 endfacet
 facet normal -0.57735026918962584 -0.57735026918962584 0.57735026918962584
  outer loop
   vertex 4 1 4.5
   vertex 3 1.5 4
   vertex 3.5 1 4
  endloop
 endfacet
 facet normal -0.57735026918962584 -0.57735026918962584 0.57735026918962584
  outer loop
   vertex 4 1 4.5
   vertex 4 1.5 5
   vertex 3 1.5 4
  endloop
 endfacet
 facet normal 0 -1 0
  outer loop
   vertex 4 1.5 5
   vertex 3 1.5 5
   vertex 3 1.5 4
  endloop
 endfacet
 facet normal 0 -0.70710678118654746 0.70710678118654746
  outer loop
   vertex 5 1 4.5
   vertex 4 1.5 5
   vertex 4 1 4.5
  endloop
 endfacet
 facet normal 0 -0.70710678118654746 0.70710678118654746
  outer loop
   vertex 5 1.5 5
   vertex 4 1.5 5
   vertex 5 1 4.5
  endloop
 endfacet
 facet normal 0.57735026918962584 -0.57735026918962584 0.57735026918962584
  outer loop
   vertex 5.5 1 4
   vertex 5 1.5 5
   vertex 5 1 4.5
  endloop
 endfacet
 facet normal 0.57735026918962584 -0.57735026918962584 0.57735026918962584
  outer loop
   vertex 5.5 1 4
   vertex 6 1.5 4
   vertex 5 1.5 5
  endloop
 endfacet
 facet normal -0 -1 -0
  outer loop
   vertex 6 1.5 4
   vertex 6 1.5 5
   vertex 5 1.5 5
  endloop
 endfacet
 facet normal 0.70710678118654746 -0.70710678118654746 0
  outer loop
   vertex 6 1.5 5
   vertex 6 1.5 4
   vertex 6.5 2 4
  endloop
 endfacet
 facet normal 0.70710678118654746 -0.70710678118654746 0
  outer loop
   vertex 6.5 2 5
   vertex 6 1.5 5
   vertex 6.5 2 4
  endloop
 endfacet
 facet normal -0.70710678118654746 -0.70710678118654746 -0
  outer loop
   vertex 2 2.5 4
   vertex 2 2.5 5
   vertex 1.5 3 5
  endloop
 endfacet
 facet normal -0.70710678118654746 -0.70710678118654746 0
  outer loop
   vertex 1.5 3 4
   vertex 2 2.5 4
   vertex 1.5 3 5
  endloop
 endfacet
 facet normal -0.70710678118654746 -0.70710678118654746 0
  outer loop
   vertex 2.5 2 5
   vertex 2 2.5 4
   vertex 2.5 2 4
  endloop
 endfacet
 facet normal -0.70710678118654746 -0.70710678118654746 0
  outer loop
   vertex 2 2.5 5
   vertex 2 2.5 4
   vertex 2.5 2 5
  endloop
 endfacet
 facet normal 1 0 0
  outer loop
   vertex 6.5 2 4
   vertex 6.5 3 4
   vertex 6.5 2 5
  endloop
 endfacet
 facet normal 1 0 -0
  outer loop
   vertex 6.5 2 5
   vertex 6.5 3 4
   vertex 6.5 3 5
  endloop
 endfacet
 facet normal -0.57735026918962584 -0.57735026918962584 0.57735026918962584
  outer loop
   vertex 1 3.5 4
   vertex 1 4 4.5
   vertex 0.5 4 4
  endloop
 endfacet
 facet normal -0.57735026918962584 -0.57735026918962584 0.57735026918962584
  outer loop
   vertex 1 3.5 4
   vertex 1.5 4 5
   vertex 1 4 4.5
  endloop
 endfacet
 facet normal -0.57735026918962584 -0.57735026918962584 0.57735026918962584
  outer loop
   vertex 1 3.5 4
   vertex 1.5 3 4
   vertex 1.5 4 5
  endloop
 endfacet
 facet normal -1 0 0
  outer loop
   vertex 1.5 3 4
   vertex 1.5 3 5
   vertex 1.5 4 5
  endloop
 endfacet
 facet normal 0.57735026918962584 -0.57735026918962584 0.57735026918962584
  outer loop
   vertex 7 4 4.5
   vertex 6.5 3 4
   vertex 7 3.5 4
  endloop
 endfacet
 facet normal 0.57735026918962584 -0.57735026918962584 0.57735026918962584
  outer loop
   vertex 7 4 4.5
   vertex 6.5 4 5
   vertex 6.5 3 4
  endloop
 endfacet
 facet normal 1 -0 0
  outer loop
   vertex 6.5 4 5
   vertex 6.5 3 5
   vertex 6.5 3 4
  endloop
 endfacet
 facet normal 0.57735026918962584 -0.57735026918962584 0.57735026918962584
  outer loop
   vertex 7 3.5 4
   vertex 7.5 4 4
   vertex 7 4 4.5
  endloop
 endfacet
 facet normal -0.70710678118654746 0 0.70710678118654746
  outer loop
   vertex 1 4 4.5
   vertex 1 5 4.5
   vertex 0.5 5 4
  endloop
 endfacet
 facet normal -0.70710678118654746 0 0.70710678118654746
  outer loop
   vertex 0.5 4 4
   vertex 1 4 4.5
   vertex 0.5 5 4
  endloop
 endfacet
 facet normal -0.70710678118654746 0 0.70710678118654746
  outer loop
   vertex 1.5 5 5
   vertex 1 4 4.5
   vertex 1.5 4 5
  endloop
 endfacet
 facet normal -0.70710678118654746 0 0.70710678118654746
  outer loop
   vertex 1 5 4.5
   vertex 1 4 4.5
   vertex 1.5 5 5
  endloop
 endfacet
 facet normal 0.57735026918962584 -0.57735026918962584 0.57735026918962584
  outer loop
   vertex 7 4 4.5
   vertex 7 4.5 5
   vertex 6.5 4 5
  endloop
 endfacet
 facet normal 0.57735026918962584 -0.57735026918962584 0.57735026918962584
  outer loop
   vertex 7 4.5 5
   vertex 7 4 4.5
   vertex 7.5 4 4
  endloop
 endfacet
 facet normal 0.57735026918962584 -0.57735026918962584 0.57735026918962584
  outer loop
   vertex 7 4.5 5
   vertex 7.5 4 4
   vertex 7.5 5 5
  endloop
 endfacet
 facet normal 1 0 0
  outer loop
   vertex 7.5 5 5
   vertex 7.5 4 4
   vertex 7.5 5 4
  endloop
 endfacet
 facet normal -0.57735026918962584 0.57735026918962584 0.57735026918962584
  outer loop
   vertex 0.5 5 4
   vertex 1 5 4.5
   vertex 1 5.5 4
  endloop
 endfacet
 facet normal -0.57735026918962584 0.57735026918962584 0.57735026918962584
  outer loop
   vertex 1 5 4.5
   vertex 1.5 6 4
   vertex 1 5.5 4
  endloop
 endfacet
 facet normal -0.57735026918962584 0.57735026918962584 0.57735026918962584
  outer loop
   vertex 1 5 4.5
   vertex 1.5 5 5
   vertex 1.5 6 4
  endloop
 endfacet
 facet normal -1 -0 -0
  outer loop
   vertex 1.5 5 5
   vertex 1.5 6 5
   vertex 1.5 6 4
  endloop
 endfacet
 facet normal 0.57735026918962584 -0.57735026918962584 -0.57735026918962584
  outer loop
   vertex 8 5.5 5
   vertex 7.5 6 4
   vertex 8 6 4.5
  endloop
 endfacet
 facet normal 0.57735026918962584 -0.57735026918962584 -0.57735026918962584
  outer loop
   vertex 8 5.5 5
   vertex 7.5 5 5
   vertex 7.5 6 4
  endloop
 endfacet
 facet normal 1 0 0
  outer loop
   vertex 7.5 5 5
   vertex 7.5 5 4
   vertex 7.5 6 4
  endloop
 endfacet
 facet normal 0.57735026918962584 -0.57735026918962584 -0.57735026918962584
  outer loop
   vertex 8 5.5 5
   vertex 8 6 4.5
   vertex 8.5 6 5
  endloop
 endfacet
 facet normal -0.70710678118654746 0.70710678118654746 0
  outer loop
   vertex 1.5 6 4
   vertex 1.5 6 5
   vertex 2 6.5 5
  endloop
 endfacet
 facet normal -0.70710678118654746 0.70710678118654746 0
  outer loop
   vertex 2 6.5 4
   vertex 1.5 6 4
   vertex 2 6.5 5
  endloop
 endfacet
 facet normal -0.70710678118654746 0.70710678118654746 0
  outer loop
   vertex 2 6.5 5
   vertex 2.5 7 4
   vertex 2 6.5 4
  endloop
 endfacet
 facet normal -0.70710678118654746 0.70710678118654746 0
  outer loop
   vertex 2.5 7 5
   vertex 2.5 7 4
   vertex 2 6.5 5
  endloop
 endfacet
 facet normal 0.70710678118654746 0 -0.70710678118654746
  outer loop
   vertex 8 6 4.5
   vertex 7.5 7 4
   vertex 8 7 4.5
  endloop
 endfacet
 facet normal 0.70710678118654746 0 -0.70710678118654746
  outer loop
   vertex 7.5 6 4
   vertex 7.5 7 4
   vertex 8 6 4.5
  endloop
 endfacet
 facet normal 0.70710678118654746 0 -0.70710678118654746
  outer loop
   vertex 8.5 7 5
   vertex 8.5 6 5
   vertex 8 6 4.5
  endloop
 endfacet
 facet normal 0.70710678118654746 0 -0.70710678118654746
  outer loop
   vertex 8 7 4.5
   vertex 8.5 7 5
   vertex 8 6 4.5
  endloop
 endfacet
 facet normal -0.70710678118654746 0.70710678118654746 0
  outer loop
   vertex 2.5 7 4
   vertex 2.5 7 5
   vertex 3 7.5 5
  endloop
 endfacet
 facet normal -0.70710678118654746 0.70710678118654746 0
  outer loop
   vertex 3 7.5 4
   vertex 2.5 7 4
   vertex 3 7.5 5
  endloop
 endfacet
 facet normal -0.70710678118654746 0.70710678118654746 0
  outer loop
   vertex 3 7.5 5
   vertex 3.5 8 4
   vertex 3 7.5 4
  endloop
 endfacet
 facet normal -0.70710678118654746 0.70710678118654746 0
  outer loop
   vertex 3.5 8 5
   vertex 3.5 8 4
   vertex 3 7.5 5
  endloop
 endfacet
 facet normal 0.57735026918962584 0.57735026918962584 -0.57735026918962584
  outer loop
   vertex 7 7.5 4
   vertex 6.5 8 4
   vertex 7 8 4.5
  endloop
 endfacet
 facet normal 0.57735026918962584 0.57735026918962584 -0.57735026918962584
  outer loop
   vertex 7 7.5 4
   vertex 7 8 4.5
   vertex 7.5 8 5
  endloop
 endfacet
 facet normal 0.57735026918962584 0.57735026918962584 -0.57735026918962584
  outer loop
   vertex 7.5 7 4
   vertex 7 7.5 4
   vertex 7.5 8 5
  endloop
 endfacet
 facet normal 0.57735026918962584 0.57735026918962584 -0.57735026918962584
  outer loop
   vertex 7.5 7 4
   vertex 7.5 8 5
   vertex 8 7.5 5
  endloop
 endfacet
 facet normal 0.57735026918962584 0.57735026918962584 -0.57735026918962584
  outer loop
   vertex 7.5 7 4
   vertex 8 7.5 5
   vertex 8 7 4.5
  endloop
 endfacet
 facet normal 0.57735026918962584 0.57735026918962584 -0.57735026918962584
  outer loop
   vertex 8.5 7 5
   vertex 8 7 4.5
   vertex 8 7.5 5
  endloop
 endfacet
 facet normal -0.70710678118654746 0.70710678118654746 0
  outer loop
   vertex 3.5 8 4
   vertex 3.5 8 5
   vertex 4 8.5 5
  endloop
 endfacet
 facet normal -0.70710678118654746 0.70710678118654746 0
  outer loop
   vertex 4 8.5 4
   vertex 3.5 8 4
   vertex 4 8.5 5
  endloop
 endfacet
 facet normal 0 1 0
  outer loop
   vertex 5 8.5 4
   vertex 4 8.5 4
   vertex 5 8.5 5
  endloop
 endfacet
 facet normal -0 1 0
  outer loop
   vertex 4 8.5 4
   vertex 4 8.5 5
   vertex 5 8.5 5
  endloop
 endfacet
 facet normal 0 1 0
  outer loop
   vertex 6 8.5 4
   vertex 5 8.5 4
   vertex 6 8.5 5
  endloop
 endfacet
 facet normal -0 1 0
  outer loop
   vertex 5 8.5 4
   vertex 5 8.5 5
   vertex 6 8.5 5
  endloop
 endfacet
 facet normal 0.57735026918962584 0.57735026918962584 -0.57735026918962584
  outer loop
   vertex 7 8 4.5
   vertex 6.5 8 4
   vertex 6 8.5 4
  endloop
 endfacet
 facet normal 0.57735026918962584 0.57735026918962584 -0.57735026918962584
  outer loop
   vertex 7 8 4.5
   vertex 6 8.5 4
   vertex 7 8.5 5
  endloop
 endfacet
 facet normal 0 1 0
  outer loop
   vertex 7 8.5 5
   vertex 6 8.5 4
   vertex 6 8.5 5
  endloop
 endfacet
 facet normal 0.57735026918962584 0.57735026918962584 -0.57735026918962584
  outer loop
   vertex 7.5 8 5
   vertex 7 8 4.5
   vertex 7 8.5 5
  endloop
 endfacet
 facet normal -0.57735026918962584 -0.57735026918962584 0.57735026918962584
  outer loop
   vertex 3 1.5 5
   vertex 3 2 5.5
   vertex 2.5 2 5
  endloop
 endfacet
 facet normal 0 -0.70710678118654746 0.70710678118654746
  outer loop
   vertex 3 1.5 5
   vertex 4 1.5 5
   vertex 4 2 5.5
  endloop
 endfacet
 facet normal 0 -0.70710678118654746 0.70710678118654746
  outer loop
   vertex 3 2 5.5
   vertex 3 1.5 5
   vertex 4 2 5.5
  endloop
 endfacet
 facet normal 0 -0.70710678118654746 0.70710678118654746
  outer loop
   vertex 4 1.5 5
   vertex 5 1.5 5
   vertex 5 2 5.5
  endloop
 endfacet
 facet normal 0 -0.70710678118654746 0.70710678118654746
  outer loop
   vertex 4 2 5.5
   vertex 4 1.5 5
   vertex 5 2 5.5
  endloop
 endfacet
 facet normal 0 -0.70710678118654746 0.70710678118654746
  outer loop
   vertex 5 1.5 5
   vertex 6 1.5 5
   vertex 6 2 5.5
  endloop
 endfacet
 facet normal 0 -0.70710678118654746 0.70710678118654746
  outer loop
   vertex 5 2 5.5
   vertex 5 1.5 5
   vertex 6 2 5.5
  endloop
 endfacet
 facet normal 0.57735026918962584 -0.57735026918962584 0.57735026918962584
  outer loop
   vertex 6 1.5 5
   vertex 6.5 2 5
   vertex 6 2 5.5
  endloop
 endfacet
 facet normal -0.57735026918962584 -0.57735026918962584 0.57735026918962584
  outer loop
   vertex 2 2.5 5
   vertex 2 3 5.5
   vertex 1.5 3 5
  endloop
 endfacet
 facet normal -0.57735026918962584 -0.57735026918962584 0.57735026918962584
  outer loop
   vertex 2 2.5 5
   vertex 2.5 2 5
   vertex 3 2 5.5
  endloop
 endfacet
 facet normal -0.57735026918962584 -0.57735026918962584 0.57735026918962584
  outer loop
   vertex 2 2.5 5
   vertex 3 2 5.5
   vertex 2 3 5.5
  endloop
 endfacet
 facet normal 0 -0 1
  outer loop
   vertex 2 3 5.5
   vertex 3 2 5.5
   vertex 3 3 5.5
  endloop
 endfacet
 facet normal -0.57735026918962584 -0.57735026918962584 0.57735026918962584
  outer loop
   vertex 3.5 3 6
   vertex 4 2 5.5
   vertex 4 2.5 6
  endloop
 endfacet
 facet normal -0.57735026918962584 -0.57735026918962584 0.57735026918962584
  outer loop
   vertex 3.5 3 6
   vertex 3 3 5.5
   vertex 4 2 5.5
  endloop
 endfacet
 facet normal 0 0 1
  outer loop
   vertex 3 3 5.5
   vertex 3 2 5.5
   vertex 4 2 5.5
  endloop
 endfacet
 facet normal 0.57735026918962584 -0.57735026918962584 0.57735026918962584
  outer loop
   vertex 4 2.5 6
   vertex 5 3 5.5
   vertex 4.5 3 6
  endloop
 endfacet
 facet normal 0.57735026918962584 -0.57735026918962584 0.57735026918962584
  outer loop
   vertex 4 2.5 6
   vertex 4 2 5.5
   vertex 5 3 5.5
  endloop
 endfacet
 facet normal 0 -0 1
  outer loop
   vertex 4 2 5.5
   vertex 5 2 5.5
   vertex 5 3 5.5
  endloop
 endfacet
 facet normal 0 0 1
  outer loop
   vertex 6 2 5.5
   vertex 6 3 5.5
   vertex 5 2 5.5
  endloop
 endfacet
 facet normal -0 0 1
  outer loop
   vertex 6 3 5.5
   vertex 5 3 5.5
   vertex 5 2 5.5
  endloop
 endfacet
 facet normal 0.70710678118654746 0 0.70710678118654746
  outer loop
   vertex 6.5 2 5
   vertex 6.5 3 5
   vertex 6 3 5.5
  endloop
 endfacet
 facet normal 0.70710678118654746 0 0.70710678118654746
  outer loop
   vertex 6 2 5.5
   vertex 6.5 2 5
   vertex 6 3 5.5
  endloop
 endfacet
 facet normal -0.70710678118654746 0 0.70710678118654746
  outer loop
   vertex 2 3 5.5
   vertex 2 4 5.5
   vertex 1.5 4 5
  endloop
 endfacet
 facet normal -0.70710678118654746 0 0.70710678118654746
  outer loop
   vertex 1.5 3 5
   vertex 2 3 5.5
   vertex 1.5 4 5
  endloop
 endfacet
 facet normal -0.57735026918962584 -0.57735026918962584 0.57735026918962584
  outer loop
   vertex 2.5 4 6
   vertex 3 3 5.5
   vertex 3 3.5 6
  endloop
 endfacet
 facet normal -0.57735026918962584 -0.57735026918962584 0.57735026918962584
  outer loop
   vertex 2.5 4 6
   vertex 2 4 5.5
   vertex 3 3 5.5
  endloop
 endfacet
 facet normal 0 0 1
  outer loop
   vertex 2 4 5.5
   vertex 2 3 5.5
   vertex 3 3 5.5
  endloop
 endfacet
 facet normal -0.57735026918962584 -0.57735026918962584 0.57735026918962584
  outer loop
   vertex 3.5 3 6
   vertex 3 3.5 6
   vertex 3 3 5.5
  endloop
 endfacet
 facet normal 0.57735026918962584 -0.57735026918962584 0.57735026918962584
  outer loop
   vertex 5 3 5.5
   vertex 5 3.5 6
   vertex 4.5 3 6
  endloop
 endfacet
 facet normal 0.57735026918962584 -0.57735026918962584 0.57735026918962584
  outer loop
   vertex 5 3.5 6
   vertex 6 4 5.5
   vertex 5.5 4 6
  endloop
 endfacet
 facet normal 0.57735026918962584 -0.57735026918962584 0.57735026918962584
  outer loop
   vertex 5 3.5 6
   vertex 5 3 5.5
   vertex 6 4 5.5
  endloop
 endfacet
 facet normal 0 -0 1
  outer loop
   vertex 5 3 5.5
   vertex 6 3 5.5
   vertex 6 4 5.5
  endloop
 endfacet
 facet normal 0.70710678118654746 0 0.70710678118654746
  outer loop
   vertex 6.5 3 5
   vertex 6.5 4 5
   vertex 6 4 5.5
  endloop
 endfacet
 facet normal 0.70710678118654746 0 0.70710678118654746
  outer loop
   vertex 6 3 5.5
   vertex 6.5 3 5
   vertex 6 4 5.5
  endloop
 endfacet
 facet normal -0.70710678118654746 0 0.70710678118654746
  outer loop
   vertex 2 4 5.5
   vertex 2 5 5.5
   vertex 1.5 5 5
  endloop
 endfacet
 facet normal -0.70710678118654746 0 0.70710678118654746
  outer loop
   vertex 1.5 4 5
   vertex 2 4 5.5
   vertex 1.5 5 5
  endloop
 endfacet
 facet normal -0.70710678118654746 0 0.70710678118654746
  outer loop
   vertex 2.5 5 6
   vertex 2 4 5.5
   vertex 2.5 4 6
  endloop
 endfacet
 facet normal -0.70710678118654746 0 0.70710678118654746
  outer loop
   vertex 2 5 5.5
   vertex 2 4 5.5
   vertex 2.5 5 6
  endloop
 endfacet
 facet normal 0.57735026918962584 -0.57735026918962584 0.57735026918962584
  outer loop
   vertex 6 4 5.5
   vertex 6 4.5 6
   vertex 5.5 4 6
  endloop
 endfacet
 facet normal 0.57735026918962584 -0.57735026918962584 0.57735026918962584
  outer loop
   vertex 7 5 5.5
   vertex 6.5 5 6
   vertex 6 4.5 6
  endloop
 endfacet
 facet normal 0.57735026918962584 -0.57735026918962584 0.57735026918962584
  outer loop
   vertex 7 4.5 5
   vertex 7 5 5.5
   vertex 6 4.5 6
  endloop
 endfacet
 facet normal 0.57735026918962584 -0.57735026918962584 0.57735026918962584
  outer loop
   vertex 7 4.5 5
   vertex 6 4.5 6
   vertex 6 4 5.5
  endloop
 endfacet
 facet normal 0.57735026918962584 -0.57735026918962584 0.57735026918962584
  outer loop
   vertex 7 4.5 5
   vertex 6 4 5.5
   vertex 6.5 4 5
  endloop
 endfacet
 facet normal 0.57735026918962584 -0.57735026918962584 0.57735026918962584
  outer loop
   vertex 7 4.5 5
   vertex 7.5 5 5
   vertex 7 5 5.5
  endloop
 endfacet
 facet normal -0.70710678118654746 0 0.70710678118654746
  outer loop
   vertex 2 5 5.5
   vertex 2 6 5.5
   vertex 1.5 6 5
  endloop
 endfacet
 facet normal -0.70710678118654746 0 0.70710678118654746
  outer loop
   vertex 1.5 5 5
   vertex 2 5 5.5
   vertex 1.5 6 5
  endloop
 endfacet
 facet normal -0.70710678118654746 0 0.70710678118654746
  outer loop
   vertex 2.5 6 6
   vertex 2 5 5.5
   vertex 2.5 5 6
  endloop
 endfacet
 facet normal -0.70710678118654746 0 0.70710678118654746
  outer loop
   vertex 2 6 5.5
   vertex 2 5 5.5
   vertex 2.5 6 6
  endloop
 endfacet
 facet normal 0.57735026918962584 -0.57735026918962584 0.57735026918962584
  outer loop
   vertex 7 5 5.5
   vertex 7 5.5 6
   vertex 6.5 5 6
  endloop
 endfacet
 facet normal 0.57735026918962584 -0.57735026918962584 0.57735026918962584
  outer loop
   vertex 8 6 5.5
   vertex 7.5 6 6
   vertex 7 5.5 6
  endloop
 endfacet
 facet normal 0.57735026918962584 -0.57735026918962584 0.57735026918962584
  outer loop
   vertex 8 5.5 5
   vertex 8 6 5.5
   vertex 7 5.5 6
  endloop
 endfacet
 facet normal 0.57735026918962584 -0.57735026918962584 0.57735026918962584
  outer loop
   vertex 8 5.5 5
   vertex 7 5.5 6
   vertex 7 5 5.5
  endloop
 endfacet
 facet normal 0.57735026918962584 -0.57735026918962584 0.57735026918962584
  outer loop
   vertex 8 5.5 5
   vertex 7 5 5.5
   vertex 7.5 5 5
  endloop
 endfacet
 facet normal 0.57735026918962584 -0.57735026918962584 0.57735026918962584
  outer loop
   vertex 8 5.5 5
   vertex 8.5 6 5
   vertex 8 6 5.5
  endloop
 endfacet
 facet normal -0.57735026918962584 0.57735026918962584 0.57735026918962584
  outer loop
   vertex 1.5 6 5
   vertex 2 6 5.5
   vertex 2 6.5 5
  endloop
 endfacet
 facet normal -0.57735026918962584 0.57735026918962584 0.57735026918962584
  outer loop
   vertex 2 6 5.5
   vertex 2.5 7 5
   vertex 2 6.5 5
  endloop
 endfacet
 facet normal -0.57735026918962584 0.57735026918962584 0.57735026918962584
  outer loop
   vertex 2 6 5.5
   vertex 2.5 6 6
   vertex 2.5 7 5
  endloop
 endfacet
 facet normal -1 -0 -0
  outer loop
   vertex 2.5 6 6
   vertex 2.5 7 6
   vertex 2.5 7 5
  endloop
 endfacet
 facet normal 0.70710678118654746 0 0.70710678118654746
  outer loop
   vertex 8 7 5.5
   vertex 7.5 6 6
   vertex 8 6 5.5
  endloop
 endfacet
 facet normal 0.70710678118654746 -0 0.70710678118654746
  outer loop
   vertex 7.5 7 6
   vertex 7.5 6 6
   vertex 8 7 5.5
  endloop
 endfacet
 facet normal 0.70710678118654746 0 0.70710678118654746
  outer loop
   vertex 8.5 6 5
   vertex 8.5 7 5
   vertex 8 7 5.5
  endloop
 endfacet
 facet normal 0.70710678118654746 0 0.70710678118654746
  outer loop
   vertex 8 6 5.5
   vertex 8.5 6 5
   vertex 8 7 5.5
  endloop
 endfacet
 facet normal -0.70710678118654746 0.70710678118654746 0
  outer loop
   vertex 2.5 7 5
   vertex 2.5 7 6
   vertex 3 7.5 6
  endloop
 endfacet
 facet normal -0.70710678118654746 0.70710678118654746 0
  outer loop
   vertex 3 7.5 5
   vertex 2.5 7 5
   vertex 3 7.5 6
  endloop
 endfacet
 facet normal -0.70710678118654746 0.70710678118654746 0
  outer loop
   vertex 3 7.5 6
   vertex 3.5 8 5
   vertex 3 7.5 5
  endloop
 endfacet
 facet normal -0.70710678118654746 0.70710678118654746 0
  outer loop
   vertex 3.5 8 6
   vertex 3.5 8 5
   vertex 3 7.5 6
  endloop
 endfacet
 facet normal 0.57735026918962584 0.57735026918962584 0.57735026918962584
  outer loop
   vertex 8 7.5 5
   vertex 7.5 7 6
   vertex 8 7 5.5
  endloop
 endfacet
 facet normal 0.57735026918962584 0.57735026918962584 0.57735026918962584
  outer loop
   vertex 8 7.5 5
   vertex 7.5 8 5
   vertex 7.5 7 6
  endloop
 endfacet
 facet normal 1 0 0
  outer loop
   vertex 7.5 8 5
   vertex 7.5 8 6
   vertex 7.5 7 6
  endloop
 endfacet
 facet normal 0.57735026918962584 0.57735026918962584 0.57735026918962584
  outer loop
   vertex 8.5 7 5
   vertex 8 7.5 5
   vertex 8 7 5.5
  endloop
 endfacet
 facet normal -0.70710678118654746 0.70710678118654746 0
  outer loop
   vertex 3.5 8 5
   vertex 3.5 8 6
   vertex 4 8.5 6
  endloop
 endfacet
 facet normal -0.70710678118654746 0.70710678118654746 0
  outer loop
   vertex 4 8.5 5
   vertex 3.5 8 5
   vertex 4 8.5 6
  endloop
 endfacet
 facet normal -0.57735026918962584 0.57735026918962584 -0.57735026918962584
  outer loop
   vertex 5 9 5.5
   vertex 4 8.5 6
   vertex 4.5 9 6
  endloop
 endfacet
 facet normal -0.57735026918962584 0.57735026918962584 -0.57735026918962584
  outer loop
   vertex 5 9 5.5
   vertex 5 8.5 5
   vertex 4 8.5 6
  endloop
 endfacet
 facet normal 0 1 0
  outer loop
   vertex 5 8.5 5
   vertex 4 8.5 5
   vertex 4 8.5 6
  endloop
 endfacet
 facet normal 0 0.70710678118654746 -0.70710678118654746
  outer loop
   vertex 5 8.5 5
   vertex 6 9 5.5
   vertex 6 8.5 5
  endloop
 endfacet
 facet normal 0 0.70710678118654746 -0.70710678118654746
  outer loop
   vertex 5 9 5.5
   vertex 6 9 5.5
   vertex 5 8.5 5
  endloop
 endfacet
 facet normal 0.57735026918962584 0.57735026918962584 -0.57735026918962584
  outer loop
   vertex 6.5 9 6
   vertex 6 8.5 5
   vertex 6 9 5.5
  endloop
 endfacet
 facet normal 0.57735026918962584 0.57735026918962584 -0.57735026918962584
  outer loop
   vertex 6.5 9 6
   vertex 7 8.5 6
   vertex 6 8.5 5
  endloop
 endfacet
 facet normal 0 1 -0
  outer loop
   vertex 7 8.5 6
   vertex 7 8.5 5
   vertex 6 8.5 5
  endloop
 endfacet
 facet normal 0.70710678118654746 0.70710678118654746 -0
  outer loop
   vertex 7.5 8 6
   vertex 7.5 8 5
   vertex 7 8.5 5
  endloop
 endfacet
 facet normal 0.70710678118654746 0.70710678118654746 0
  outer loop
   vertex 7 8.5 6
   vertex 7.5 8 6
   vertex 7 8.5 5
  endloop
 endfacet
 facet normal -0.57735026918962584 0.57735026918962584 -0.57735026918962584
  outer loop
   vertex 5 9 5.5
   vertex 4.5 9 6
   vertex 5 9.5 6
  endloop
 endfacet
 facet normal 0 0.70710678118654746 -0.70710678118654746
  outer loop
   vertex 6 9 5.5
   vertex 5 9 5.5
   vertex 5 9.5 6
  endloop
 endfacet
 facet normal 0 0.70710678118654746 -0.70710678118654746
  outer loop
   vertex 6 9.5 6
   vertex 6 9 5.5
   vertex 5 9.5 6
  endloop
 endfacet
 facet normal 0.57735026918962584 0.57735026918962584 -0.57735026918962584
  outer loop
   vertex 6.5 9 6
   vertex 6 9 5.5
   vertex 6 9.5 6
  endloop
 endfacet
 facet normal -0.57735026918962584 -0.57735026918962584 0.57735026918962584
  outer loop
   vertex 4 2.5 6
   vertex 4 3 6.5
   vertex 3.5 3 6
  endloop
 endfacet
 facet normal 0.57735026918962584 -0.57735026918962584 0.57735026918962584
  outer loop
   vertex 4 2.5 6
   vertex 4.5 3 6
   vertex 4 3 6.5
  endloop
 endfacet
 facet normal -0.57735026918962584 -0.57735026918962584 0.57735026918962584
  outer loop
   vertex 3 3.5 6
   vertex 3 4 6.5
   vertex 2.5 4 6
  endloop
 endfacet
 facet normal -0.57735026918962584 -0.57735026918962584 0.57735026918962584
  outer loop
   vertex 3 3.5 6
   vertex 3.5 4 7
   vertex 3 4 6.5
  endloop
 endfacet
 facet normal -0.57735026918962584 -0.57735026918962584 0.57735026918962584
  outer loop
   vertex 3.5 3 6
   vertex 3.5 4 7
   vertex 3 3.5 6
  endloop
 endfacet
 facet normal -0.57735026918962584 -0.57735026918962584 0.57735026918962584
  outer loop
   vertex 3.5 3 6
   vertex 4 3.5 7
   vertex 3.5 4 7
  endloop
 endfacet
 facet normal -0.57735026918962584 -0.57735026918962584 0.57735026918962584
  outer loop
   vertex 3.5 3 6
   vertex 4 3 6.5
   vertex 4 3.5 7
  endloop
 endfacet
 facet normal 0.57735026918962584 -0.57735026918962584 0.57735026918962584
  outer loop
   vertex 5 4 6.5
   vertex 4.5 4 7
   vertex 4 3.5 7
  endloop
 endfacet
 facet normal 0.57735026918962584 -0.57735026918962584 0.57735026918962584
  outer loop
   vertex 5 3.5 6
   vertex 5 4 6.5
   vertex 4 3.5 7
  endloop
 endfacet
 facet normal 0.57735026918962584 -0.57735026918962584 0.57735026918962584
  outer loop
   vertex 5 3.5 6
   vertex 4 3.5 7
   vertex 4 3 6.5
  endloop
 endfacet
 facet normal 0.57735026918962584 -0.57735026918962584 0.57735026918962584
  outer loop
   vertex 5 3.5 6
   vertex 4 3 6.5
   vertex 4.5 3 6
  endloop
 endfacet
 facet normal 0.57735026918962584 -0.57735026918962584 0.57735026918962584
  outer loop
   vertex 5 3.5 6
   vertex 5.5 4 6
   vertex 5 4 6.5
  endloop
 endfacet
 facet normal -0.57735026918962584 -0.57735026918962584 0.57735026918962584
  outer loop
   vertex 3 4 6.5
   vertex 3 4.5 7
   vertex 2.5 5 7
  endloop
 endfacet
 facet normal -0.57735026918962584 -0.57735026918962584 0.57735026918962584
  outer loop
   vertex 3 4 6.5
   vertex 2.5 5 7
   vertex 2.5 4 6
  endloop
 endfacet
 facet normal -1 0 -0
  outer loop
   vertex 2.5 4 6
   vertex 2.5 5 7
   vertex 2.5 5 6
  endloop
 endfacet
 facet normal -0.57735026918962584 -0.57735026918962584 0.57735026918962584
  outer loop
   vertex 3.5 4 7
   vertex 3 4.5 7
   vertex 3 4 6.5
  endloop
 endfacet
 facet normal 0.57735026918962584 -0.57735026918962584 0.57735026918962584
  outer loop
   vertex 5 4 6.5
   vertex 5 4.5 7
   vertex 4.5 4 7
  endloop
 endfacet
 facet normal 0.57735026918962584 -0.57735026918962584 0.57735026918962584
  outer loop
   vertex 6 5 6.5
   vertex 5.5 5 7
   vertex 5 4.5 7
  endloop
 endfacet
 facet normal 0.57735026918962584 -0.57735026918962584 0.57735026918962584
  outer loop
   vertex 6 4.5 6
   vertex 6 5 6.5
   vertex 5 4.5 7
  endloop
 endfacet
 facet normal 0.57735026918962584 -0.57735026918962584 0.57735026918962584
  outer loop
   vertex 6 4.5 6
   vertex 5 4.5 7
   vertex 5 4 6.5
  endloop
 endfacet
 facet normal 0.57735026918962584 -0.57735026918962584 0.57735026918962584
  outer loop
   vertex 6 4.5 6
   vertex 5 4 6.5
   vertex 5.5 4 6
  endloop
 endfacet
 facet normal 0.57735026918962584 -0.57735026918962584 0.57735026918962584
  outer loop
   vertex 6 4.5 6
   vertex 6.5 5 6
   vertex 6 5 6.5
  endloop
 endfacet
 facet normal -1 0 0
  outer loop
   vertex 2.5 5 6
   vertex 2.5 5 7
   vertex 2.5 6 6
  endloop
 endfacet
 facet normal -1 -0 -0
  outer loop
   vertex 2.5 5 7
   vertex 2.5 6 7
   vertex 2.5 6 6
  endloop
 endfacet
 facet normal 0.57735026918962584 -0.57735026918962584 0.57735026918962584
  outer loop
   vertex 6 5 6.5
   vertex 6 5.5 7
   vertex 5.5 5 7
  endloop
 endfacet
 facet normal 0.57735026918962584 -0.57735026918962584 0.57735026918962584
  outer loop
   vertex 7 6 6.5
   vertex 6.5 6 7
   vertex 6 5.5 7
  endloop
 endfacet
 facet normal 0.57735026918962584 -0.57735026918962584 0.57735026918962584
  outer loop
   vertex 7 5.5 6
   vertex 7 6 6.5
   vertex 6 5.5 7
  endloop
 endfacet
 facet normal 0.57735026918962584 -0.57735026918962584 0.57735026918962584
  outer loop
   vertex 7 5.5 6
   vertex 6 5.5 7
   vertex 6 5 6.5
  endloop
 endfacet
 facet normal 0.57735026918962584 -0.57735026918962584 0.57735026918962584
  outer loop
   vertex 7 5.5 6
   vertex 6 5 6.5
   vertex 6.5 5 6
  endloop
 endfacet
 facet normal 0.57735026918962584 -0.57735026918962584 0.57735026918962584
  outer loop
   vertex 7 5.5 6
   vertex 7.5 6 6
   vertex 7 6 6.5
  endloop
 endfacet
 facet normal -1 0 0
  outer loop
   vertex 2.5 6 6
   vertex 2.5 6 7
   vertex 2.5 7 6
  endloop
 endfacet
 facet normal -1 -0 -0
  outer loop
   vertex 2.5 6 7
   vertex 2.5 7 7
   vertex 2.5 7 6
  endloop
 endfacet
 facet normal 0.70710678118654746 0 0.70710678118654746
  outer loop
   vertex 7 7 6.5
   vertex 6.5 6 7
   vertex 7 6 6.5
  endloop
 endfacet
 facet normal 0.70710678118654746 -0 0.70710678118654746
  outer loop
   vertex 6.5 7 7
   vertex 6.5 6 7
   vertex 7 7 6.5
  endloop
 endfacet
 facet normal 0.70710678118654746 0 0.70710678118654746
  outer loop
   vertex 7.5 6 6
   vertex 7.5 7 6
   vertex 7 7 6.5
  endloop
 endfacet
 facet normal 0.70710678118654746 0 0.70710678118654746
  outer loop
   vertex 7 6 6.5
   vertex 7.5 6 6
   vertex 7 7 6.5
  endloop
 endfacet
 facet normal -0.70710678118654746 0.70710678118654746 0
  outer loop
   vertex 2.5 7 6
   vertex 2.5 7 7
   vertex 3 7.5 7
  endloop
 endfacet
 facet normal -0.70710678118654746 0.70710678118654746 0
  outer loop
   vertex 3 7.5 6
   vertex 2.5 7 6
   vertex 3 7.5 7
  endloop
 endfacet
 facet normal -0.70710678118654746 0.70710678118654746 0
  outer loop
   vertex 3 7.5 7
   vertex 3.5 8 6
   vertex 3 7.5 6
  endloop
 endfacet
 facet normal -0.70710678118654746 0.70710678118654746 0
  outer loop
   vertex 3.5 8 7
   vertex 3.5 8 6
   vertex 3 7.5 7
  endloop
 endfacet
 facet normal 0.57735026918962584 0.57735026918962584 0.57735026918962584
  outer loop
   vertex 6 8 6.5
   vertex 5.5 8 7
   vertex 6 7.5 7
  endloop
 endfacet
 facet normal 0.57735026918962584 0.57735026918962584 0.57735026918962584
  outer loop
   vertex 6.5 7 7
   vertex 6 8 6.5
   vertex 6 7.5 7
  endloop
 endfacet
 facet normal 0.57735026918962584 0.57735026918962584 0.57735026918962584
  outer loop
   vertex 6.5 7 7
   vertex 7 7 6.5
   vertex 6 8 6.5
  endloop
 endfacet
 facet normal 0 0 1
  outer loop
   vertex 7 7 6.5
   vertex 7 8 6.5
   vertex 6 8 6.5
  endloop
 endfacet
 facet normal 0.70710678118654746 0 0.70710678118654746
  outer loop
   vertex 7.5 7 6
   vertex 7.5 8 6
   vertex 7 8 6.5
  endloop
 endfacet
 facet normal 0.70710678118654746 0 0.70710678118654746
  outer loop
   vertex 7 7 6.5
   vertex 7.5 7 6
   vertex 7 8 6.5
  endloop
 endfacet
 facet normal -0.70710678118654746 0.70710678118654746 0
  outer loop
   vertex 3.5 8 6
   vertex 3.5 8 7
   vertex 4 8.5 7
  endloop
 endfacet
 facet normal -0.70710678118654746 0.70710678118654746 0
  outer loop
   vertex 4 8.5 6
   vertex 3.5 8 6
   vertex 4 8.5 7
  endloop
 endfacet
 facet normal -0.57735026918962584 0.57735026918962584 0.57735026918962584
  outer loop
   vertex 4.5 9 6
   vertex 5 8.5 7
   vertex 5 9 6.5
  endloop
 endfacet
 facet normal -0.57735026918962584 0.57735026918962584 0.57735026918962584
  outer loop
   vertex 4.5 9 6
   vertex 4 8.5 6
   vertex 5 8.5 7
  endloop
 endfacet
 facet normal -0 1 0
  outer loop
   vertex 4 8.5 6
   vertex 4 8.5 7
   vertex 5 8.5 7
  endloop
 endfacet
 facet normal 0.57735026918962584 0.57735026918962584 0.57735026918962584
  outer loop
   vertex 5.5 8 7
   vertex 5 9 6.5
   vertex 5 8.5 7
  endloop
 endfacet
 facet normal 0.57735026918962584 0.57735026918962584 0.57735026918962584
  outer loop
   vertex 5.5 8 7
   vertex 6 8 6.5
   vertex 5 9 6.5
  endloop
 endfacet
 facet normal 0 0 1
  outer loop
   vertex 6 8 6.5
   vertex 6 9 6.5
   vertex 5 9 6.5
  endloop
 endfacet
 facet normal 0.57735026918962584 0.57735026918962584 0.57735026918962584
  outer loop
   vertex 7 8.5 6
   vertex 6.5 9 6
   vertex 6 9 6.5
  endloop
 endfacet
 facet normal 0.57735026918962584 0.57735026918962584 0.57735026918962584
  outer loop
   vertex 7 8.5 6
   vertex 6 9 6.5
   vertex 7 8 6.5
  endloop
 endfacet
 facet normal 0 0 1
  outer loop
   vertex 7 8 6.5
   vertex 6 9 6.5
   vertex 6 8 6.5
  endloop
 endfacet
 facet normal 0.57735026918962584 0.57735026918962584 0.57735026918962584
  outer loop
   vertex 7.5 8 6
   vertex 7 8.5 6
   vertex 7 8 6.5
  endloop
 endfacet
 facet normal -0.57735026918962584 0.57735026918962584 0.57735026918962584
  outer loop
   vertex 4.5 9 6
   vertex 5 9 6.5
   vertex 5 9.5 6
  endloop
 endfacet
 facet normal -0 0.70710678118654746 0.70710678118654746
  outer loop
   vertex 6 9.5 6
   vertex 5 9.5 6
   vertex 5 9 6.5
  endloop
 endfacet
 facet normal 0 0.70710678118654746 0.70710678118654746
  outer loop
   vertex 6 9 6.5
   vertex 6 9.5 6
   vertex 5 9 6.5
  endloop
 endfacet
 facet normal 0.57735026918962584 0.57735026918962584 0.57735026918962584
  outer loop
   vertex 6.5 9 6
   vertex 6 9.5 6
   vertex 6 9 6.5
  endloop
 endfacet
 facet normal -0.57735026918962584 -0.57735026918962584 0.57735026918962584
  outer loop
   vertex 4 3.5 7
   vertex 4 4 7.5
   vertex 3.5 4 7
  endloop
 endfacet
 facet normal 0.57735026918962584 -0.57735026918962584 0.57735026918962584
  outer loop
   vertex 4 3.5 7
   vertex 4.5 4 7
   vertex 4 4 7.5
  endloop
 endfacet
 facet normal -0.57735026918962584 -0.57735026918962584 0.57735026918962584
  outer loop
   vertex 3 4.5 7
   vertex 3 5 7.5
   vertex 2.5 5 7
  endloop
 endfacet
 facet normal -0.57735026918962584 -0.57735026918962584 0.57735026918962584
  outer loop
   vertex 3 4.5 7
   vertex 3.5 4 7
   vertex 4 4 7.5
  endloop
 endfacet
 facet normal -0.57735026918962584 -0.57735026918962584 0.57735026918962584
  outer loop
   vertex 3 4.5 7
   vertex 4 4 7.5
   vertex 3 5 7.5
  endloop
 endfacet
 facet normal 0 -0 1
  outer loop
   vertex 3 5 7.5
   vertex 4 4 7.5
   vertex 4 5 7.5
  endloop
 endfacet
 facet normal 0.57735026918962584 -0.57735026918962584 0.57735026918962584
  outer loop
   vertex 4.5 4 7
   vertex 5 4.5 7
   vertex 5 5 7.5
  endloop
 endfacet
 facet normal 0.57735026918962584 -0.57735026918962584 0.57735026918962584
  outer loop
   vertex 4.5 4 7
   vertex 5 5 7.5
   vertex 4 4 7.5
  endloop
 endfacet
 facet normal 0 0 1
  outer loop
   vertex 4 4 7.5
   vertex 5 5 7.5
   vertex 4 5 7.5
  endloop
 endfacet
 facet normal 0.57735026918962584 -0.57735026918962584 0.57735026918962584
  outer loop
   vertex 5 4.5 7
   vertex 5.5 5 7
   vertex 5 5 7.5
  endloop
 endfacet
 facet normal -0.70710678118654746 0 0.70710678118654746
  outer loop
   vertex 3 5 7.5
   vertex 3 6 7.5
   vertex 2.5 6 7
  endloop
 endfacet
 facet normal -0.70710678118654746 0 0.70710678118654746
  outer loop
   vertex 2.5 5 7
   vertex 3 5 7.5
   vertex 2.5 6 7
  endloop
 endfacet
 facet normal -0.57735026918962584 -0.57735026918962584 0.57735026918962584
  outer loop
   vertex 3.5 6 8
   vertex 4 5 7.5
   vertex 4 5.5 8
  endloop
 endfacet
 facet normal -0.57735026918962584 -0.57735026918962584 0.57735026918962584
  outer loop
   vertex 3.5 6 8
   vertex 3 6 7.5
   vertex 4 5 7.5
  endloop
 endfacet
 facet normal 0 0 1
  outer loop
   vertex 3 6 7.5
   vertex 3 5 7.5
   vertex 4 5 7.5
  endloop
 endfacet
 facet normal 0.57735026918962584 -0.57735026918962584 0.57735026918962584
  outer loop
   vertex 4 5.5 8
   vertex 5 6 7.5
   vertex 4.5 6 8
  endloop
 endfacet
 facet normal 0.57735026918962584 -0.57735026918962584 0.57735026918962584
  outer loop
   vertex 4 5.5 8
   vertex 4 5 7.5
   vertex 5 6 7.5
  endloop
 endfacet
 facet normal 0 -0 1
  outer loop
   vertex 4 5 7.5
   vertex 5 5 7.5
   vertex 5 6 7.5
  endloop
 endfacet
 facet normal 0.57735026918962584 -0.57735026918962584 0.57735026918962584
  outer loop
   vertex 5.5 5 7
   vertex 6 5.5 7
   vertex 6 6 7.5
  endloop
 endfacet
 facet normal 0.57735026918962584 -0.57735026918962584 0.57735026918962584
  outer loop
   vertex 5.5 5 7
   vertex 6 6 7.5
   vertex 5 5 7.5
  endloop
 endfacet
 facet normal 0 0 1
  outer loop
   vertex 5 5 7.5
   vertex 6 6 7.5
   vertex 5 6 7.5
  endloop
 endfacet
 facet normal 0.57735026918962584 -0.57735026918962584 0.57735026918962584
  outer loop
   vertex 6 5.5 7
   vertex 6.5 6 7
   vertex 6 6 7.5
  endloop
 endfacet
 facet normal -0.70710678118654746 0 0.70710678118654746
  outer loop
   vertex 3 6 7.5
   vertex 3 7 7.5
   vertex 2.5 7 7
  endloop
 endfacet
 facet normal -0.70710678118654746 0 0.70710678118654746
  outer loop
   vertex 2.5 6 7
   vertex 3 6 7.5
   vertex 2.5 7 7
  endloop
 endfacet
 facet normal -0.57735026918962584 0.57735026918962584 0.57735026918962584
  outer loop
   vertex 4 6.5 8
   vertex 3 6 7.5
   vertex 3.5 6 8
  endloop
 endfacet
 facet normal -0.57735026918962584 0.57735026918962584 0.57735026918962584
  outer loop
   vertex 4 6.5 8
   vertex 4 7 7.5
   vertex 3 6 7.5
  endloop
 endfacet
 facet normal -0 0 1
  outer loop
   vertex 4 7 7.5
   vertex 3 7 7.5
   vertex 3 6 7.5
  endloop
 endfacet
 facet normal 0.57735026918962584 0.57735026918962584 0.57735026918962584
  outer loop
   vertex 4.5 6 8
   vertex 4 7 7.5
   vertex 4 6.5 8
  endloop
 endfacet
 facet normal 0.57735026918962584 0.57735026918962584 0.57735026918962584
  outer loop
   vertex 4.5 6 8
   vertex 5 6 7.5
   vertex 4 7 7.5
  endloop
 endfacet
 facet normal 0 0 1
  outer loop
   vertex 5 6 7.5
   vertex 5 7 7.5
   vertex 4 7 7.5
  endloop
 endfacet
 facet normal 0 0 1
  outer loop
   vertex 6 6 7.5
   vertex 6 7 7.5
   vertex 5 6 7.5
  endloop
 endfacet
 facet normal -0 0 1
  outer loop
   vertex 6 7 7.5
   vertex 5 7 7.5
   vertex 5 6 7.5
  endloop
 endfacet
 facet normal 0.70710678118654746 0 0.70710678118654746
  outer loop
   vertex 6.5 6 7
   vertex 6.5 7 7
   vertex 6 7 7.5
  endloop
 endfacet
 facet normal 0.70710678118654746 0 0.70710678118654746
  outer loop
   vertex 6 6 7.5
   vertex 6.5 6 7
   vertex 6 7 7.5
  endloop
 endfacet
 facet normal -0.57735026918962584 0.57735026918962584 0.57735026918962584
  outer loop
   vertex 2.5 7 7
   vertex 3 7 7.5
   vertex 3 7.5 7
  endloop
 endfacet
 facet normal -0.57735026918962584 0.57735026918962584 0.57735026918962584
  outer loop
   vertex 3.5 8 7
   vertex 3 7.5 7
   vertex 3 7 7.5
  endloop
 endfacet
 facet normal -0.57735026918962584 0.57735026918962584 0.57735026918962584
  outer loop
   vertex 3.5 8 7
   vertex 3 7 7.5
   vertex 4 8 7.5
  endloop
 endfacet
 facet normal 0 0 1
  outer loop
   vertex 4 8 7.5
   vertex 3 7 7.5
   vertex 4 7 7.5
  endloop
 endfacet
 facet normal 0 0 1
  outer loop
   vertex 5 7 7.5
   vertex 5 8 7.5
   vertex 4 7 7.5
  endloop
 endfacet
 facet normal -0 0 1
  outer loop
   vertex 5 8 7.5
   vertex 4 8 7.5
   vertex 4 7 7.5
  endloop
 endfacet
 facet normal 0.57735026918962584 0.57735026918962584 0.57735026918962584
  outer loop
   vertex 6 7.5 7
   vertex 5.5 8 7
   vertex 5 8 7.5
  endloop
 endfacet
 facet normal 0.57735026918962584 0.57735026918962584 0.57735026918962584
  outer loop
   vertex 6 7.5 7
   vertex 5 8 7.5
   vertex 6 7 7.5
  endloop
 endfacet
 facet normal 0 0 1
  outer loop
   vertex 6 7 7.5
   vertex 5 8 7.5
   vertex 5 7 7.5
  endloop
 endfacet
 facet normal 0.57735026918962584 0.57735026918962584 0.57735026918962584
  outer loop
   vertex 6.5 7 7
   vertex 6 7.5 7
   vertex 6 7 7.5
  endloop
 endfacet
 facet normal -0.57735026918962584 0.57735026918962584 0.57735026918962584
  outer loop
   vertex 3.5 8 7
   vertex 4 8 7.5
   vertex 4 8.5 7
  endloop
 endfacet
 facet normal -0 0.70710678118654746 0.70710678118654746
  outer loop
   vertex 5 8.5 7
   vertex 4 8.5 7
   vertex 4 8 7.5
  endloop
 endfacet
 facet normal 0 0.70710678118654746 0.70710678118654746
  outer loop
   vertex 5 8 7.5
   vertex 5 8.5 7
   vertex 4 8 7.5
  endloop
 endfacet
 facet normal 0.57735026918962584 0.57735026918962584 0.57735026918962584
  outer loop
   vertex 5.5 8 7
   vertex 5 8.5 7
   vertex 5 8 7.5
  endloop
 endfacet
 facet normal -0.57735026918962584 -0.57735026918962584 0.57735026918962584
  outer loop
   vertex 4 5.5 8
   vertex 4 6 8.5
   vertex 3.5 6 8
  endloop
 endfacet
 facet normal 0.57735026918962584 -0.57735026918962584 0.57735026918962584
  outer loop
   vertex 4 5.5 8
   vertex 4.5 6 8
   vertex 4 6 8.5
  endloop
 endfacet
 facet normal -0.57735026918962584 0.57735026918962584 0.57735026918962584
  outer loop
   vertex 3.5 6 8
   vertex 4 6 8.5
   vertex 4 6.5 8
  endloop
 endfacet
 facet normal 0.57735026918962584 0.57735026918962584 0.57735026918962584
  outer loop
   vertex 4.5 6 8
   vertex 4 6.5 8
   vertex 4 6 8.5
  endloop
 endfacet
endsolid
